<?xml version="1.0" encoding="utf-8"?>
<!-- Generator: Adobe Illustrator 27.3.1, SVG Export Plug-In . SVG Version: 6.00 Build 0)  -->
<svg version="1.1" id="Layer_1" xmlns="http://www.w3.org/2000/svg" xmlns:xlink="http://www.w3.org/1999/xlink" x="0px" y="0px"
	 viewBox="0 0 208.2 208.1" style="enable-background:new 0 0 208.2 208.1;" xml:space="preserve">
<style type="text/css">
	.st0{fill:#FFFFFF;}
	.st1{fill:#8D6C9F;}
	.st2{fill:#070607;}
	.st3{fill:#8D6C9E;}
	.st4{fill:#8C6C9D;}
	.st5{fill:#89699B;}
	.st6{fill:#FEF7ED;}
	.st7{fill:#FCF4EC;}
	.st8{fill:#FFF8EE;}
	.st9{fill:#8E6EA0;}
	.st10{fill:#8E6DA0;}
	.st11{fill:#9172A2;}
	.st12{fill:#080708;}
	.st13{fill:#1B161E;}
</style>
<path class="st0" d="M206.1,17.6c0.3,0.9,0.6,1.8,0.9,2.7C206.7,19.4,206.4,18.5,206.1,17.6z M179,0h-0.5
	C192.2,0.5,202,7.1,206,17.6C202.1,7.1,192.4,0.5,179,0z"/>
<path class="st1" d="M208.2,29.3c0-3.2-0.4-6.2-1.2-9c-0.2-0.9-0.5-1.8-0.9-2.7C202.1,7.1,192.3,0.5,179,0h-0.5C128.7,0,79.3,0,30,0
	C12,0,0.1,11.7,0.1,29.6c-0.1,49.7-0.1,99.3,0,149C0.1,196,12,207.9,29.2,208c49.8,0.1,99.7,0.1,149.5,0c17.4,0,29.3-11.9,29.3-29.1
	C208.2,129,208.2,79.2,208.2,29.3z M177.2,200c-48.7,0-97.3,0-146,0c-15.2,0-23-7.8-23-23.1c0-12.2,0-24.3,0-36.5
	c0-36.5,0-73,0-109.5c-0.1-5.3,1-9.8,3-13.3c0.1-0.1,0.1-0.2,0.2-0.4c2.3-3.8,5.7-6.5,10-8C21.9,9,22.5,8.9,23,8.7
	c0.2-0.1,0.4-0.1,0.7-0.2c0.3-0.1,0.6-0.1,1-0.2c0.4-0.1,0.7-0.1,1.1-0.2C26,8.1,26.3,8,26.5,8s0.3,0,0.5,0c0.8-0.1,1.5-0.1,2.3-0.1
	c49.8-0.1,99.6-0.1,149.4,0c2.9,0,5.5,0.4,7.9,1.1c8.4,2.6,13.1,9.6,13.6,20c-0.1,6,0,11.6,0,17.1c0,2.1,0,4.2,0,6.3
	c0,41.5,0,83,0,124.5C200.2,192.2,192.4,200,177.2,200z"/>
<path class="st2" d="M200.2,52.5c0-2.1,0-4.2,0-6.3c0-5.4-0.1-10.8-0.1-16.2c-3.6,0.7-7.2,1.3-11.2,2c-0.4,0.3-0.5,0.5-0.5,0.8
	c0,0.1,0,0.1,0,0.2c0,3,0.3,6.7-3.9,6.8c-4.6,0.1-4.1-3.8-4.3-7.4C176.5,32,173,32,168.9,32c-0.4,0.3-0.5,0.5-0.6,0.8
	c0,0.1,0,0.1,0,0.2c0,3,0.3,6.7-3.9,6.8c-4.6,0.1-4.1-3.8-4.3-7.4c-3.7-0.4-7.2-0.4-11.3-0.4c-0.4,0.3-0.5,0.5-0.6,0.8
	c0,0.1,0,0.1,0,0.2c0,3,0.3,6.7-3.9,6.8c-4.6,0.1-4.1-3.8-4.3-7.4c-3.7-0.4-7.2-0.4-11.3-0.4c-0.4,0.3-0.5,0.5-0.6,0.8
	c0,0.1,0,0.1,0,0.2c0,3,0.3,6.7-3.9,6.8c-4.6,0.1-4.1-3.8-4.3-7.4c-3.7-0.4-7.2-0.4-11.3-0.4c-0.4,0.3-0.5,0.5-0.6,0.8
	c0,0.1,0,0.1,0,0.2c0,3,0.3,6.7-3.9,6.8c-4.6,0.1-4.1-3.8-4.3-7.4C96.1,32,92.6,32,88.5,32c-0.4,0.3-0.5,0.5-0.6,0.8
	c0,0.1,0,0.1,0,0.2c0,3,0.3,6.7-3.9,6.8c-4.6,0.1-4.1-3.8-4.3-7.4C76,32,72.5,32,68.4,32c-0.4,0.3-0.5,0.5-0.6,0.8
	c0,0.1,0,0.1,0,0.2c0,3,0.3,6.7-3.9,6.8c-4.6,0.1-4.1-3.8-4.3-7.4C55.9,32,52.4,32,48.3,32c-0.4,0.3-0.5,0.5-0.6,0.8
	c0,0.1,0,0.1,0,0.2c0,3,0.3,6.7-3.9,6.8c-4.6,0.1-4.1-3.8-4.3-7.4C35.8,32,32.3,32,28.2,32c-0.4,0.3-0.5,0.5-0.6,0.8
	c0,0.1,0,0.1,0,0.2c0,3,0.3,6.7-3.9,6.8c-4.6,0.1-4.1-3.8-4.3-7.4c-3.7-1-7.3-1.7-11.4-1.9c-0.3,36.8-0.4,73.4-0.5,109.9
	c0,12.2,0,24.3,0,36.5c0,15.3,7.8,23.1,23,23.1c48.7,0,97.3,0,146,0c15.3,0,23-7.8,23-23.1C200.2,135.5,200.2,94,200.2,52.5z
	 M100.7,163.5C94.8,174.2,85.5,179.9,73,180c-15.5,0-31-0.1-46.5,0.1c-4.8,0-6.4-2-6.4-6.6c0-5.8,0-11.5,0.1-17.3
	c0-18.2,0-36.5,0-55.1c0-6,0-11.7,0-17.4c0-1.5,0-3.1,0-4.6c0-6.2,0.8-7,6.8-7c14.8,0,29.6,0.1,44.5,0C83.1,72,91.8,76.9,97,87.2
	c5.4,10.8,4.1,21.3-2.8,31.1c-0.6,0.8-1.2,1.6-1.8,2.4c2.6,3.3,5.6,6.2,7.7,9.7C106.7,141.2,106.7,152.5,100.7,163.5z M130.2,72
	c9.8,0.1,19.7,0,30,0c3.1,0,5.9,0,8.7,0c0.6,0,1.2,0,1.8,0c3.7-0.1,5.6,1.6,5.5,5.4c-0.1,4.5,0,9,0,13.5c0,3.5-1.7,5.2-5.2,5.2
	c-13.8,0-27.7,0-41.5,0c-3.8,0-5.4-2-5.3-5.6c0.1-4.2,0.1-8.3,0-12.5C124,73.6,126,71.9,130.2,72z M176,152c-11.8,0-23.6,0-35.5,0
	c1.2,8.3,11.4,12,18.2,6.3c4-3.4,7.5-3.4,11.8-2c3.2,1,6.4,1.7,9.6,2.7c0.3,0.1,0.6,0.2,0.9,0.3c0.2,0.1,0.4,0.2,0.6,0.2
	c0.1,0,0.2,0.1,0.2,0.1c1.9,1,2.8,2.5,2,5.2l-0.1,0.1c-9.4,13.2-21.7,19.7-34.2,19.2c-0.4,0-0.9,0-1.3-0.1c-1.4-0.1-2.9-0.3-4.3-0.6
	c-0.8-0.1-1.6-0.3-2.3-0.6c-3.1-0.9-6.2-2.2-9.2-4c-0.9-0.5-1.7-1-2.5-1.6c-18.1-12.4-23.2-41.3-10.6-59.5
	c11.3-16.3,29-22.3,45.2-14.7c14.8,7,22.3,19.6,23.6,35.7C189.1,153.8,188,152,176,152z"/>
<path d="M60,32c-3.6,0-7.2,0-11.3-0.4c-0.6-3.6-0.1-7.5-4.7-7.4c-4.2,0.1-3.9,3.8-3.9,6.8c0,0.3-0.1,0.7-0.1,1
	c-3.6,0-7.2,0-11.3-0.4c-0.6-3.6-0.1-7.5-4.7-7.4c-4.2,0.1-3.9,3.8-3.9,6.8c0,0.3-0.1,0.7-0.1,1c-3.6-0.6-7.3-1.3-11.3-1.9
	C8,16.8,16,8.1,29.3,8.1C79.1,8,128.9,8,178.7,8.1c13.2,0,20.9,7.8,21.4,21.5c-3.7,1.1-7.3,1.8-11.4,2c-0.6-3.6-0.1-7.5-4.7-7.4
	c-4.2,0.1-3.9,3.8-3.9,6.8c0,0.3-0.1,0.7-0.1,1c-3.6,0-7.2,0-11.3-0.4c-0.6-3.6-0.1-7.5-4.7-7.4c-4.2,0.1-3.9,3.8-3.9,6.8
	c0,0.3-0.1,0.7-0.1,1c-3.6,0-7.2,0-11.3-0.4c-0.6-3.6-0.1-7.5-4.7-7.4c-4.2,0.1-3.9,3.8-3.9,6.8c0,0.3-0.1,0.7-0.1,1
	c-3.6,0-7.2,0-11.3-0.4c-0.6-3.6-0.1-7.5-4.7-7.4c-4.2,0.1-3.9,3.8-3.9,6.8c0,0.3-0.1,0.7-0.1,1c-3.6,0-7.2,0-11.3-0.4
	c-0.6-3.6-0.1-7.5-4.7-7.4c-4.2,0.1-3.9,3.8-3.9,6.8c0,0.3-0.1,0.7-0.1,1c-3.6,0-7.2,0-11.3-0.4c-0.6-3.6-0.1-7.5-4.7-7.4
	c-4.2,0.1-3.9,3.8-3.9,6.8c0,0.3-0.1,0.7-0.1,1c-3.6,0-7.2,0-11.3-0.4c-0.6-3.6-0.1-7.5-4.7-7.4c-4.2,0.1-3.9,3.8-3.9,6.8
	C60.2,31.3,60.1,31.7,60,32z"/>
<path class="st3" d="M100.1,130.3c-2.1-3.5-5.1-6.4-7.7-9.7c0.6-0.8,1.2-1.5,1.8-2.4c6.8-9.8,8.1-20.3,2.8-31.1
	C91.9,76.8,83.2,71.9,71.5,72c-14.8,0.1-29.6,0-44.5,0c-6,0-6.8,0.8-6.8,7c0,1.5,0,3.1,0,4.6c0,5.6,0,11.3,0,17.4
	c0,18.6,0,36.9,0,55.1c0,5.8,0,11.5-0.1,17.3c0,4.6,1.5,6.7,6.4,6.6c15.5-0.2,31,0,46.5-0.1c12.5,0,21.8-5.7,27.7-16.5
	C106.7,152.5,106.7,141.2,100.1,130.3z M96.2,153.4c-3.3,12-11.7,18.5-24,18.6c-14.5,0-28.9,0-43.7,0V80.7c0.1-0.1,0.3-0.5,0.6-0.5
	c6.2,0.1,12.4,0.1,18.5,0.2c0.5,0,1,0,1.4,0c9.8,0.1,19.6,0.3,29.4,0.4c0.1,0,0.1,0.1,0.2,0.1c11.8,5.2,16.1,17.3,12,27.4
	c-0.6,1.4-1.3,2.8-2.2,4.1c-0.5,0.6-0.9,1.3-1.5,1.9c-0.8,1-1.7,1.8-2.8,2.7c-4.5,3.7-4.4,6.1,0.6,9C94.7,132,99.2,142.8,96.2,153.4
	z"/>
<path class="st4" d="M176,152c12,0,13.2,1.8,12-13.2c-1.3-16.1-8.7-28.7-23.6-35.7c-16.2-7.7-33.8-1.6-45.2,14.7
	c-12.6,18.2-7.5,47,10.6,59.5c0.8,0.6,1.7,1.1,2.5,1.6c3,1.8,6.1,3.1,9.2,4c0.8,0.2,1.5,0.4,2.3,0.6c1.4,0.3,2.9,0.5,4.3,0.6
	c0.4,0,0.9,0.1,1.3,0.1c12.5,0.5,24.8-6,34.1-19c0-0.1,0-0.1,0.1-0.2c0.9-2.8-0.1-4.4-1.9-5.3c-0.1,0-0.1-0.1-0.2-0.1
	c-0.2-0.1-0.4-0.2-0.6-0.2c-0.3-0.1-0.6-0.2-0.9-0.3c-3.2-0.9-6.5-1.6-9.6-2.7c-4.3-1.4-7.8-1.4-11.8,2c-6.8,5.7-16.9,2-18.2-6.3
	C152.4,152,164.2,152,176,152z M131.4,152c0,0.3,0.1,0.6,0.1,0.8c0.1,0.8,0.4,1.7,0.7,2.7c0.3,1,0.8,2,1.3,3.1
	c5,9.8,17.3,13.6,27.5,7.7c4.4-2.5,7.9-2.5,12-0.8c-8.1,12.6-29.1,14.4-41.3,3.4c-15.6-14-15.5-39.9,0.1-53.8
	c15.3-13.6,39.7-6.1,46.1,14.5c1.4,4.4,1.8,9,2.9,14.5h-38.2C134.7,144,131,146.8,131.4,152z"/>
<path class="st3" d="M176.2,77.4c0-3.8-1.8-5.5-5.5-5.4c-0.6,0-1.2,0-1.8,0c-2.7,0-5.5,0-8.7,0c-10.3,0-20.2,0.1-30,0
	c-4.2-0.1-6.2,1.6-6,5.9c0.1,4.2,0.1,8.3,0,12.5c-0.1,3.7,1.4,5.6,5.3,5.6c13.8,0,27.7,0,41.5,0c3.5,0,5.2-1.6,5.2-5.2
	C176.2,86.4,176.2,81.9,176.2,77.4z M132.5,88v-8h31.3c6.7,0,3.9,4,4.5,7.1c0,0.3,0.2,0.6,0.3,0.9H132.5z"/>
<path class="st5" d="M20.1,32.4c0-0.7,0.1-1.1,0.1-1.4c0-3-0.3-6.7,3.9-6.8c4.6-0.1,4.1,3.8,4.3,7.4c0,0.7-0.1,1.1-0.1,1.4
	c0,3,0.3,6.7-3.9,6.8C19.8,39.9,20.2,36,20.1,32.4z"/>
<path class="st5" d="M120.1,32.4c0-0.7,0.1-1.1,0.1-1.4c0-3-0.3-6.7,3.9-6.8c4.6-0.1,4.1,3.8,4.3,7.4c0,0.7-0.1,1.1-0.1,1.4
	c0,3,0.3,6.7-3.9,6.8C119.8,39.9,120.2,36,120.1,32.4z"/>
<path class="st5" d="M40.1,32.4c0-0.7,0.1-1.1,0.1-1.4c0-3-0.3-6.7,3.9-6.8c4.6-0.1,4.1,3.8,4.3,7.4c0,0.7-0.1,1.1-0.1,1.4
	c0,3,0.3,6.7-3.9,6.8C39.8,39.9,40.2,36,40.1,32.4z"/>
<path class="st5" d="M60.1,32.4c0-0.7,0.1-1.1,0.1-1.4c0-3-0.3-6.7,3.9-6.8c4.6-0.1,4.1,3.8,4.3,7.4c0,0.7-0.1,1.1-0.1,1.4
	c0,3,0.3,6.7-3.9,6.8C59.8,39.9,60.2,36,60.1,32.4z"/>
<path class="st5" d="M80.1,32.4c0-0.7,0.1-1.1,0.1-1.4c0-3-0.3-6.7,3.9-6.8c4.6-0.1,4.1,3.8,4.3,7.4c0,0.7-0.1,1.1-0.1,1.4
	c0,3,0.3,6.7-3.9,6.8C79.8,39.9,80.2,36,80.1,32.4z"/>
<path class="st5" d="M100.1,32.4c0-0.7,0.1-1.1,0.1-1.4c0-3-0.3-6.7,3.9-6.8c4.6-0.1,4.1,3.8,4.3,7.4c0,0.7-0.1,1.1-0.1,1.4
	c0,3,0.3,6.7-3.9,6.8C99.8,39.9,100.2,36,100.1,32.4z"/>
<path class="st5" d="M180.1,32.4c0-0.7,0.1-1.1,0.1-1.4c0-3-0.3-6.7,3.9-6.8c4.6-0.1,4.1,3.8,4.3,7.4c0,0.7-0.1,1.1-0.1,1.4
	c0,3,0.3,6.7-3.9,6.8C179.8,39.9,180.2,36,180.1,32.4z"/>
<path class="st5" d="M160.1,32.4c0-0.7,0.1-1.1,0.1-1.4c0-3-0.3-6.7,3.9-6.8c4.6-0.1,4.1,3.8,4.3,7.4c0,0.7-0.1,1.1-0.1,1.4
	c0,3,0.3,6.7-3.9,6.8C159.8,39.9,160.2,36,160.1,32.4z"/>
<path class="st5" d="M140.1,32.4c0-0.7,0.1-1.1,0.1-1.4c0-3-0.3-6.7,3.9-6.8c4.6-0.1,4.1,3.8,4.3,7.4c0,0.7-0.1,1.1-0.1,1.4
	c0,3,0.3,6.7-3.9,6.8C139.8,39.9,140.2,36,140.1,32.4z"/>
<path class="st6" d="M84.8,126.1c-5-3-5.1-5.3-0.6-9c1-0.8,1.9-1.7,2.8-2.7c0.5-0.6,1-1.3,1.5-1.9c0.9-1.3,1.7-2.7,2.2-4.1
	c4.1-10.1-0.1-22.2-11.8-27.4h-0.2c-10-0.2-19.8-0.3-29.6-0.5c-0.5,0-1,0-1.4,0c-6.2-0.1-12.4-0.2-18.5-0.2c-0.2,0-0.5,0.4-0.6,0.5
	V172c14.8,0,29.3,0,43.7,0c12.3,0,20.6-6.5,24-18.6C99.2,142.8,94.7,132,84.8,126.1z M76.9,154.7c-0.2,0.2-0.4,0.5-0.6,0.7
	c-0.7,0.7-1.5,1.4-2.4,2c-1.7,1.2-3.9,2.4-5.9,2.4c-7.8,0.3-15.7,0.4-23.5,0c-1.5-0.1-4-2.8-4.1-4.4c-0.4-7.5-0.2-15-0.2-22.5
	c0-3.3,1.7-4.9,4.9-4.9c7.3,0,14.7-0.4,22,0.1c1.1,0.1,2.2,0.2,3.2,0.5c0.6,0.2,1.1,0.4,1.7,0.6c4.2,1.9,6.7,5.8,8,10.9
	c0,0.1,0,0.2,0,0.3c0.4,4.9,0.1,9.2-2,12.7C77.7,153.7,77.3,154.2,76.9,154.7z M79.9,105.4c-0.1,0.4-0.2,0.8-0.3,1.2
	c-1.6,5-5.8,8.3-12.3,9.4h-0.4c-1,0-2,0-3,0c-6.2,0-12,0-17.9,0c-4,0.1-5.8-1.7-5.7-5.7c0.1-5.7,0.1-11.3,0-17
	c0-3.8,1.8-5.4,5.5-5.4c6.5,0.1,13,0,19.5,0c8.6,0.1,14.5,5,15,12.7C80.3,102.4,80.2,103.9,79.9,105.4z"/>
<path class="st7" d="M161.1,166.2c-10.2,6-22.5,2.1-27.5-7.7c-0.5-1.1-1-2.1-1.3-3.1c-0.3-0.9-0.6-1.8-0.7-2.7
	c0-0.3-0.1-0.6-0.1-0.8c-0.5-5.1,3.2-7.9,10.8-8H181c-1.1-5.5-1.5-10.1-2.9-14.5c-6.4-20.5-30.8-28.1-46.1-14.5
	c-15.6,13.9-15.7,39.8-0.1,53.8c12.2,10.9,33.2,9.1,41.3-3.4C169,163.7,165.4,163.7,161.1,166.2z M132.2,131.7
	c0.6-9.7,11.1-16.5,22.3-14.4c0.2,0,0.3,0.1,0.5,0.1c0.5,0.2,0.9,0.3,1.4,0.5c6.2,2.3,9.9,5.9,11.3,11.3c0.2,0.8,0.3,1.6,0.4,2.5
	c0.4,3.4-0.9,5.7-4.5,5.8c-9,0.1-18,0.1-27,0C133.1,137.5,132,135.1,132.2,131.7z"/>
<path class="st8" d="M164,80c7.3-0.1,3,4.8,4.5,8c-6.6,0-12.5,0-18.5,0c-5.8,0-11.5,0-17.6,0c0-2.7,0-5,0-8
	C142.8,80,153.2,80,164,80z"/>
<path class="st9" d="M80,140.6c0-0.1,0-0.1,0-0.1c-1.3-5.3-3.8-9.3-8-11.2c-0.5-0.2-1.1-0.4-1.7-0.6c-1-0.3-2-0.5-3.2-0.5
	c-7.3-0.5-14.7-0.1-22-0.1c-3.3,0-4.9,1.7-4.9,4.9c0,7.5-0.2,15,0.2,22.5c0.1,1.6,2.6,4.3,4.1,4.4c7.8,0.4,15.7,0.3,23.5,0
	c2-0.1,4.1-1.2,5.9-2.4c0.9-0.6,1.7-1.3,2.4-2c0.2-0.2,0.4-0.5,0.6-0.7c0.4-0.5,0.8-1,1.1-1.5C80.1,149.6,80.4,145.3,80,140.6z
	 M65.3,152c-5.5,0.1-10.9,0-17.1,0c0-4.9-0.1-9.5,0.1-14c0-0.1,0.1-0.3,0.2-0.4l0.1-0.1c0,0,0.1-0.1,0.2-0.1
	c0.6-0.5,1.5-0.9,2.1-1.3h0.5c1.5,0,2.9,0,4.3,0c0.7,0,1.4,0,2.1,0c1.6,0,3.2,0,4.8,0c0.9,0,1.8,0,2.8,0c4.4,0.1,6.8,3.1,6.8,8
	C72.2,148.9,69.7,151.9,65.3,152z"/>
<path class="st10" d="M80.2,100.7c-0.5-7.7-6.4-12.6-15-12.7c-6.5,0-13,0-19.5,0c-3.7,0-5.5,1.6-5.5,5.4c0,5.7,0.1,11.3,0,17
	c-0.1,4,1.7,5.8,5.7,5.7c5.9-0.1,11.8,0,17.9,0h3l0,0c6.8-1.1,11.2-4.4,12.7-9.4c0.1-0.4,0.2-0.8,0.3-1.2
	C80.2,103.9,80.3,102.4,80.2,100.7z M72.2,102.8c0,0.4-0.1,0.7-0.2,1l0,0c-0.5,2.1-2.2,3.5-5,4h-0.3c-3.2,0-6.2,0.1-9.2,0.1
	s-6,0-9,0v-12c5.7,0,11.3,0,16.9,0c3.3,0,6,1.2,6.6,4.7C72.2,101.5,72.2,102.2,72.2,102.8z"/>
<path class="st11" d="M168.2,131.7c-0.1-0.9-0.2-1.7-0.4-2.5c-1.4-5.4-5.1-9-10.9-11.2c-0.8-0.2-1.3-0.5-1.8-0.6
	c-0.2,0-0.3-0.1-0.5-0.1c-11.2-2.1-21.7,4.7-22.3,14.4c-0.2,3.4,0.9,5.7,4.5,5.8c9,0.1,18,0.1,27,0
	C167.3,137.5,168.5,135.1,168.2,131.7z M157.9,129.6c-3.6,0.1-6.9,0.1-10.2,0.1c-2.1,0-4.2,0-6.4,0c2.8-4.8,6.8-5.5,10.6-4.6
	c0.7,0.2,1.5,0.5,2.1,1c1.5,1,2.9,2.4,4.3,3.5C158.2,129.6,158,129.6,157.9,129.6z"/>
<path class="st12" d="M51.4,136c5,0,9.5-0.1,14,0c4.4,0.1,6.8,3.1,6.8,8s-2.5,7.9-6.9,7.9c-5.5,0.1-10.9,0-17.1,0
	c0-4.9-0.1-9.5,0.1-14C48.4,137.3,50,136.6,51.4,136z"/>
<path class="st12" d="M66.6,107.9c-6.2,0-12,0-18.1,0c0-4,0-7.7,0-12c5.7,0,11.3,0,16.9,0c3.3,0,6,1.2,6.6,4.7
	C72.7,104.6,71,107.1,66.6,107.9z"/>
<path class="st13" d="M158,129.7c-5.6,0.1-10.8,0.1-16.7,0.1c2.8-4.8,6.8-5.5,10.6-4.6C154.2,125.7,156.2,128.1,158,129.7z"/>
</svg>
