<svg version="1.1" id="Layer_1" xmlns="http://www.w3.org/2000/svg" xmlns:xlink="http://www.w3.org/1999/xlink" x="0px" y="0px"
	 width="100%" viewBox="0 0 256 256" enable-background="new 0 0 256 256" xml:space="preserve">
<path fill="#010101" opacity="1.000000" stroke="none" 
	d="
M257.000000,41.000000 
	C257.000000,99.354225 257.000000,157.708450 256.655182,216.681885 
	C252.171356,235.639496 241.465408,248.242706 223.659698,254.607590 
	C221.142990,255.507217 218.555008,256.207489 216.000000,257.000000 
	C157.979111,257.000000 99.958214,257.000000 41.317261,256.655670 
	C22.424120,252.176620 9.848550,241.507126 3.416361,223.797455 
	C2.595457,221.537262 1.804715,219.266083 0.999998,217.000000 
	C1.000000,158.312439 1.000000,99.624878 1.355956,40.363235 
	C1.874248,39.322475 2.064184,38.863392 2.194940,38.388031 
	C7.313846,19.778383 19.006346,7.677244 37.686092,2.443503 
	C38.526257,2.208104 39.231770,1.492132 40.000000,1.000000 
	C98.020897,1.000000 156.041794,1.000000 214.704025,1.355376 
	C233.245438,3.371107 249.865234,17.634190 255.030014,35.710503 
	C255.545319,37.514053 256.336731,39.238724 257.000000,41.000000 
M121.138573,87.344185 
	C118.404297,85.835548 115.829529,83.639046 112.902802,82.960350 
	C106.659103,81.512474 100.252457,80.190620 93.877556,80.002197 
	C79.456932,79.576004 65.015076,79.868187 50.437019,79.868187 
	C50.437019,112.189240 50.437019,144.038834 50.437019,175.980591 
	C67.685143,175.980591 84.666756,176.524734 101.581635,175.700104 
	C107.928329,175.390686 114.392418,172.477203 120.300423,169.686874 
	C125.500023,167.231110 128.863449,162.549866 130.091751,156.559692 
	C131.498596,149.698792 131.312668,142.997040 128.818100,136.447861 
	C126.417511,130.145416 121.074791,126.864342 115.123314,124.186272 
	C128.816895,113.192749 131.034088,100.225334 121.138573,87.344185 
M150.836258,123.488136 
	C150.038986,125.844757 149.174789,128.181137 148.454880,130.561157 
	C141.744751,152.744720 155.745514,181.918076 186.617249,179.035049 
	C200.286896,177.758453 211.517059,168.912567 215.074402,155.652496 
	C211.513000,155.652496 208.067261,155.805939 204.641525,155.609787 
	C201.148926,155.409775 198.653503,156.162827 196.258240,159.256973 
	C192.067307,164.670715 182.076904,165.985703 174.986374,162.873245 
	C169.779083,160.587418 166.352692,153.351273 167.113693,145.673996 
	C183.469406,145.673996 199.876846,145.673996 216.223190,145.673996 
	C218.395523,125.546844 210.418655,111.847054 193.612778,106.280258 
	C177.579956,100.969543 159.636185,107.923523 150.836258,123.488136 
M167.770981,95.616768 
	C179.039810,95.616768 190.308640,95.616768 201.614197,95.616768 
	C201.614197,92.030571 201.614197,88.994415 201.614197,86.041969 
	C188.393021,86.041969 175.503311,86.041969 162.679138,86.041969 
	C162.679138,89.309402 162.679138,92.236069 162.679138,95.418671 
	C164.259628,95.493790 165.553635,95.555298 167.770981,95.616768 
z"/>
<path fill="#FBFBFB" opacity="1.000000" stroke="none" 
	d="
M257.000000,40.531342 
	C256.336731,39.238724 255.545319,37.514053 255.030014,35.710503 
	C249.865234,17.634190 233.245438,3.371107 215.172684,1.355376 
	C228.924881,1.000000 242.849747,1.000000 257.000000,1.000000 
	C257.000000,14.020028 257.000000,27.041355 257.000000,40.531342 
z"/>
<path fill="#FCFCFC" opacity="1.000000" stroke="none" 
	d="
M216.468658,257.000000 
	C218.555008,256.207489 221.142990,255.507217 223.659698,254.607590 
	C241.465408,248.242706 252.171356,235.639496 256.655182,217.150543 
	C257.000000,230.260910 257.000000,243.521805 257.000000,257.000000 
	C243.646561,257.000000 230.291931,257.000000 216.468658,257.000000 
z"/>
<path fill="#FCFCFC" opacity="1.000000" stroke="none" 
	d="
M0.999998,217.468658 
	C1.804715,219.266083 2.595457,221.537262 3.416361,223.797455 
	C9.848550,241.507126 22.424120,252.176620 40.848602,256.655670 
	C27.740011,257.000000 14.480022,257.000000 1.000000,257.000000 
	C1.000000,243.979935 1.000000,230.958618 0.999998,217.468658 
z"/>
<path fill="#FCFCFC" opacity="1.000000" stroke="none" 
	d="
M39.531342,1.000000 
	C39.231770,1.492132 38.526257,2.208104 37.686092,2.443503 
	C19.006346,7.677244 7.313846,19.778383 2.194940,38.388031 
	C2.064184,38.863392 1.874248,39.322475 1.355956,39.894577 
	C1.000000,27.073353 1.000000,14.146708 1.000000,1.000000 
	C13.686713,1.000000 26.374699,1.000000 39.531342,1.000000 
z"/>
<path fill="#FCFCFC" opacity="1.000000" stroke="none" 
	d="
M121.389717,87.612671 
	C131.034088,100.225334 128.816895,113.192749 115.123314,124.186272 
	C121.074791,126.864342 126.417511,130.145416 128.818100,136.447861 
	C131.312668,142.997040 131.498596,149.698792 130.091751,156.559692 
	C128.863449,162.549866 125.500023,167.231110 120.300423,169.686874 
	C114.392418,172.477203 107.928329,175.390686 101.581635,175.700104 
	C84.666756,176.524734 67.685143,175.980591 50.437019,175.980591 
	C50.437019,144.038834 50.437019,112.189240 50.437019,79.868187 
	C65.015076,79.868187 79.456932,79.576004 93.877556,80.002197 
	C100.252457,80.190620 106.659103,81.512474 112.902802,82.960350 
	C115.829529,83.639046 118.404297,85.835548 121.389717,87.612671 
M71.931633,141.535812 
	C71.931633,147.439728 71.931633,153.343643 71.931633,160.114426 
	C82.144104,159.526520 91.765793,159.499680 101.224602,158.244965 
	C107.655251,157.391953 110.254265,153.027283 110.197449,146.515335 
	C110.127396,138.485306 108.186249,134.673264 101.127571,133.991364 
	C91.530045,133.064178 81.775688,133.760361 71.931633,133.760361 
	C71.931633,135.925262 71.931633,138.237625 71.931633,141.535812 
M101.183105,116.918785 
	C106.339020,113.378830 107.051956,108.206299 105.770279,102.760033 
	C104.814850,98.700073 101.139198,96.945114 97.396744,96.797600 
	C89.020935,96.467461 80.623169,96.694313 72.211624,96.694313 
	C72.211624,104.371521 72.211624,111.589790 72.211624,119.071930 
	C76.939919,119.071930 81.413574,119.308968 85.850792,119.008331 
	C90.737839,118.677216 95.591415,117.852074 101.183105,116.918785 
z"/>
<path fill="#FBFBFB" opacity="1.000000" stroke="none" 
	d="
M150.953842,123.127502 
	C159.636185,107.923523 177.579956,100.969543 193.612778,106.280258 
	C210.418655,111.847054 218.395523,125.546844 216.223190,145.673996 
	C199.876846,145.673996 183.469406,145.673996 167.113693,145.673996 
	C166.352692,153.351273 169.779083,160.587418 174.986374,162.873245 
	C182.076904,165.985703 192.067307,164.670715 196.258240,159.256973 
	C198.653503,156.162827 201.148926,155.409775 204.641525,155.609787 
	C208.067261,155.805939 211.513000,155.652496 215.074402,155.652496 
	C211.517059,168.912567 200.286896,177.758453 186.617249,179.035049 
	C155.745514,181.918076 141.744751,152.744720 148.454880,130.561157 
	C149.174789,128.181137 150.038986,125.844757 150.953842,123.127502 
M166.898758,130.489395 
	C166.815460,131.561096 166.732178,132.632812 166.652115,133.662872 
	C177.203918,133.662872 187.388199,133.662872 197.892242,133.662872 
	C196.060669,128.064453 194.526672,122.702087 189.046890,120.051689 
	C180.179428,115.762772 171.745209,119.551376 166.898758,130.489395 
z"/>
<path fill="#F0F0F0" opacity="1.000000" stroke="none" 
	d="
M167.309311,95.616791 
	C165.553635,95.555298 164.259628,95.493790 162.679138,95.418671 
	C162.679138,92.236069 162.679138,89.309402 162.679138,86.041969 
	C175.503311,86.041969 188.393021,86.041969 201.614197,86.041969 
	C201.614197,88.994415 201.614197,92.030571 201.614197,95.616768 
	C190.308640,95.616768 179.039810,95.616768 167.309311,95.616791 
z"/>
<path fill="#040404" opacity="1.000000" stroke="none" 
	d="
M71.931633,141.042908 
	C71.931633,138.237625 71.931633,135.925262 71.931633,133.760361 
	C81.775688,133.760361 91.530045,133.064178 101.127571,133.991364 
	C108.186249,134.673264 110.127396,138.485306 110.197449,146.515335 
	C110.254265,153.027283 107.655251,157.391953 101.224602,158.244965 
	C91.765793,159.499680 82.144104,159.526520 71.931633,160.114426 
	C71.931633,153.343643 71.931633,147.439728 71.931633,141.042908 
z"/>
<path fill="#010101" opacity="1.000000" stroke="none" 
	d="
M100.821335,117.080460 
	C95.591415,117.852074 90.737839,118.677216 85.850792,119.008331 
	C81.413574,119.308968 76.939919,119.071930 72.211624,119.071930 
	C72.211624,111.589790 72.211624,104.371521 72.211624,96.694313 
	C80.623169,96.694313 89.020935,96.467461 97.396744,96.797600 
	C101.139198,96.945114 104.814850,98.700073 105.770279,102.760033 
	C107.051956,108.206299 106.339020,113.378830 100.821335,117.080460 
z"/>
<path fill="#060606" opacity="1.000000" stroke="none" 
	d="
M166.984634,130.114639 
	C171.745209,119.551376 180.179428,115.762772 189.046890,120.051689 
	C194.526672,122.702087 196.060669,128.064453 197.892242,133.662872 
	C187.388199,133.662872 177.203918,133.662872 166.652115,133.662872 
	C166.732178,132.632812 166.815460,131.561096 166.984634,130.114639 
z"/>
</svg>