<svg version="1.1" id="Layer_1" xmlns="http://www.w3.org/2000/svg" xmlns:xlink="http://www.w3.org/1999/xlink" x="0px" y="0px"
	 width="100%" viewBox="0 0 256 256" enable-background="new 0 0 256 256" xml:space="preserve">
<path fill="#FFFFFF" opacity="1.000000" stroke="none" 
	d="
M120.000000,257.000000 
	C80.000000,257.000000 40.500004,257.000000 1.000005,257.000000 
	C1.000004,171.666672 1.000004,86.333351 1.000002,1.000017 
	C86.333321,1.000011 171.666641,1.000011 257.000000,1.000006 
	C257.000000,86.333313 257.000000,171.666626 257.000000,256.999969 
	C211.500000,257.000000 166.000000,257.000000 120.000000,257.000000 
M119.823830,114.321152 
	C122.875847,111.367371 125.927872,108.413597 129.390854,105.062088 
	C130.902206,106.804886 131.910797,108.146523 133.095810,109.308189 
	C159.985580,135.668381 186.886978,162.016754 213.806152,188.346939 
	C219.728897,194.140076 224.702225,194.107620 230.607803,188.291672 
	C234.881653,184.082657 239.153915,179.869217 243.322906,175.557220 
	C248.528336,170.173218 248.603241,165.080353 243.349548,159.851151 
	C207.802216,124.469513 172.222824,89.120018 136.600662,53.813728 
	C131.562256,48.819984 126.380249,48.886318 121.287903,53.935173 
	C85.671577,89.247299 50.087406,124.591934 14.538037,159.971466 
	C9.461575,165.023697 9.498043,170.168671 14.447715,175.296707 
	C18.497311,179.492249 22.672888,183.566422 26.803028,187.683945 
	C33.391544,194.252335 38.097187,194.326508 44.667652,187.898346 
	C69.559250,163.545959 94.436317,139.178726 119.823830,114.321152 
z"/>
<path fill="#020202" opacity="1.000000" stroke="none" 
	d="
M119.571320,114.569092 
	C94.436317,139.178726 69.559250,163.545959 44.667652,187.898346 
	C38.097187,194.326508 33.391544,194.252335 26.803028,187.683945 
	C22.672888,183.566422 18.497311,179.492249 14.447715,175.296707 
	C9.498043,170.168671 9.461575,165.023697 14.538037,159.971466 
	C50.087406,124.591934 85.671577,89.247299 121.287903,53.935173 
	C126.380249,48.886318 131.562256,48.819984 136.600662,53.813728 
	C172.222824,89.120018 207.802216,124.469513 243.349548,159.851151 
	C248.603241,165.080353 248.528336,170.173218 243.322906,175.557220 
	C239.153915,179.869217 234.881653,184.082657 230.607803,188.291672 
	C224.702225,194.107620 219.728897,194.140076 213.806152,188.346939 
	C186.886978,162.016754 159.985580,135.668381 133.095810,109.308189 
	C131.910797,108.146523 130.902206,106.804886 129.390854,105.062088 
	C125.927872,108.413597 122.875847,111.367371 119.571320,114.569092 
z"/>
</svg>