<svg width="256" height="256" viewBox="0 0 256 256" fill="none" xmlns="http://www.w3.org/2000/svg">
<g clip-path="url(#clip0_205_1703)">
<path d="M120 257C80 257 40.5 257 1 257C1 171.667 1 86.3333 1 1.00001C86.3333 1.00001 171.667 1 257 1C257 86.3333 257 171.667 257 257C211.5 257 166 257 120 257ZM119.824 114.321C122.876 111.367 125.928 108.414 129.391 105.062C130.902 106.805 131.911 108.147 133.096 109.308C159.986 135.668 186.887 162.017 213.806 188.347C219.729 194.14 224.702 194.108 230.608 188.292C234.882 184.083 239.154 179.869 243.323 175.557C248.528 170.173 248.603 165.08 243.35 159.851C207.802 124.47 172.223 89.12 136.601 53.8137C131.562 48.82 126.38 48.8863 121.288 53.9352C85.6716 89.2473 50.0874 124.592 14.538 159.971C9.46157 165.024 9.49804 170.169 14.4477 175.297C18.4973 179.492 22.6729 183.566 26.803 187.684C33.3915 194.252 38.0972 194.327 44.6676 187.898C69.5592 163.546 94.4363 139.179 119.824 114.321Z" fill="#D3D3D3"/>
<path d="M119.571 114.569C94.4363 139.178 69.5592 163.546 44.6676 187.898C38.0972 194.326 33.3915 194.252 26.803 187.684C22.6729 183.566 18.4973 179.492 14.4477 175.296C9.49803 170.168 9.46156 165.023 14.538 159.971C50.0874 124.592 85.6716 89.2471 121.288 53.9349C126.38 48.8861 131.562 48.8197 136.601 53.8135C172.223 89.1198 207.802 124.469 243.35 159.851C248.603 165.08 248.528 170.173 243.323 175.557C239.154 179.869 234.882 184.082 230.608 188.291C224.702 194.107 219.729 194.14 213.806 188.347C186.887 162.017 159.986 135.668 133.096 109.308C131.911 108.146 130.902 106.805 129.391 105.062C125.928 108.413 122.876 111.367 119.571 114.569Z" fill="white"/>
</g>
<defs>
<clipPath id="clip0_205_1703">
<rect width="256" height="256" fill="white"/>
</clipPath>
</defs>
</svg>
