<?xml version="1.0" encoding="utf-8"?>
<!-- Generator: Adobe Illustrator 27.3.1, SVG Export Plug-In . SVG Version: 6.00 Build 0)  -->
<svg version="1.1" id="Layer_1" xmlns="http://www.w3.org/2000/svg" xmlns:xlink="http://www.w3.org/1999/xlink" x="0px" y="0px"
	 viewBox="0 0 792 512" style="enable-background:new 0 0 792 512;" xml:space="preserve">
<style type="text/css">
	.st0{fill:#010101;}
	.st1{fill:#9B99C9;}
	.st2{fill:#FEFEFE;}
	.st3{fill:#807DBB;}
	.st4{fill:#B0B0D1;}
	.st5{fill:#EBBF4B;}
	.st6{fill:#EC9445;}
	.st7{fill:#0A0803;}
	.st8{fill:#010100;}
	.st9{fill:#090703;}
	.st10{fill:#020201;}
	.st11{fill:#030201;}
	.st12{fill:#040301;}
</style>
<path class="st0" d="M652.7,136.9c-2.6-11.7-9.5-21-19.1-26.2c-0.3-0.2-0.6-0.3-0.9-0.5c-0.1,0-0.2-0.1-0.3-0.2
	c-0.1,0-0.1-0.1-0.2-0.1c-0.3-0.1-0.5-0.2-0.8-0.4c-0.3-0.1-0.7-0.3-1-0.4c-0.4-0.2-0.8-0.3-1.2-0.5c-0.4-0.1-0.8-0.3-1.2-0.4
	c-0.4-0.1-0.8-0.3-1.2-0.4c-0.5-0.2-1.1-0.3-1.6-0.5c-1.1-0.3-2.2-0.5-3.2-0.7c-2.2-0.4-4.5-0.6-6.8-0.6c-32.3-0.1-64.7-0.1-97,0.1
	c-3.6,0-6.2-1.1-8.9-3.3c-32.1-26.8-64.2-53.6-96.3-80.3c-10.4-8.7-21.3-8.7-31.6-0.1c-32.4,27-64.7,54-97.2,80.8
	c-2,1.6-5,2.7-7.5,2.7c-32.7,0.2-65.3,0-98,0.2c-16.7,0.1-30.5,10.3-35.8,26.1c-0.1,0.3-0.2,0.7-0.4,1c-0.4,1-1,2-1.4,3.3V468
	c0.4,1,0.9,1.9,1.3,2.8c0.1,0.1,0.1,0.3,0.2,0.4c0.2,0.4,0.3,0.7,0.4,1.1c5.1,15,18.9,25.2,34.6,25.6c1.5,0,3,0,4.5,0h430.2
	c1.4,0,2.8,0,4.1-0.1c0.5,0,1.1-0.1,1.6-0.1c1.2-0.1,2.4-0.3,3.6-0.5c0.4-0.1,0.8-0.1,1.2-0.2c0.1,0,0.1,0,0.2-0.1
	c0.4-0.1,0.8-0.1,1.1-0.2c0.4-0.1,0.8-0.2,1.2-0.3c0,0,0.1,0,0.2,0c0.7-0.2,1.3-0.3,2-0.6c0.1,0,0.2,0,0.3-0.1
	c0.2,0,0.3-0.1,0.5-0.2c0.2-0.1,0.5-0.2,0.7-0.2c0.4-0.1,0.7-0.3,1.1-0.4c0.7-0.3,1.3-0.5,2-0.9c9.8-4.6,16.5-13.2,20.7-26.5
	C653,357,653,247,652.7,136.9z M390.8,34.3C390.8,34.3,390.9,34.3,390.8,34.3C390.9,34.3,390.9,34.3,390.8,34.3
	c4-3.2,8.1-3.8,10.6-2.1c0.3,0.2,0.5,0.4,0.7,0.6c0,0,0,0,0,0c0.1,0.1,0.2,0.2,0.2,0.3c0,0,0,0,0,0c0.1,0.1,0.2,0.3,0.3,0.4
	c0.1,0.1,0.2,0.3,0.3,0.4c0.3,0.6,0.6,1.3,0.7,2.1c0.5,2.6-0.8,6.2-2.6,8.2c-2.4,2.7-6.1,2.3-9-0.2c-0.2-0.2-0.4-0.4-0.6-0.5
	c-0.1-0.1-0.2-0.2-0.3-0.4c-0.1-0.1-0.2-0.2-0.3-0.3c-0.1-0.1-0.2-0.3-0.3-0.4c-0.1-0.2-0.2-0.3-0.3-0.5c0,0,0,0,0,0
	c-0.1-0.2-0.2-0.4-0.3-0.6c-0.1-0.1-0.1-0.2-0.1-0.3C389.2,38.9,389.5,36.7,390.8,34.3z M375.7,46.5c4.4,8.9,11.1,14.4,21.1,14.4
	c10,0.1,16.9-5.2,21.4-14.5c23.7,19.7,47.1,39.2,71.6,59.6H347c-1.8,0-3.5,0-5.2,0c-5.2,0-10.3,0-15.4,0c-6.8,0-13.6,0-20.4,0
	c-0.1,0-0.3-0.1-1.1-0.5C328.6,85.8,352,66.2,375.7,46.5z M638.2,454.9c0.1,18-10.1,29.8-28.3,28.1c-0.4,0-0.9,0-1.3,0
	c-0.5,0-1.1,0-1.7,0c-1.6-0.1-2.8,0-3.8,0c-0.4,0-0.7,0-1.1,0c-140.5,0-281,0-421.4,0c-12.7,0-21.7-6.7-24.1-18.1
	c-0.5-2.1-0.5-4.3-0.5-6.5c0-104.3,0-208.6,0-312.9c0-14.9,9.2-24.5,23.6-24.5c27.8,0,55.6,0,83.4,0c114,0,228,0,342,0
	c6.5-0.7,12-0.3,16.5,1.1c0.4,0.1,0.7,0.2,1.1,0.3c0.3,0.1,0.5,0.2,0.8,0.3c6.4,2.5,10.5,7.2,12.8,13.7c0.3,0.9,0.6,1.9,0.8,2.9
	c0.1,0.5,0.2,1,0.3,1.5c0,0.1,0,0.2,0.1,0.4c0.1,0.4,0.2,0.8,0.2,1.3c0.1,0.5,0.2,1,0.2,1.5v0c0.1,0.5,0.1,1,0.2,1.6c0,0,0,0,0,0
	c0,0.4,0.1,0.8,0.1,1.2c0,0.2,0,0.4,0,0.7c0,0.4,0,0.8,0,1.2c0,0.4,0,0.8,0,1.2c0,0.4,0,0.8,0,1.2
	C637.7,252.4,637.7,353.7,638.2,454.9z"/>
<path class="st1" d="M606,482.8c-1.3,0.1-2.7,0.2-4,0.2c-140.5,0-280.9,0-421.4,0c-12.7,0-21.7-6.7-24.1-18.1
	c-0.4-2.1-0.5-4.3-0.5-6.5c0-104.3,0-208.6,0-312.9c0-14.9,9.2-24.5,23.6-24.5c141.8,0,283.6,0,426,0.4c3.2,5.1,5.7,9.8,7.8,14.5
	c-2.5,0.1-4.5,0.1-6.5,0.1c-141.7,0-283.5,0-425.2,0c-8.3,0-10.9,2.2-10.9,9.4c0,46.6,0,93.3,0,139.9c0,5.1,2,8.3,7.2,9.7
	c0,5.1,0,9.8-0.4,14.6c-5.7,1.3-6.7,5.1-6.7,9.9c0.1,45.6,0,91.3,0,136.9c0,9.7,1.9,11.6,11.7,11.6c141.8,0,283.5,0,425.3,0
	c2,0,4,0.1,6,0.5C611.3,473.5,608.7,478.2,606,482.8z"/>
<path class="st2" d="M341.8,106c-5.2,0-10.3,0-15.4,0C331.4,106,336.5,106,341.8,106z"/>
<path class="st3" d="M614,135.9c-2.5-4.7-5.1-9.4-7.8-14.4c22.4-2.9,32.2,8.6,32.1,29.7c-0.6,101.3-0.5,202.5,0,303.8
	c0.1,18-10.1,29.8-28.3,28.1c-1-0.1-2,0-3.5-0.1c2.2-4.7,4.9-9.4,7.9-14.5c6.7-1.4,8.6-3.5,8.6-10c0-104.2,0-208.5,0-312.7
	C623,138.8,620.9,136.7,614,135.9z"/>
<path class="st4" d="M391,34c5.5-4.4,11.8-3.4,12.8,2.1c0.5,2.6-0.8,6.2-2.6,8.2c-2.4,2.7-6.1,2.3-9-0.2C389.1,41.4,388.8,38,391,34
	z"/>
<path class="st5" d="M583.4,286.3c-11,9.3-23.2,9.7-32.5,6c-0.5-0.2-0.9-0.4-1.3-0.6c-0.7-0.3-1.3-0.6-1.9-0.9c-1-0.6-2-1.2-2.9-1.8
	c-0.3-0.2-0.6-0.4-0.9-0.7c-0.3-0.2-0.6-0.5-0.9-0.7c-0.3-0.2-0.5-0.4-0.8-0.7c-0.3-0.3-0.6-0.6-0.9-0.9c-6.1-6.1-9.2-13.4-9.2-21.9
	c0-19.5,0-39,0-58.4c0-13.1,5.8-22.9,17.6-28.3c11.9-5.4,23-3.3,33.2,5.5c0.5-2.8,0.8-5.7,1-8.6c0.1-1,0.1-1.9,0.1-2.9
	c0.1-6.4,0-12.9,0-19.8c-1-0.4-2-0.5-3-0.6c-0.3,0-0.7,0-1,0H186v5.4c0,42.6,0,85.3,0,127.9c0,1.3,0,2.4-0.2,3.3
	c0,0.3-0.1,0.6-0.1,0.9c-0.1,0.4-0.2,0.8-0.3,1.2c-0.9,2.6-2.8,3.8-6.9,5.2c-0.4,5.2-0.4,9.9-0.5,14.6c3.8,0.7,5.9,1.7,6.9,3.8
	c0.1,0.1,0.1,0.2,0.2,0.3c0.2,0.5,0.4,1,0.5,1.6c0.1,0.3,0.1,0.6,0.2,0.9c0,0.3,0.1,0.6,0.1,1c0,0.3,0.1,0.7,0.1,1.1
	c0,0.4,0,0.8,0,1.2c0,42.5,0,84.9,0,127.4v6.2c132.4,0,264.8,0,397.5-0.1c0.5-54,0.5-107.9,0.5-161.8c0-0.4,0-0.7,0-1.1
	C583.9,288.8,583.7,287.7,583.4,286.3z M427.2,180.6c0.8-3.6,3.2-5.8,7-5.9c4.1-0.1,6.6,2,7.6,5.9c0.3,1.3,0.2,2.6,0.2,4
	c0,33.3,0,66.6,0,99.9c0,0.8,0,1.7,0,2.5c-0.3,4.6-3.4,7.6-7.7,7.5c-4.1-0.1-7-3-7.2-7.4c-0.2-4.1,0-8.3-0.1-13
	c0-30.1,0-59.3,0-88.4C427,183.9,426.8,182.2,427.2,180.6z M230.9,294.4c-16.1-0.7-28.7-13.4-28.8-29.3c-0.2-19.7-0.1-39.3,0-58.9
	c0-17.5,11.6-30.4,28.2-31.5c0.7-0.1,1.5-0.1,2.2-0.1c0.5,0,1,0,1.4,0c0.5,0,1,0.1,1.5,0.1c1.8,0.2,3.6,0.5,5.3,1
	c0.4,0.1,0.8,0.3,1.3,0.4c0,0,0,0,0,0c0.4,0.1,0.8,0.3,1.2,0.5c0.4,0.2,0.8,0.3,1.2,0.5c0.4,0.2,0.8,0.4,1.2,0.6
	c8.7,4.4,14.9,13.4,16.4,24.8c0,0.1,0,0.1,0,0.2c0,0,0,0,0,0c-0.3,3.8-1.4,6.4-3.1,7.9c-0.2,0.1-0.3,0.2-0.4,0.3c0,0,0,0,0,0
	c-0.1,0.1-0.2,0.2-0.4,0.2c0,0,0,0,0,0c-0.1,0-0.1,0.1-0.2,0.1c-0.1,0-0.1,0.1-0.2,0.1c-0.1,0-0.1,0-0.2,0.1
	c-0.4,0.2-0.9,0.3-1.4,0.4c-0.2,0-0.4,0.1-0.6,0.1c-0.2,0-0.5,0-0.8,0h-0.2c-4.2-0.1-6.8-3-7.4-8.3c-1-8.7-7.5-14.4-15.8-14
	c-8,0.4-14.1,6.8-14.1,15.2c-0.1,19.8-0.1,39.6,0,59.4c0.1,8.4,6.2,14.7,14.2,15.1c8.1,0.4,14.6-5.3,15.7-13.6
	c0.8-6.2,3.9-9.3,8.6-8.6c4.6,0.7,7,4.7,6.3,10.7C260.1,283.3,246.4,295.1,230.9,294.4z M313.5,406.9c-2.8,11.2-10.2,18.5-21.4,21.6
	c-18.2,5-36.9-8.8-37.4-27.7c-0.2-5,2.5-8.5,6.9-8.8c4.1-0.3,7.4,2.4,7.9,7.2c0.8,7.4,4.1,12.6,11.4,14.7c6.6,1.8,13.3-1.2,16.7-7.1
	c3.4-6.1,2.3-13.7-3.2-18.6c-9.8-8.8-19.8-17.3-29.5-26.2c-16.2-14.8-12.6-40.4,6.9-49.6c18.9-9,41,3.8,42.6,24.7
	c0.5,5.8-2,9.5-6.6,9.9c-4.4,0.4-7.4-2.5-8.2-8c-1.6-10-8.5-15.9-17.5-13.9c-0.2,0-0.4,0.1-0.6,0.1c-0.3,0.1-0.6,0.2-0.9,0.3
	c-0.2,0.1-0.5,0.2-0.7,0.3c-0.2,0.1-0.5,0.2-0.7,0.4c-0.4,0.2-0.8,0.4-1.1,0.7c-0.2,0.2-0.4,0.3-0.7,0.4c-1.5,1-2.9,2.1-4.4,3
	c0,0.1-0.1,0.2-0.1,0.2c-3.1,5.5-3.7,10.1-2,14.3c0.1,0.2,0.2,0.4,0.3,0.6c0.2,0.5,0.5,1,0.8,1.4c0.2,0.4,0.5,0.8,0.8,1.2
	c0.6,0.8,1.3,1.7,2.2,2.5c0.4,0.4,0.8,0.8,1.2,1.2c9.6,8.5,19.4,16.8,28.8,25.5C313.3,385.4,316.3,395.5,313.5,406.9z M306.7,294.5
	c-16.3-0.2-29.5-13.1-29.7-29.5c-0.2-20.3-0.2-40.6,0-60.9c0.2-16.4,13.4-29.3,29.7-29.5c16.4-0.2,29.9,12.9,30.2,29.5
	c0.1,5.2,0.1,10.4,0.1,15.6c0,3.8,0,7.6,0,11.4c0,4,0,7.9,0,12c0,6.1,0.1,11.9,0,17.6c0,1.4,0,2.9-0.1,4.3
	C336.6,281.5,323.1,294.6,306.7,294.5z M389.5,398.8c-0.2,16.3-11.1,28.5-26.2,30.3c-15.1,1.8-28.7-7.2-32.7-21.8
	c-0.8-2.9-1.1-5.9-1.2-8.9c-0.1-19.3-0.3-38.7,0-58c0.1-4.6,0.9-8.9,2.4-12.6c0.4-0.9,0.8-1.8,1.2-2.7c1-1.8,2.1-3.5,3.3-5
	c0.3-0.4,0.7-0.8,1.1-1.2c8.2-9,21.7-12.2,35.2-6.3c0.1,0,0.1,0.1,0.2,0.1c7.4,4.1,12.2,9.5,14.6,16.1c0.1,0.3,0.2,0.6,0.3,1
	c0.1,0.3,0.2,0.6,0.3,1c0.3,1,0.5,2,0.7,3c0.1,0.3,0.1,0.7,0.2,1c0.1,0.7,0.2,1.4,0.3,2.1c0.1,1.1,0.2,2.2,0.2,3.3
	C389.7,359.8,389.8,379.3,389.5,398.8z M397,284.9c0-21.3,0-42.7-0.8-64.3c-2.1,4.9-4.2,9.7-6.3,14.6c-1.5,3.5-3.3,6.7-7.7,6.8
	c-4.6,0.1-6.6-3.1-8.1-6.9c-2-4.8-4.1-9.6-7-14.3v4.7c0,19.8,0,39.7,0,59.5c0,6-2.6,9.3-7.3,9.4c-4.9,0.1-7.7-3.2-7.7-9.5
	c0-33.7,0-67.3,0-101c0-4.4,1.1-8.1,5.9-9.1c5-1.1,7.6,1.9,9.4,6.2c4.1,9.8,8.4,19.6,12.6,29.3c0.6,1.3,1.2,2.6,2.3,4.8
	c4.7-10.9,9-20.9,13.3-31c0.6-1.4,1.2-2.8,1.8-4.1c1.7-4,4.6-6.2,9-5.2c4.2,1,5.8,4,5.8,8.2c0,10,0,20,0,30v38c0,11.7,0,22.8,0,34
	c0,6-2.6,9.3-7.3,9.4C399.8,294.5,397,291.1,397,284.9z M464.5,398.7c0,3.1-0.5,6-1.2,8.7c-0.3,1.3-0.8,2.6-1.3,3.8c0,0,0,0,0,0
	c-0.4,0.9-0.8,1.8-1.2,2.7c0,0,0,0,0,0c-0.4,0.9-0.9,1.7-1.5,2.5c-0.3,0.4-0.5,0.8-0.8,1.2c-0.3,0.4-0.5,0.7-0.8,1
	c-0.6,0.8-1.3,1.5-1.9,2.2c-8.8,8.9-22.8,11.5-36.4,4.4c0,0,0,0-0.1,0c-5.6-3.6-9.5-7.9-11.9-13c-0.2-0.3-0.3-0.7-0.5-1
	c-0.2-0.4-0.3-0.7-0.4-1.1c0,0,0,0,0,0c-0.4-1.1-0.8-2.3-1.1-3.5c-0.2-1-0.4-2-0.6-3.1c-0.1-0.7-0.2-1.3-0.2-2
	c-0.1-1-0.1-2.1-0.1-3.1c-0.1-19.3-0.2-38.6,0-58c0.2-16.3,10.9-28.7,25.9-30.6c15.4-1.9,29.1,7.1,33,22c0.7,2.7,1.1,5.6,1.1,8.4
	C464.6,359.7,464.8,379.2,464.5,398.7z M472.3,219.5c-0.1,2.6-0.3,3.9-0.3,5.3c0,20.1,0.1,40.3-0.2,60.5c-0.1,2.7-1.6,6.4-3.7,8
	c-4.7,3.6-10.9-0.2-11.1-6.5c-0.2-7.5-0.1-15-0.1-22.5c0-26.8,0-53.6,0-80.5c0-6.2,3.5-10.2,8.5-8.8c2.6,0.8,5.4,3.4,6.5,5.9
	c9.4,21.3,18.5,42.7,27.7,64.1c0.5,1.1,1,2.3,2.3,3.2V198c0-4.4-0.1-8.4,0-12.4c0-1,0-2.1,0.1-3.1c0.1-4.8,3-7.8,7.2-7.9
	c4.5-0.1,7.7,3,7.7,8c0.1,34.6,0,69.3,0,103.9c0,3.9-1.8,6.8-5.8,7.6c-4.7,1-7.4-1.5-9.2-5.7c-9.2-21.6-18.5-43.1-27.7-64.6
	C473.8,222.8,473.3,221.8,472.3,219.5z M539.5,422.1c-0.3,3.7-2.1,6.3-5.8,7.1c-4,0.8-6.8-0.8-8.6-4.4c-1.1-2.2-2-4.6-3-6.9
	c-8.2-19.1-16.4-38.2-24.6-57.3c-0.6-1.4-1.6-2.7-2.4-4c-0.1,0.1-0.2,0.2-0.3,0.3c0,0.1-0.1,0.2-0.1,0.3c0,0.1-0.1,0.1-0.1,0.2v0.2
	c0,13,0,25.6-0.1,38.1c0,7.5,0,15,0,22.5c0,2,0.4,4.5-0.6,5.8c-1.8,2.2-4.6,5-7,5s-5.1-2.8-7-5c-1-1.1-0.6-3.5-0.6-5.3
	c0-32.8,0-65.7,0-98.5c0-0.8,0-1.7,0-2.5c0.2-4.1,1.8-7.2,6.1-8c4.2-0.8,7,1.2,8.7,5c3.3,7.6,6.6,15.3,9.8,22.9
	c6.4,14.9,12.8,29.9,20.1,44.8c0.1-1.7,0.2-3.3,0.2-5c0-18.8,0-37.7,0-56.5c0-1.7,0-3.3,0.2-5c0.6-4,3.2-6.3,7.2-6.4
	c4.2-0.1,6.8,2.3,7.5,6.5c0.2,1.5,0.2,3,0.2,4.5c0,32.7,0,65.3,0,98C539.6,419.7,539.6,420.9,539.5,422.1z"/>
<path d="M177.7,309.6c6.7,1.1,8.3,3.1,8.3,9.8c0,42.5,0,84.9,0,127.4c0,1.8,0,3.7,0,6.2c132.4,0,264.8,0,398,0c8.5,0,16.1,0,23.7,0
	c0-101,0-201.3,0-301.8c-8.1,0-15.9,0-23.7,0c-1.3-0.1-2.7-0.1-4-0.1c-129.8,0-259.6,0-389.3,0c-1.3,0-2.6,0-4.7,0
	c0,1.9,0,3.7,0,5.4c0,42.6,0,85.3,0,127.9c0,6.7-1.3,8.5-7.5,10.1c-5.5-0.9-7.5-4.1-7.5-9.2c0.1-46.6,0-93.3,0-139.9
	c0-7.2,2.6-9.4,10.9-9.4c141.7,0,283.5,0,425.2,0c2,0,4,0,6.5-0.1c7.4,0.7,9.5,2.9,9.5,9.8c0,104.2,0,208.5,0,312.7
	c0,6.5-1.9,8.6-8.6,9.6c-2.4,0-4.4-0.1-6.4-0.1c-141.8,0-283.5,0-425.3,0c-9.8,0-11.7-1.8-11.7-11.6c0-45.6,0-91.3,0-136.9
	C171,314.7,172,310.9,177.7,309.6z"/>
<path class="st6" d="M584,151.6c7.8-0.5,15.6-0.5,23.7-0.5c0,100.5,0,200.9,0,301.8c-7.6,0-15.2,0-23.2-0.1
	c-0.5-54-0.5-107.9-0.5-161.8c0-1.5-0.2-3-0.5-5.1c5.9-6.8,8.5-14.2,8.5-22.8c-0.1-9,0-18,0-27c0-6.1-1.8-8.1-8-9.9
	c0-5.1,0-9.7,0.4-14.3c6.2-1.7,7.9-3.9,7.5-9.5c-0.4-7.6-3.8-13.9-8.8-19.5c0.3-3.9,0.7-7.8,0.8-11.6
	C584.1,164.9,584,158.5,584,151.6z"/>
<path class="st7" d="M494.6,357.8c0,20.4,0,40.4-0.1,60.4c0,2,0.4,4.6-0.6,5.8c-1.8,2.2-4.6,5-7,5c-2.4,0-5.1-2.8-7-5
	c-1-1.1-0.6-3.5-0.6-5.3c0-32.8,0-65.7,0-98.5c0-0.8,0-1.7,0-2.5c0.2-4.1,1.8-7.2,6.1-8c4.2-0.8,7,1.2,8.7,5
	c3.3,7.6,6.6,15.3,9.8,22.9c6.4,14.9,12.8,29.9,20.1,44.7c0.1-1.7,0.2-3.3,0.2-5c0-18.8,0-37.7,0-56.5c0-1.7,0-3.4,0.2-5
	c0.6-4,3.2-6.3,7.1-6.4c4.2-0.1,6.9,2.3,7.5,6.5c0.2,1.5,0.2,3,0.2,4.5c0,32.7,0,65.3,0,98c0,1.2,0,2.3-0.1,3.5
	c-0.3,3.7-2.1,6.3-5.8,7.1c-4,0.8-6.8-0.8-8.6-4.4c-1.1-2.2-2-4.6-3-6.9c-8.2-19.1-16.3-38.2-24.6-57.3c-0.6-1.4-1.6-2.7-2.4-4
	c-0.1,0.1-0.2,0.2-0.3,0.3C494.7,357.1,494.7,357.3,494.6,357.8z"/>
<path class="st8" d="M502,198c0-5.5-0.1-10.5,0-15.5c0.1-4.8,3-7.8,7.2-7.9c4.5-0.1,7.7,3,7.7,8c0.1,34.6,0,69.3,0,103.9
	c0,3.9-1.8,6.8-5.8,7.6c-4.7,1-7.4-1.5-9.2-5.7c-9.2-21.6-18.5-43.1-27.7-64.6c-0.4-1-0.9-2.1-2-4.4c-0.1,2.6-0.3,3.9-0.3,5.3
	c0,20.2,0.1,40.3-0.2,60.5c0,2.7-1.6,6.4-3.7,8c-4.6,3.6-10.9-0.2-11.1-6.5c-0.2-7.5-0.1-15-0.1-22.5c0-26.8,0-53.6,0-80.5
	c0-6.2,3.5-10.3,8.5-8.8c2.6,0.8,5.4,3.4,6.5,5.9c9.4,21.3,18.5,42.7,27.7,64.1c0.5,1.1,1,2.3,2.3,3.3C502,231.6,502,215.1,502,198z
	"/>
<path class="st8" d="M412,251c0,11.7,0,22.8,0,34c0,6-2.6,9.3-7.3,9.4c-4.9,0.1-7.7-3.2-7.7-9.5c0-21.3,0-42.6-0.8-64.3
	c-2.1,4.9-4.3,9.7-6.3,14.6c-1.5,3.5-3.3,6.7-7.7,6.8c-4.6,0.1-6.6-3.1-8.1-6.9c-2-4.8-4.1-9.6-7.1-14.3c0,1.6,0,3.1,0,4.7
	c0,19.8,0,39.7,0,59.5c0,6-2.6,9.3-7.3,9.4c-4.9,0.1-7.7-3.2-7.7-9.5c0-33.7,0-67.3,0-101c0-4.4,1.1-8.1,5.9-9.1
	c5-1.1,7.6,1.9,9.4,6.2c4.1,9.8,8.4,19.6,12.6,29.3c0.6,1.3,1.2,2.6,2.3,4.8c4.7-10.9,9-20.9,13.3-30.9c0.6-1.4,1.2-2.8,1.8-4.1
	c1.7-4,4.6-6.2,9-5.2c4.2,0.9,5.8,4,5.8,8.1c0,10,0,20,0,30C412,225.5,412,238,412,251z"/>
<path class="st9" d="M464.5,340.2c0-2.8-0.4-5.7-1.1-8.4c-3.9-14.8-17.6-23.8-33-22c-15,1.8-25.7,14.3-25.9,30.6
	c-0.2,19.3-0.1,38.7,0,58c0,1.1,0,2.1,0.1,3.1c0,0.7,0.1,1.4,0.2,2c0.2,1.1,0.3,2.1,0.6,3.1c0.3,1.2,0.6,2.4,1.1,3.5c0,0,0,0,0,0
	c0.1,0.4,0.3,0.7,0.4,1.1c0.1,0.3,0.3,0.7,0.5,1c2.4,5,6.2,9.3,11.6,12.8c0.1,0,0.2,0.1,0.3,0.1c13.7,7,27.8,4.4,36.5-4.4
	c0.7-0.7,1.3-1.4,1.9-2.2c0.3-0.3,0.5-0.7,0.8-1c0.3-0.4,0.5-0.8,0.8-1.2c0.5-0.8,1-1.6,1.5-2.5c0,0,0,0,0,0
	c0.5-0.9,0.9-1.8,1.2-2.7c0,0,0,0,0,0c0.5-1.2,0.9-2.5,1.3-3.8c0.7-2.7,1.2-5.6,1.2-8.7C464.8,379.2,464.6,359.7,464.5,340.2z
	 M449.3,400c-0.5,8.5-6.8,14.4-14.9,14.4c-8.1,0-14.6-6-14.8-14.4c-0.3-10.6-0.1-21.3-0.1-32c0-9.1-0.1-18.3,0-27.5
	c0.1-9.5,6.3-15.9,14.9-15.9c8.7,0,14.8,6.4,14.9,15.9c0.1,16.3,0,32.6,0,49.4C449.4,393.7,449.5,396.8,449.3,400z"/>
<path class="st9" d="M389.5,340.4c0-1.1-0.1-2.2-0.2-3.3c-0.1-0.7-0.2-1.4-0.3-2.1c0-0.3-0.1-0.7-0.2-1c-0.2-1-0.4-2.1-0.7-3
	c-0.1-0.3-0.2-0.7-0.3-1c-0.1-0.3-0.2-0.7-0.3-1c-2.4-6.7-7.2-12-14.5-16.1c0,0-0.1,0-0.2-0.1c-13.8-5.9-27.2-2.7-35.4,6.2
	c-0.4,0.4-0.7,0.8-1.1,1.2c-1.2,1.5-2.3,3.2-3.3,5c-0.5,0.9-0.9,1.8-1.2,2.7c-1.5,3.8-2.4,8-2.4,12.6c-0.3,19.3-0.1,38.7,0,58
	c0,3,0.4,6,1.2,8.9c4,14.6,17.6,23.6,32.7,21.8c15.1-1.8,26-14.1,26.2-30.3C389.8,379.3,389.7,359.8,389.5,340.4z M374.4,397.3
	c-0.1,10.3-5.9,17-14.8,17c-9,0-15-6.6-15-16.8c-0.1-18.1,0-36.3,0-54.9c0.2-8.3,2.9-13.7,7.8-16.3c0.4-0.2,0.8-0.4,1.2-0.6
	c0.3-0.1,0.6-0.2,0.8-0.3c0.2,0,0.3-0.1,0.4-0.1c0.4-0.1,0.7-0.2,1.1-0.3c0.2,0,0.3-0.1,0.5-0.1c0.2,0,0.3-0.1,0.5-0.1
	c9.7-1.6,17.4,5.1,17.5,15.6c0.2,14.3,0,28.6,0,42.9C374.4,388,374.5,392.7,374.4,397.3z"/>
<path class="st10" d="M337,231c0-3.8,0-7.6,0-11.4c0-5.2,0-10.4-0.1-15.6c-0.3-16.6-13.8-29.7-30.2-29.5
	c-16.3,0.2-29.6,13.1-29.7,29.5c-0.2,20.3-0.2,40.6,0,60.9c0.2,16.4,13.4,29.3,29.7,29.5c16.4,0.2,29.9-12.9,30.2-29.5
	c0-1.4,0-2.9,0.1-4.3c0-5.7,0-11.5,0-17.6C337,239,337,235,337,231z M322,263.2c-0.6,7.8-4.2,13.1-9.5,15.2
	c-0.2,0.1-0.4,0.1-0.6,0.2s-0.4,0.1-0.6,0.2c-1.5,0.5-3.2,0.7-4.9,0.6c-8.5-0.3-14.4-6.9-14.4-16.4c0-19,0-37.9,0-56.9
	c0-9.7,6.1-16.4,14.9-16.5c9-0.1,15.1,6.7,15.1,16.7C322,225.1,322,244,322,263.2z"/>
<path class="st11" d="M584,226.8c6.2,1.3,7.9,3.3,8,9.4c0,9,0,18,0,27c0.1,8.6-2.6,16-8.7,22.5c-15.3,13.7-33.2,9.3-42.1,0.3
	c-6.1-6.1-9.1-13.4-9.2-21.9c0-19.5,0-39,0-58.4c0-13.1,5.8-22.9,17.7-28.3c11.9-5.3,23-3.3,33.2,5.5c5.3,5.7,8.6,12.1,9.1,19.7
	c0.3,5.7-1.4,7.9-7.9,9.4c-5.3-1.2-6.8-4.4-7.2-8.9c-0.8-8.1-7.4-13.7-15.3-13.5c-7.6,0.2-14.3,6.1-14.4,13.8
	c-0.3,20.7-0.3,41.3,0,62c0.1,7.7,6.7,13.7,14.3,14c7.7,0.3,14.7-5.1,15.3-12.8c0.6-8.1,0.1-16.2,0.1-24.6c-2.6,0-4.7,0.1-6.9,0
	c-4.7-0.2-7.8-3.1-8-7.3c-0.1-4.3,3.1-7.5,8-7.7C574.7,226.9,579.4,226.9,584,226.8z"/>
<path class="st12" d="M272.5,330.7c-4.7,8.6-3.6,15,3.4,21.2c9.6,8.5,19.4,16.8,28.8,25.5c8.7,8,11.7,18.2,8.8,29.5
	c-2.8,11.2-10.2,18.5-21.4,21.6c-18.2,5-36.9-8.8-37.4-27.7c-0.2-5,2.5-8.4,6.9-8.8c4.1-0.3,7.4,2.4,7.9,7.2
	c0.8,7.4,4.1,12.6,11.4,14.7c6.6,1.8,13.3-1.2,16.7-7.1c3.4-6.1,2.3-13.7-3.2-18.6c-9.8-8.8-19.8-17.3-29.5-26.2
	c-16.2-14.8-12.6-40.4,6.9-49.6c18.9-9,41,3.7,42.6,24.7c0.5,5.8-2,9.5-6.6,9.9c-4.4,0.4-7.4-2.5-8.2-8.1
	c-1.6-10-8.6-15.9-17.5-13.9C278.6,325.8,275.8,328.5,272.5,330.7z"/>
<path class="st11" d="M262,202.9c-0.5,6.1-3.2,9.1-7.6,9c-4.2-0.1-6.8-3-7.4-8.4c-1-8.7-7.5-14.4-15.8-14c-8,0.4-14.1,6.8-14.1,15.2
	c-0.1,19.8-0.1,39.6,0,59.4c0,8.4,6.2,14.7,14.2,15.1c8.1,0.4,14.6-5.3,15.7-13.6c0.8-6.2,3.9-9.3,8.6-8.6c4.6,0.7,7,4.7,6.4,10.7
	c-1.8,15.6-15.5,27.3-31,26.6c-16.1-0.7-28.7-13.4-28.8-29.3c-0.2-19.6-0.1-39.3-0.1-58.9c0-17.5,11.6-30.4,28.2-31.5
	C246.6,173.6,259.7,185.1,262,202.9z"/>
<path class="st8" d="M427,274c0-29.8,0-59.1,0-88.4c0-1.7-0.2-3.4,0.2-5c0.8-3.6,3.2-5.8,7-5.9c4.1-0.1,6.6,2,7.6,5.9
	c0.3,1.3,0.2,2.6,0.2,4c0,33.3,0,66.6,0,99.9c0,0.8,0,1.7,0,2.5c-0.4,4.6-3.4,7.6-7.7,7.5c-4.1-0.1-7-3-7.2-7.4
	C426.9,282.8,427,278.7,427,274z"/>
<path class="st5" d="M584,226.4c-4.7,0.5-9.3,0.5-14,0.6c-4.9,0.2-8.1,3.4-8,7.7c0.1,4.1,3.3,7,8,7.3c2.1,0.1,4.3,0,6.9,0
	c0,8.4,0.5,16.5-0.1,24.6c-0.6,7.7-7.7,13.1-15.3,12.8c-7.6-0.3-14.2-6.2-14.3-14c-0.2-20.7-0.3-41.3,0-62
	c0.1-7.7,6.8-13.6,14.4-13.8c7.9-0.2,14.5,5.4,15.3,13.5c0.4,4.5,1.9,7.7,6.8,9C584,216.7,584,221.3,584,226.4z"/>
<path class="st5" d="M449.4,390c0,3.7,0.1,6.8-0.1,10c-0.5,8.4-6.7,14.4-14.9,14.4c-8.1,0-14.6-6-14.8-14.4
	c-0.3-10.6-0.1-21.3-0.1-32c0-9.2-0.1-18.3,0-27.5c0.1-9.5,6.3-15.9,14.9-15.9c8.7,0,14.8,6.4,14.9,15.9
	C449.5,356.9,449.4,373.2,449.4,390z"/>
<path class="st5" d="M344.6,342.1c0.3-10.1,4.6-16,12.3-17.3c9.7-1.6,17.4,5.1,17.5,15.6c0.2,14.3,0,28.6,0,42.9c0,4.7,0,9.3,0,14
	c-0.1,10.3-5.9,16.9-14.8,17c-9,0.1-15-6.6-15-16.8C344.5,379.2,344.6,360.9,344.6,342.1z"/>
<path class="st5" d="M322,263.7c-0.8,10-7,16-15.6,15.7c-8.5-0.3-14.4-6.9-14.4-16.4c0-19,0-37.9,0-56.9c0-9.7,6.1-16.4,14.9-16.5
	c9-0.1,15.1,6.7,15.1,16.7C322,225.3,322,244.2,322,263.7z"/>
</svg>
