<svg width="203" height="153" viewBox="0 0 203 153" fill="none" xmlns="http://www.w3.org/2000/svg">
<g clip-path="url(#clip0_27_24)">
<path d="M203.899 10.5475C202.86 5.88667 200.103 2.18193 196.266 0.110463C196.146 0.0307915 196.027 -0.00904417 195.907 -0.0887161C195.867 -0.0887161 195.827 -0.128553 195.787 -0.168389C195.747 -0.168389 195.747 -0.208223 195.707 -0.208223C195.587 -0.248059 195.507 -0.287896 195.387 -0.367568C195.267 -0.407404 195.107 -0.487076 194.988 -0.526912C194.828 -0.606583 194.668 -0.646419 194.508 -0.726091C194.348 -0.765927 194.188 -0.845601 194.028 -0.885437C193.869 -0.925273 193.709 -1.00494 193.549 -1.04478C193.349 -1.12445 193.109 -1.16428 192.909 -1.24396C192.47 -1.36346 192.03 -1.44314 191.631 -1.52281C190.751 -1.68216 189.832 -1.76183 188.913 -1.76183C176.005 -1.80166 163.057 -1.80166 150.149 -1.72199C148.71 -1.72199 147.671 -2.16018 146.592 -3.03658C133.764 -13.7126 120.936 -24.3887 108.108 -35.0249C103.952 -38.4906 99.5959 -38.4906 95.4797 -35.0647C82.5317 -24.309 69.6237 -13.5533 56.6357 -2.87723C55.8365 -2.23986 66.3467 -1.76183 65.3477 -1.76183C52.2798 -1.68216 27.5427 -1.80166 14.4748 -1.72199C7.80099 -1.68216 2.2861 2.38111 0.168059 8.67519C0.128096 8.7947 0.0881355 8.95404 0.00820953 9.07355C-0.151642 9.47191 -0.391418 9.87027 -0.55127 10.3881V142.444C-0.391418 142.843 -0.191608 143.201 -0.0317559 143.56C0.00820711 143.6 0.00821197 143.679 0.0481749 143.719C0.128101 143.878 0.168061 143.998 0.208024 144.157C2.24614 150.133 7.76103 154.196 14.0352 154.355C14.6347 154.355 15.2341 154.355 15.8335 154.355H187.754C188.314 154.355 188.873 154.355 189.393 154.315C189.593 154.315 189.832 154.276 190.032 154.276C190.512 154.236 190.991 154.156 191.471 154.076C191.631 154.037 191.79 154.037 191.95 153.997C191.99 153.997 191.99 153.997 192.03 153.957C192.19 153.917 192.35 153.917 192.47 153.877C192.63 153.837 192.79 153.798 192.949 153.758C192.949 153.758 192.989 153.758 193.029 153.758C193.309 153.678 193.549 153.638 193.829 153.519C193.869 153.519 193.909 153.519 193.948 153.479C194.028 153.479 194.068 153.439 194.148 153.399C194.228 153.359 194.348 153.32 194.428 153.32C194.588 153.28 194.708 153.2 194.868 153.16C195.147 153.041 195.387 152.961 195.667 152.802C199.583 150.969 202.261 147.543 203.939 142.245C204.019 98.2264 204.019 54.4069 203.899 10.5475ZM99.2362 -30.3242C99.2762 -30.3242 99.2762 -30.3242 99.2362 -30.3242C100.835 -31.599 102.473 -31.838 103.472 -31.1608C103.592 -31.0811 103.672 -31.0014 103.752 -30.9217C103.792 -30.8819 103.832 -30.8421 103.832 -30.8022C103.872 -30.7624 103.912 -30.6827 103.952 -30.6429C103.992 -30.6031 104.032 -30.5234 104.072 -30.4836C104.192 -30.2445 104.312 -29.9657 104.352 -29.647C104.551 -28.6113 104.032 -27.1772 103.312 -26.3804C102.353 -25.3049 100.875 -25.4642 99.7158 -26.4601C99.6359 -26.5398 99.5559 -26.6195 99.476 -26.6593C99.4361 -26.6991 99.3961 -26.739 99.3561 -26.8186C99.3162 -26.8585 99.2762 -26.8983 99.2362 -26.9382C99.1963 -26.978 99.1563 -27.0577 99.1164 -27.0975C99.0764 -27.1772 99.0364 -27.217 98.9965 -27.2967C98.9565 -27.3763 98.9165 -27.456 98.8766 -27.5357C98.8366 -27.5755 98.8366 -27.6154 98.8366 -27.6552C98.5968 -28.4918 98.7167 -29.3681 99.2362 -30.3242ZM93.2018 -25.4642C94.9602 -21.9188 97.6377 -19.7278 101.634 -19.7278C105.63 -19.688 108.388 -21.7993 110.186 -25.5041C119.657 -17.6564 140.358 -9.84853 150.149 -1.72199L81.7325 -1.76183C81.0131 -1.76183 80.3338 -1.76183 79.6544 -1.76183C77.5763 -1.76183 75.5382 -1.76183 73.5001 -1.76183C71.1663 -1.76183 68.8325 -1.76183 66.4986 -1.76183C66.115 -1.76183 65.7313 -1.76183 65.3477 -1.76183C64.3659 -6.16936 65.9234 -4.77614 65.6037 -4.93549C75.0749 -12.7832 83.7306 -17.6165 93.2018 -25.4642ZM198.105 137.226C198.145 144.396 194.068 149.097 186.795 148.42C186.635 148.42 186.435 148.42 186.276 148.42C186.076 148.42 185.836 148.42 185.596 148.42C184.957 148.38 184.477 148.42 184.078 148.42C183.918 148.42 183.798 148.42 183.638 148.42C127.49 148.42 71.3421 148.42 15.2341 148.42C10.1588 148.42 6.56214 145.751 5.60302 141.209C5.40321 140.373 5.40321 139.496 5.40321 138.62C5.40321 97.0712 5.40321 55.5223 5.40321 13.9734C5.40321 8.03782 9.07981 4.21357 14.8345 4.21357C25.9442 4.21357 37.0539 4.21357 48.1636 4.21357C93.7214 4.21357 139.279 4.21357 184.837 4.21357C187.435 3.93471 189.632 4.09406 191.431 4.65176C191.591 4.6916 191.711 4.73143 191.87 4.77127C191.99 4.81111 192.07 4.85094 192.19 4.89078C194.748 5.88668 196.386 7.75896 197.305 10.3483C197.425 10.7068 197.545 11.1052 197.625 11.5035C197.665 11.7027 197.705 11.9019 197.745 12.1011C197.745 12.1409 197.745 12.1808 197.785 12.2604C197.825 12.4198 197.865 12.5791 197.865 12.7783C197.905 12.9775 197.945 13.1767 197.945 13.3758C197.985 13.575 197.985 13.7742 198.025 14.0132C198.025 14.1726 198.065 14.3319 198.065 14.4912C198.065 14.5709 198.065 14.6506 198.065 14.7701C198.065 14.9294 198.065 15.0888 198.065 15.2481C198.065 15.4075 198.065 15.5668 198.065 15.7262C198.065 15.8855 198.065 16.0449 198.065 16.2042C197.905 56.558 197.905 96.9119 198.105 137.226Z" fill="#010101"/>
<path d="M185.237 148.34C184.717 148.38 184.158 148.42 183.638 148.42C127.49 148.42 71.3821 148.42 15.2341 148.42C10.1588 148.42 6.56212 145.751 5.60301 141.209C5.44316 140.373 5.4032 139.496 5.4032 138.62C5.4032 97.071 5.4032 55.5221 5.4032 13.9732C5.4032 8.03763 9.07979 4.21338 14.8345 4.21338C71.502 4.21338 128.169 4.21338 185.077 4.37272C186.356 6.40436 187.355 8.27664 188.194 10.1489C187.195 10.1888 186.395 10.1888 185.596 10.1888C128.969 10.1888 72.3012 10.1888 15.6737 10.1888C12.3568 10.1888 11.3177 11.0652 11.3177 13.9334C11.3177 32.4969 11.3177 51.1003 11.3177 69.6639C11.3177 71.6955 12.117 72.9702 14.1951 73.5279C14.1951 75.5596 14.1951 77.4319 14.0352 79.344C11.7573 79.8619 11.3577 81.3756 11.3577 83.2878C11.3976 101.453 11.3577 119.658 11.3577 137.823C11.3577 141.687 12.117 142.444 16.0334 142.444C72.7008 142.444 129.328 142.444 185.996 142.444C186.795 142.444 187.594 142.484 188.394 142.643C187.355 144.635 186.316 146.507 185.237 148.34Z" fill="#9B99C9"/>
<path d="M188.434 10.1492C187.434 8.27691 186.395 6.40462 185.316 4.41282C194.268 3.25758 198.185 7.83871 198.145 16.2441C197.905 56.5979 197.945 96.9119 198.145 137.266C198.185 144.436 194.108 149.137 186.835 148.46C186.435 148.42 186.036 148.46 185.436 148.42C186.316 146.548 187.395 144.675 188.593 142.644C191.271 142.086 192.03 141.249 192.03 138.66C192.03 97.1509 192.03 55.602 192.03 14.093C192.03 11.3044 191.191 10.4679 188.434 10.1492Z" fill="#807DBB"/>
<path d="M176.205 70.0625C171.809 73.7672 166.934 73.9266 163.217 72.4526C163.017 72.373 162.857 72.2933 162.697 72.2136C162.418 72.0941 162.178 71.9746 161.938 71.8551C161.539 71.6161 161.139 71.3771 160.779 71.1381C160.659 71.0584 160.539 70.9787 160.42 70.8592C160.3 70.7795 160.18 70.66 160.06 70.5804C159.94 70.5007 159.86 70.421 159.74 70.3015C159.62 70.182 159.5 70.0625 159.381 69.943C156.943 67.513 155.704 64.605 155.704 61.2189C155.704 53.4509 155.704 45.6829 155.704 37.9547C155.704 32.7362 158.022 28.8323 162.737 26.6811C167.493 24.53 171.929 25.3665 176.005 28.8721C176.205 27.7567 176.325 26.6015 176.405 25.4462C176.445 25.0478 176.445 24.6893 176.445 24.291C176.485 21.7415 176.445 19.1521 176.445 16.4034C176.045 16.2441 175.645 16.2043 175.246 16.1644C175.126 16.1644 174.966 16.1644 174.846 16.1644H17.3921V18.3156C17.3921 35.2857 17.3921 52.2956 17.3921 69.2658C17.3921 69.7836 17.3921 70.2218 17.3122 70.5804C17.3122 70.6999 17.2722 70.8194 17.2722 70.9389C17.2322 71.0982 17.1923 71.2576 17.1523 71.4169C16.7926 72.4526 16.0333 72.9307 14.3949 73.4884C14.235 75.5598 14.235 77.4321 14.1951 79.3044C15.7136 79.5833 16.5529 79.9816 16.9525 80.8182C16.9925 80.858 16.9925 80.8979 17.0324 80.9377C17.1124 81.1369 17.1923 81.3361 17.2322 81.5751C17.2722 81.6946 17.2722 81.8141 17.3122 81.9336C17.3122 82.0531 17.3521 82.1726 17.3521 82.332C17.3521 82.4515 17.3921 82.6108 17.3921 82.7702C17.3921 82.9295 17.3921 83.0888 17.3921 83.2482C17.3921 100.178 17.3921 117.069 17.3921 133.999V136.469C70.3031 136.469 123.214 136.469 176.245 136.429C176.445 114.918 176.445 93.4462 176.445 71.9746C176.445 71.8153 176.445 71.6958 176.445 71.5364C176.405 71.0584 176.325 70.6202 176.205 70.0625ZM113.783 27.9559C114.102 26.5218 115.062 25.6454 116.58 25.6056C118.219 25.5657 119.218 26.4023 119.617 27.9559C119.737 28.4737 119.697 28.9916 119.697 29.5493C119.697 42.8147 119.697 56.0801 119.697 69.3454C119.697 69.6641 119.697 70.0227 119.697 70.3413C119.577 72.1738 118.339 73.3689 116.62 73.329C114.982 73.2892 113.823 72.134 113.743 70.3812C113.663 68.7479 113.743 67.0748 113.703 65.2025C113.703 53.2119 113.703 41.5798 113.703 29.9875C113.703 29.2705 113.623 28.5933 113.783 27.9559ZM35.3355 73.2892C28.9014 73.0103 23.8661 67.9512 23.8261 61.6173C23.7462 53.7696 23.7862 45.9617 23.8261 38.1539C23.8261 31.1826 28.4618 26.0437 35.0957 25.6056C35.3754 25.5657 35.6951 25.5657 35.9749 25.5657C36.1747 25.5657 36.3745 25.5657 36.5343 25.5657C36.7342 25.5657 36.934 25.6056 37.1338 25.6056C37.8531 25.6852 38.5725 25.8047 39.2518 26.0039C39.4117 26.0437 39.5715 26.1234 39.7714 26.1633C39.9312 26.2031 40.0911 26.2828 40.2509 26.3624C40.4108 26.4421 40.5706 26.4819 40.7305 26.5616C40.8903 26.6413 41.0502 26.721 41.21 26.8006C44.6868 28.5534 47.1645 32.1386 47.7639 36.6799C47.7639 36.7198 47.7639 36.7198 47.7639 36.7596C47.6441 38.2734 47.2045 39.3091 46.5251 39.9067C46.4452 39.9465 46.4052 39.9863 46.3652 40.0262C46.3253 40.066 46.2853 40.1058 46.2054 40.1058C46.1654 40.1058 46.1654 40.1457 46.1255 40.1457C46.0855 40.1457 46.0855 40.1855 46.0455 40.1855C46.0056 40.1855 46.0056 40.1855 45.9656 40.2253C45.8058 40.305 45.6059 40.3449 45.4061 40.3847C45.3262 40.3847 45.2463 40.4245 45.1664 40.4245C45.0864 40.4245 44.9665 40.4245 44.8466 40.4245H44.7667C43.0883 40.3847 42.0492 39.2295 41.8095 37.1181C41.4098 33.6524 38.8122 31.3818 35.4953 31.5411C32.2983 31.7005 29.8605 34.25 29.8605 37.5962C29.8206 45.4837 29.8206 53.3712 29.8605 61.2587C29.9005 64.605 32.3382 67.1146 35.5353 67.274C38.7723 67.4333 41.3699 65.1627 41.8095 61.8563C42.1292 59.3865 43.368 58.1515 45.2463 58.4304C47.0846 58.7092 48.0437 60.3027 47.7639 62.6928C47.0047 68.8674 41.5297 73.568 35.3355 73.2892ZM68.3449 118.105C67.2259 122.566 64.2687 125.474 59.7928 126.709C52.5195 128.701 45.0465 123.204 44.8466 115.675C44.7667 113.683 45.8457 112.289 47.6041 112.169C49.2426 112.05 50.5614 113.125 50.7612 115.037C51.0809 117.985 52.3996 120.057 55.3169 120.893C57.9545 121.61 60.632 120.415 61.9908 118.065C63.3495 115.635 62.9099 112.607 60.7119 110.655C56.7956 107.15 52.7993 103.764 48.9229 100.218C42.4489 94.3226 43.8875 84.1246 51.6803 80.4597C59.2333 76.8744 68.0651 81.9734 68.7045 90.2992C68.9044 92.6096 67.9053 94.0836 66.067 94.2429C64.3086 94.4023 63.1097 93.247 62.79 91.056C62.1506 87.0724 59.3932 84.7221 55.7965 85.5188C55.7166 85.5188 55.6367 85.5587 55.5567 85.5587C55.4368 85.5985 55.3169 85.6383 55.1971 85.6782C55.1171 85.718 54.9972 85.7579 54.9173 85.7977C54.8374 85.8375 54.7175 85.8774 54.6376 85.957C54.4777 86.0367 54.3179 86.1164 54.198 86.2359C54.1181 86.3156 54.0381 86.3554 53.9182 86.3952C53.3188 86.7936 52.7593 87.2318 52.1599 87.5903C52.1599 87.6301 52.1199 87.67 52.1199 87.67C50.8811 89.861 50.6413 91.6934 51.3206 93.3665C51.3606 93.4462 51.4006 93.5259 51.4405 93.6055C51.5205 93.8047 51.6404 94.0039 51.7602 94.1632C51.8402 94.3226 51.9601 94.4819 52.0799 94.6413C52.3197 94.96 52.5995 95.3185 52.9591 95.6372C53.119 95.7965 53.2788 95.9559 53.4387 96.1152C57.2751 99.5013 61.1915 102.808 64.948 106.273C68.2649 109.54 69.4638 113.563 68.3449 118.105ZM65.6274 73.329C59.1134 73.2494 53.8383 68.1105 53.7584 61.5774C53.6785 53.4907 53.6785 45.404 53.7584 37.3173C53.8383 30.7842 59.1134 25.6454 65.6274 25.5657C72.1813 25.486 77.5763 30.7046 77.6962 37.3173C77.7362 39.3888 77.7362 41.4603 77.7362 43.5317C77.7362 45.0455 77.7362 46.5593 77.7362 48.073C77.7362 49.6665 77.7362 51.2201 77.7362 52.8534C77.7362 55.2833 77.7761 57.5938 77.7362 59.8645C77.7362 60.4222 77.7362 61.0197 77.6962 61.5774C77.5763 68.1504 72.1813 73.3689 65.6274 73.329ZM98.7167 114.878C98.6368 121.371 94.2808 126.231 88.2464 126.948C82.212 127.665 76.7771 124.08 75.1785 118.264C74.8588 117.109 74.7389 115.914 74.699 114.719C74.659 107.03 74.5791 99.3021 74.699 91.6137C74.7389 89.7813 75.0586 88.0683 75.6581 86.5944C75.8179 86.2359 75.9778 85.8774 76.1377 85.5188C76.5373 84.8018 76.9769 84.1246 77.4564 83.527C77.5763 83.3677 77.7362 83.2084 77.896 83.049C81.173 79.4638 86.568 78.189 91.963 80.5393C92.003 80.5393 92.0029 80.5792 92.0429 80.5792C95.0002 82.2125 96.9184 84.3636 97.8775 86.9928C97.9175 87.1123 97.9574 87.2318 97.9974 87.3911C98.0374 87.5106 98.0773 87.6301 98.1173 87.7895C98.2372 88.1878 98.3171 88.5862 98.397 88.9846C98.437 89.1041 98.437 89.2634 98.477 89.3829C98.5169 89.6618 98.5569 89.9406 98.5968 90.2195C98.6368 90.6577 98.6768 91.0959 98.6768 91.5341C98.7967 99.3419 98.8366 107.11 98.7167 114.878ZM101.714 69.5048C101.714 61.0197 101.714 52.4948 101.394 43.8903C100.555 45.8422 99.7158 47.7543 98.8766 49.7063C98.2771 51.1006 97.5578 52.3753 95.7994 52.4152C93.9611 52.455 93.1619 51.1802 92.5624 49.6665C91.7632 47.7543 90.924 45.8422 89.765 43.9699V45.8422C89.765 53.7297 89.765 61.6571 89.765 69.5446C89.765 71.9348 88.726 73.2494 86.8477 73.2892C84.8895 73.329 83.7706 72.0144 83.7706 69.5048C83.7706 56.0801 83.7706 42.6952 83.7706 29.2705C83.7706 27.5177 84.2102 26.0437 86.1284 25.6454C88.1265 25.2072 89.1656 26.4023 89.8849 28.1152C91.5234 32.0191 93.2418 35.9231 94.9202 39.7872C95.16 40.305 95.3998 40.8229 95.8394 41.6993C97.7177 37.3572 99.4361 33.3736 101.154 29.3501C101.394 28.7924 101.634 28.2347 101.874 27.7169C102.553 26.1234 103.712 25.247 105.47 25.6454C107.149 26.0437 107.788 27.2388 107.788 28.9119C107.788 32.8955 107.788 36.8791 107.788 40.8627V56.0004C107.788 60.6612 107.788 65.083 107.788 69.5446C107.788 71.9348 106.749 73.2494 104.871 73.2892C102.833 73.329 101.714 71.9746 101.714 69.5048ZM128.689 114.838C128.689 116.073 128.489 117.228 128.209 118.304C128.09 118.822 127.89 119.34 127.69 119.818C127.53 120.176 127.37 120.535 127.21 120.893C127.05 121.252 126.851 121.57 126.611 121.889C126.491 122.048 126.411 122.208 126.291 122.367C126.171 122.526 126.091 122.646 125.971 122.765C125.732 123.084 125.452 123.363 125.212 123.642C121.695 127.187 116.101 128.223 110.666 125.395C110.666 125.395 110.666 125.395 110.626 125.395C108.388 123.961 106.829 122.248 105.87 120.216C105.79 120.096 105.75 119.937 105.67 119.818C105.59 119.658 105.55 119.539 105.51 119.379C105.351 118.941 105.191 118.463 105.071 117.985C104.991 117.587 104.911 117.188 104.831 116.75C104.791 116.471 104.751 116.232 104.751 115.954C104.711 115.555 104.711 115.117 104.711 114.719C104.671 107.03 104.631 99.3419 104.711 91.6137C104.791 85.1205 109.067 80.1808 115.062 79.4239C121.216 78.667 126.691 82.2523 128.249 88.1878C128.529 89.2634 128.689 90.4187 128.689 91.5341C128.729 99.3021 128.809 107.07 128.689 114.838ZM131.806 43.4521C131.766 44.4878 131.686 45.0057 131.686 45.5634C131.686 53.5704 131.726 61.6173 131.606 69.6641C131.566 70.7397 130.967 72.2136 130.128 72.851C128.249 74.2851 125.772 72.7713 125.692 70.2617C125.612 67.274 125.652 64.2863 125.652 61.2986C125.652 50.6225 125.652 39.9465 125.652 29.2306C125.652 26.7608 127.05 25.1674 129.049 25.7251C130.088 26.0437 131.207 27.0795 131.646 28.0754C135.403 36.5604 139.039 45.0853 142.716 53.6102C142.916 54.0484 143.116 54.5265 143.635 54.885V34.8873C143.635 33.1345 143.595 31.5411 143.635 29.9477C143.635 29.5493 143.635 29.1111 143.675 28.7128C143.715 26.8006 144.874 25.6056 146.552 25.5657C148.351 25.5259 149.63 26.7608 149.63 28.7526C149.67 42.5358 149.63 56.3589 149.63 70.1422C149.63 71.6958 148.91 72.851 147.312 73.1697C145.433 73.5681 144.354 72.5721 143.635 70.899C139.959 62.2945 136.242 53.7297 132.565 45.165C132.406 44.7667 132.206 44.3683 131.806 43.4521ZM158.661 124.16C158.541 125.634 157.822 126.669 156.343 126.988C154.745 127.307 153.626 126.669 152.907 125.235C152.467 124.359 152.107 123.403 151.708 122.487C148.431 114.878 145.154 107.269 141.877 99.6606C141.637 99.1029 141.237 98.585 140.918 98.0672C140.878 98.107 140.838 98.1468 140.798 98.1867C140.798 98.2265 140.758 98.2664 140.758 98.3062C140.758 98.346 140.718 98.346 140.718 98.3859V98.4655C140.718 103.644 140.718 108.664 140.678 113.643C140.678 116.631 140.678 119.618 140.678 122.606C140.678 123.403 140.838 124.399 140.438 124.917C139.719 125.793 138.6 126.908 137.641 126.908C136.682 126.908 135.603 125.793 134.843 124.917C134.444 124.478 134.603 123.522 134.603 122.805C134.603 109.739 134.603 96.6331 134.603 83.5669C134.603 83.2482 134.603 82.8897 134.603 82.571C134.683 80.9377 135.323 79.7028 137.041 79.3841C138.72 79.0654 139.839 79.8621 140.518 81.3759C141.837 84.4034 143.156 87.4708 144.434 90.4983C146.992 96.4339 149.55 102.409 152.467 108.345C152.507 107.668 152.547 107.03 152.547 106.353C152.547 98.8639 152.547 91.3349 152.547 83.8457C152.547 83.1685 152.547 82.5311 152.627 81.8539C152.867 80.2605 153.906 79.3443 155.504 79.3044C157.183 79.2646 158.222 80.2207 158.501 81.8938C158.581 82.4913 158.581 83.0888 158.581 83.6864C158.581 96.7127 158.581 109.699 158.581 122.726C158.701 123.204 158.701 123.682 158.661 124.16Z" fill="#EBBF4B"/>
<path d="M14.0752 79.3441C16.7527 79.7823 17.3921 80.579 17.3921 83.248C17.3921 100.178 17.3921 117.069 17.3921 133.999C17.3921 134.716 17.3921 135.473 17.3921 136.469C70.3031 136.469 123.214 136.469 176.445 136.469C179.842 136.469 182.879 136.469 185.916 136.469C185.916 96.2346 185.916 56.2791 185.916 16.244C182.679 16.244 179.562 16.244 176.445 16.244C175.925 16.2041 175.366 16.2041 174.846 16.2041C122.974 16.2041 71.1023 16.2041 19.2703 16.2041C18.7508 16.2041 18.2313 16.2041 17.3921 16.2041C17.3921 16.961 17.3921 17.678 17.3921 18.3553C17.3921 35.3254 17.3921 52.3353 17.3921 69.3054C17.3921 71.9745 16.8726 72.6915 14.3949 73.3289C12.1969 72.9704 11.3976 71.6956 11.3976 69.664C11.4376 51.1004 11.3976 32.497 11.3976 13.9335C11.3976 11.0653 12.4367 10.1889 15.7536 10.1889C72.3811 10.1889 129.049 10.1889 185.676 10.1889C186.475 10.1889 187.275 10.1889 188.274 10.149C191.231 10.4279 192.07 11.3043 192.07 14.053C192.07 55.562 192.07 97.1109 192.07 138.62C192.07 141.209 191.311 142.046 188.633 142.444C187.674 142.444 186.875 142.404 186.076 142.404C129.408 142.404 72.7808 142.404 16.1133 142.404C12.1969 142.404 11.4376 141.687 11.4376 137.783C11.4376 119.618 11.4376 101.413 11.4376 83.248C11.3976 81.3757 11.7973 79.862 14.0752 79.3441Z" fill="black"/>
<path d="M176.445 16.4034C179.562 16.2042 182.679 16.2042 185.916 16.2042C185.916 56.2394 185.916 96.2347 185.916 136.429C182.879 136.429 179.842 136.429 176.644 136.389C176.445 114.878 176.445 93.4063 176.445 71.9347C176.445 71.3372 176.365 70.7396 176.245 69.9031C178.603 67.1942 179.642 64.2464 179.642 60.8205C179.602 57.2353 179.642 53.65 179.642 50.0648C179.642 47.6348 178.922 46.8381 176.445 46.121C176.445 44.0894 176.445 42.2569 176.605 40.4245C179.082 39.7473 179.762 38.8709 179.602 36.6401C179.442 33.6125 178.083 31.1029 176.085 28.8721C176.205 27.3185 176.365 25.7649 176.405 24.2511C176.485 21.7016 176.445 19.1521 176.445 16.4034Z" fill="#EC9445"/>
<path d="M140.718 98.5451C140.718 106.672 140.718 114.639 140.678 122.606C140.678 123.403 140.838 124.438 140.438 124.917C139.719 125.793 138.6 126.908 137.641 126.908C136.682 126.908 135.603 125.793 134.843 124.917C134.444 124.478 134.603 123.522 134.603 122.805C134.603 109.739 134.603 96.633 134.603 83.5668C134.603 83.2481 134.603 82.8896 134.603 82.5709C134.683 80.9376 135.323 79.7027 137.041 79.384C138.72 79.0653 139.839 79.862 140.518 81.3758C141.837 84.4033 143.156 87.4707 144.434 90.4982C146.992 96.4338 149.55 102.409 152.467 108.305C152.507 107.628 152.547 106.99 152.547 106.313C152.547 98.824 152.547 91.295 152.547 83.8058C152.547 83.1286 152.547 82.4514 152.627 81.814C152.867 80.2206 153.906 79.3043 155.464 79.2645C157.143 79.2247 158.222 80.1807 158.461 81.8538C158.541 82.4514 158.541 83.0489 158.541 83.6465C158.541 96.6728 158.541 109.659 158.541 122.686C158.541 123.164 158.541 123.602 158.501 124.08C158.381 125.554 157.662 126.59 156.183 126.908C154.585 127.227 153.466 126.59 152.747 125.156C152.307 124.279 151.947 123.323 151.548 122.407C148.271 114.798 145.034 107.19 141.717 99.5808C141.477 99.0231 141.078 98.5053 140.758 97.9874C140.718 98.0272 140.678 98.0671 140.638 98.1069C140.758 98.2663 140.758 98.3459 140.718 98.5451Z" fill="#0A0803"/>
<path d="M143.675 34.8873C143.675 32.6963 143.635 30.7045 143.675 28.7127C143.715 26.8006 144.874 25.6055 146.552 25.5656C148.351 25.5258 149.63 26.7607 149.63 28.7525C149.67 42.5358 149.63 56.3588 149.63 70.1421C149.63 71.6957 148.91 72.8509 147.312 73.1696C145.433 73.568 144.354 72.5721 143.635 70.899C139.959 62.2944 136.242 53.7297 132.565 45.1649C132.406 44.7666 132.206 44.3284 131.766 43.4121C131.726 44.4479 131.646 44.9658 131.646 45.5235C131.646 53.5703 131.686 61.5774 131.566 69.6242C131.566 70.6998 130.927 72.1737 130.088 72.8111C128.249 74.2452 125.732 72.7314 125.652 70.2218C125.572 67.2341 125.612 64.2464 125.612 61.2587C125.612 50.5826 125.612 39.9066 125.612 29.1907C125.612 26.7209 127.011 25.0876 129.009 25.6851C130.048 26.0038 131.167 27.0396 131.606 28.0355C135.363 36.5205 138.999 45.0454 142.676 53.5703C142.876 54.0085 143.076 54.4865 143.595 54.8849C143.675 48.2721 143.675 41.6992 143.675 34.8873Z" fill="#010100"/>
<path d="M107.708 56.0004C107.708 60.6612 107.708 65.083 107.708 69.5446C107.708 71.9348 106.669 73.2494 104.791 73.2892C102.833 73.329 101.714 72.0144 101.714 69.5048C101.714 61.0197 101.714 52.5347 101.394 43.8903C100.555 45.8422 99.6758 47.7543 98.8766 49.7063C98.2771 51.1006 97.5578 52.3753 95.7994 52.4152C93.9611 52.455 93.1619 51.1802 92.5624 49.6665C91.7632 47.7544 90.924 45.8422 89.7251 43.9699C89.7251 44.6073 89.7251 45.2048 89.7251 45.8422C89.7251 53.7297 89.7251 61.6571 89.7251 69.5446C89.7251 71.9348 88.686 73.2494 86.8078 73.2892C84.8496 73.329 83.7306 72.0144 83.7306 69.5048C83.7306 56.0801 83.7306 42.6952 83.7306 29.2705C83.7306 27.5177 84.1702 26.0438 86.0884 25.6454C88.0866 25.2072 89.1256 26.4023 89.845 28.1152C91.4834 32.0191 93.2018 35.9231 94.8803 39.7872C95.1201 40.305 95.3598 40.8229 95.7994 41.6993C97.6777 37.3572 99.3961 33.3736 101.115 29.39C101.354 28.8323 101.594 28.2746 101.834 27.7567C102.513 26.1633 103.672 25.2869 105.431 25.6852C107.109 26.0437 107.748 27.2787 107.748 28.9119C107.748 32.8955 107.748 36.8791 107.748 40.8627C107.708 45.8422 107.708 50.8217 107.708 56.0004Z" fill="#010100"/>
<path d="M128.689 91.5341C128.689 90.4187 128.529 89.2634 128.249 88.1879C126.691 82.2921 121.216 78.7069 115.062 79.4239C109.067 80.141 104.791 85.1205 104.711 91.6138C104.631 99.3021 104.671 107.03 104.711 114.719C104.711 115.157 104.711 115.555 104.751 115.954C104.751 116.232 104.791 116.511 104.831 116.75C104.911 117.188 104.951 117.587 105.071 117.985C105.191 118.463 105.311 118.941 105.51 119.379C105.55 119.539 105.63 119.658 105.67 119.818C105.71 119.937 105.79 120.096 105.87 120.216C106.829 122.208 108.348 123.921 110.506 125.315C110.546 125.315 110.586 125.355 110.626 125.355C116.101 128.143 121.735 127.108 125.212 123.602C125.492 123.323 125.732 123.044 125.971 122.726C126.091 122.606 126.171 122.447 126.291 122.327C126.411 122.168 126.491 122.009 126.611 121.849C126.811 121.531 127.011 121.212 127.21 120.853C127.41 120.495 127.57 120.136 127.69 119.778C127.89 119.3 128.05 118.782 128.209 118.264C128.489 117.188 128.689 116.033 128.689 114.798C128.809 107.07 128.729 99.3021 128.689 91.5341ZM122.615 115.356C122.415 118.742 119.897 121.092 116.66 121.092C113.423 121.092 110.826 118.702 110.746 115.356C110.626 111.133 110.706 106.871 110.706 102.608C110.706 98.9834 110.666 95.3185 110.706 91.6536C110.746 87.8692 113.223 85.3197 116.66 85.3197C120.137 85.3197 122.575 87.8692 122.615 91.6536C122.655 98.1469 122.615 104.64 122.615 111.333C122.655 112.846 122.695 114.081 122.615 115.356Z" fill="#090703"/>
<path d="M98.7167 91.6136C98.7167 91.1754 98.6768 90.7372 98.6368 90.299C98.5969 90.0201 98.5569 89.7413 98.5169 89.4624C98.5169 89.3429 98.477 89.1836 98.437 89.0641C98.3571 88.6657 98.2772 88.2275 98.1573 87.869C98.1173 87.7495 98.0773 87.5901 98.0374 87.4706C97.9974 87.3511 97.9575 87.1918 97.9175 87.0723C96.9584 84.4033 95.0402 82.292 92.1229 80.6587C92.1229 80.6587 92.0829 80.6587 92.0429 80.6189C86.528 78.2685 81.173 79.5433 77.896 83.0887C77.7362 83.248 77.6163 83.4074 77.4564 83.5667C76.9769 84.1643 76.5373 84.8415 76.1377 85.5585C75.9379 85.917 75.778 86.2756 75.6581 86.6341C75.0587 88.1478 74.699 89.821 74.699 91.6534C74.5791 99.3418 74.659 107.07 74.699 114.758C74.699 115.953 74.8589 117.148 75.1786 118.304C76.7771 124.12 82.212 127.705 88.2464 126.988C94.2809 126.271 98.6368 121.371 98.7167 114.918C98.8366 107.11 98.7967 99.3418 98.7167 91.6136ZM92.6823 114.28C92.6424 118.383 90.3245 121.052 86.7678 121.052C83.1712 121.052 80.7734 118.423 80.7734 114.36C80.7334 107.15 80.7734 99.8995 80.7734 92.49C80.8533 89.1836 81.9323 87.0324 83.8905 85.9967C84.0503 85.917 84.2102 85.8374 84.37 85.7577C84.4899 85.7179 84.6098 85.678 84.6897 85.6382C84.7697 85.6382 84.8096 85.5983 84.8496 85.5983C85.0094 85.5585 85.1293 85.5187 85.2892 85.4788C85.3691 85.4788 85.4091 85.439 85.489 85.439C85.5689 85.439 85.6089 85.3992 85.6888 85.3992C89.5652 84.7618 92.6424 87.4308 92.6823 91.6136C92.7623 97.3101 92.6823 103.007 92.6823 108.703C92.6823 110.575 92.7223 112.448 92.6823 114.28Z" fill="#090703"/>
<path d="M77.7362 48.033C77.7362 46.5192 77.7362 45.0055 77.7362 43.4917C77.7362 41.4202 77.7362 39.3488 77.6962 37.2773C77.5763 30.6645 72.1813 25.446 65.6274 25.5257C59.1135 25.6054 53.7984 30.7442 53.7584 37.2773C53.6785 45.364 53.6785 53.4507 53.7584 61.5374C53.8383 68.0705 59.1135 73.2093 65.6274 73.289C72.1813 73.3687 77.5763 68.1502 77.6962 61.5374C77.6962 60.9797 77.6962 60.3821 77.7362 59.8244C77.7362 57.5538 77.7362 55.2433 77.7362 52.8133C77.7362 51.2199 77.7362 49.6264 77.7362 48.033ZM71.7418 60.8602C71.502 63.9674 70.0633 66.0787 67.9453 66.9152C67.8653 66.9551 67.7854 66.9551 67.7055 66.9949C67.6256 67.0347 67.5456 67.0347 67.4657 67.0746C66.8663 67.2738 66.1869 67.3534 65.5075 67.3136C62.1107 67.1941 59.7529 64.5649 59.7529 60.7805C59.7529 53.2117 59.7529 45.6827 59.7529 38.1138C59.7529 34.2498 62.1906 31.5807 65.7073 31.5409C69.304 31.5011 71.7418 34.2099 71.7418 38.1935C71.7418 45.6827 71.7418 53.2117 71.7418 60.8602Z" fill="#020201"/>
<path d="M176.445 46.3601C178.922 46.8779 179.602 47.6746 179.642 50.1046C179.642 53.6899 179.642 57.2751 179.642 60.8603C179.682 64.2862 178.603 67.2341 176.165 69.8234C170.051 75.281 162.897 73.5282 159.341 69.9429C156.903 67.5129 155.704 64.6049 155.664 61.2189C155.664 53.4509 155.664 45.6828 155.664 37.9547C155.664 32.7362 157.982 28.8322 162.737 26.6811C167.493 24.5698 171.929 25.3665 176.005 28.8721C178.123 31.1427 179.442 33.6922 179.642 36.7198C179.762 38.9904 179.082 39.8668 176.485 40.4643C174.367 39.9863 173.767 38.7116 173.607 36.9189C173.288 33.6922 170.65 31.4614 167.493 31.5411C164.456 31.6208 161.778 33.9711 161.738 37.0384C161.618 45.2845 161.618 53.4907 161.738 61.7367C161.778 64.8041 164.416 67.1943 167.453 67.3138C170.53 67.4333 173.328 65.2821 173.567 62.2148C173.807 58.9881 173.607 55.7613 173.607 52.4151C172.568 52.4151 171.729 52.455 170.85 52.4151C168.972 52.3354 167.733 51.1802 167.653 49.5071C167.613 47.7941 168.892 46.5194 170.85 46.4397C172.728 46.3999 174.606 46.3999 176.445 46.3601Z" fill="#030201"/>
<path d="M51.9601 87.7497C50.0818 91.1756 50.5214 93.7251 53.3188 96.1949C57.1553 99.581 61.0716 102.887 64.8282 106.353C68.3049 109.54 69.5038 113.603 68.3449 118.105C67.2259 122.566 64.2687 125.474 59.7928 126.709C52.5196 128.701 45.0465 123.204 44.8467 115.675C44.7667 113.683 45.8457 112.328 47.6041 112.169C49.2426 112.05 50.5614 113.125 50.7612 115.037C51.0809 117.985 52.3997 120.057 55.317 120.893C57.9545 121.61 60.632 120.415 61.9908 118.065C63.3495 115.635 62.9099 112.607 60.712 110.655C56.7956 107.15 52.7993 103.764 48.9229 100.218C42.4489 94.3226 43.8875 84.1246 51.6803 80.4597C59.2333 76.8745 68.0651 81.9337 68.7046 90.2992C68.9044 92.6097 67.9053 94.0836 66.067 94.243C64.3086 94.4023 63.1097 93.2471 62.79 91.0162C62.1506 87.0326 59.3532 84.6823 55.7965 85.479C54.3978 85.7977 53.2788 86.8733 51.9601 87.7497Z" fill="#040301"/>
<path d="M47.764 36.8393C47.5641 39.2693 46.4851 40.4643 44.7268 40.4245C43.0483 40.3847 42.0093 39.2294 41.7695 37.0783C41.3699 33.6125 38.7723 31.3419 35.4554 31.5012C32.2583 31.6606 29.8206 34.2101 29.8206 37.5563C29.7806 45.4438 29.7806 53.3314 29.8206 61.2189C29.8206 64.5651 32.2983 67.0748 35.4953 67.2341C38.7323 67.3934 41.3299 65.1228 41.7695 61.8164C42.0892 59.3466 43.3281 58.1117 45.2063 58.3905C47.0446 58.6694 48.0037 60.2628 47.764 62.653C47.0446 68.8674 41.5697 73.5282 35.3754 73.2493C28.9414 72.9705 23.9061 67.9113 23.8661 61.5774C23.7862 53.7695 23.8261 45.9219 23.8261 38.114C23.8261 31.1427 28.4618 26.0039 35.0957 25.5657C41.6097 25.1673 46.8448 29.7485 47.764 36.8393Z" fill="#030201"/>
<path d="M113.703 65.1625C113.703 53.2914 113.703 41.6194 113.703 29.9475C113.703 29.2703 113.623 28.5931 113.783 27.9557C114.102 26.5216 115.062 25.6452 116.58 25.6054C118.219 25.5655 119.218 26.4021 119.617 27.9557C119.737 28.4736 119.697 28.9914 119.697 29.5491C119.697 42.8145 119.697 56.0799 119.697 69.3452C119.697 69.6639 119.697 70.0225 119.697 70.3411C119.537 72.1736 118.339 73.3687 116.62 73.3288C114.982 73.289 113.823 72.1338 113.743 70.381C113.663 68.668 113.703 67.0348 113.703 65.1625Z" fill="#010100"/>
<path d="M176.445 46.2008C174.566 46.3999 172.728 46.3999 170.85 46.4398C168.892 46.5194 167.613 47.7942 167.653 49.5071C167.693 51.1404 168.972 52.2957 170.85 52.4152C171.689 52.455 172.568 52.4152 173.607 52.4152C173.607 55.7614 173.807 58.9881 173.567 62.2148C173.328 65.2822 170.49 67.4333 167.453 67.3138C164.416 67.1943 161.778 64.844 161.738 61.7368C161.658 53.4907 161.618 45.2845 161.738 37.0385C161.778 33.9711 164.456 31.6208 167.493 31.5411C170.65 31.4615 173.288 33.6923 173.607 36.919C173.767 38.7116 174.367 39.9864 176.325 40.5042C176.445 42.3367 176.445 44.1691 176.445 46.2008Z" fill="#EBBF4B"/>
<path d="M122.655 111.372C122.655 112.846 122.694 114.081 122.615 115.356C122.415 118.702 119.937 121.092 116.66 121.092C113.423 121.092 110.825 118.702 110.746 115.356C110.626 111.133 110.706 106.871 110.706 102.609C110.706 98.9436 110.666 95.3185 110.706 91.6536C110.746 87.8692 113.223 85.3197 116.66 85.3197C120.137 85.3197 122.575 87.8692 122.615 91.6536C122.694 98.1867 122.655 104.68 122.655 111.372Z" fill="#EBBF4B"/>
<path d="M80.7734 92.291C80.8933 88.2676 82.6117 85.9172 85.6888 85.3994C89.5652 84.762 92.6424 87.431 92.6823 91.6138C92.7623 97.3103 92.6823 103.007 92.6823 108.703C92.6823 110.576 92.6823 112.408 92.6823 114.28C92.6424 118.384 90.3245 121.013 86.7678 121.053C83.1712 121.092 80.7734 118.423 80.7734 114.36C80.7334 107.07 80.7734 99.7802 80.7734 92.291Z" fill="#EBBF4B"/>
<path d="M71.7417 61.0594C71.422 65.043 68.9443 67.4332 65.5075 67.3136C62.1107 67.1941 59.7528 64.565 59.7528 60.7806C59.7528 53.2117 59.7528 45.6827 59.7528 38.1139C59.7528 34.2498 62.1906 31.5808 65.7073 31.541C69.304 31.5011 71.7417 34.21 71.7417 38.1936C71.7417 45.7624 71.7417 53.2914 71.7417 61.0594Z" fill="#EBBF4B"/>
</g>
<defs>
<clipPath id="clip0_27_24">
<rect width="203" height="153" fill="white"/>
</clipPath>
</defs>
</svg>
