<?xml version="1.0" encoding="utf-8"?>
<!-- Generator: Adobe Illustrator 27.3.1, SVG Export Plug-In . SVG Version: 6.00 Build 0)  -->
<svg version="1.1" id="Layer_1" xmlns="http://www.w3.org/2000/svg" xmlns:xlink="http://www.w3.org/1999/xlink" x="0px" y="0px"
	 viewBox="0 0 240 168" style="enable-background:new 0 0 240 168;" xml:space="preserve">
<style type="text/css">
	.st0{fill:#8E6DA0;}
	.st1{fill:#F9EEDE;}
	.st2{fill:#FFF7F0;}
	.st3{fill:#EFD8BE;}
	.st4{fill:#FFFFFF;}
	.st5{fill:#906FA0;}
</style>
<path class="st0" d="M228.5,0c-19,0-38,0-57.5,0C117.5,0,64.5,0,11.5,0C4.3,0,0,4.2,0,11.2c0,48.5,0,97,0,145.5
	c0,6.8,4.3,11.3,11,11.3c72.6,0,145.3,0,218,0c6.7,0,11-4.4,11-11.2c0-48.5,0-97,0-145.5C240,4.2,235.7,0,228.5,0z M8.4,11.1
	c0.4-1.2,2.1-2.2,3.5-3c0.8-0.4,2-0.1,3-0.1C85,8,155,8,225.1,8c1.2,0,2.5-0.3,3.4,0.2c1.3,0.7,2.8,1.9,3.3,3.2
	c0.3,1-0.6,2.9-1.5,3.7c-1,0.9-2,1.7-3.2,2.5c-1.1,0.8-2.2,1.5-3.3,2.3c-20,14.3-39.5,28.5-58.9,42.7c-2.8,2-5.5,4.1-8.3,6.1
	c-9.8,7.2-19.7,14.3-29.5,21.4c-5.9,4.3-8.1,4.3-13.9,0.1c-8-5.8-16-11.6-24-17.4c-24-17.4-47.9-34.7-71.9-52.1
	c-2.4-1.9-4.6-3.2-6.5-4.7c-0.3-0.2-0.5-0.5-0.8-0.7C9,14.3,8.1,12.3,8.4,11.1z M232.1,140.5c-0.1,0.3-0.1,0.7-0.1,1.1
	c0,0.2,0,0.4,0,0.6c0,0.2,0,0.4,0,0.5c0,1.7,0.1,3.5,0.1,5.3c0,1.4,0,2.4,0,3.1c0,0.2,0,0.5,0,0.8c0.1,7.3-0.6,8.1-7.9,8.1
	c-68.4,0-136.8,0-205.2,0c-2.1,0-3.9,0-5.2-0.1c-5.7-0.3-5.6-2.1-5.6-11c-0.2-4.6-0.2-7.8,0.1-10.1c0.4-2.9,1.4-4.6,3.7-6.5
	c0.4-0.4,1-0.8,1.5-1.1c0.2-0.1,0.4-0.3,0.6-0.4c0.2-0.2,0.5-0.3,0.7-0.5c0.4-0.2,0.8-0.5,1.2-0.8c1-0.6,2.1-1.3,3.3-2
	c18.6-11.4,37.3-22.7,55.9-34.1c1-0.6,2.4-1,2.9-1.9c1-1.8,1.5-3.8,2.1-5.8c-2-0.3-4.5-1.5-6-0.8c-5.5,2.8-10.6,6.2-15.9,9.4
	c-14.9,9.1-29.9,18.2-44.8,27.3c-1.4,0.8-2.9,1.6-4.9,2.7V24.5c1.8,1.2,3.3,2.2,4.7,3.2c31.6,22.8,63.2,45.7,94.8,68.5
	c9.3,6.8,14.8,6.8,24,0.1c31.5-22.7,62.9-45.5,94.4-68.2c1.5-1.1,3-2.1,5.1-3.6v99.7c-2-1.1-3.7-2-5.3-3
	c-19.2-11.7-38.4-23.4-57.6-35.1c-1.3-0.8-2.6-1.9-4-2s-3.8,0.5-4.2,1.5c-0.6,1.3-0.2,3.5,0.6,4.9c0.6,1.2,2.4,1.7,3.6,2.5
	c20.6,12.6,41.2,25.3,61.9,37.7C230.6,133.2,232.8,135.7,232.1,140.5z"/>
<path class="st1" d="M8.1,148c-0.6-13.5-0.6-13.5,11-20.5c18.6-11.4,37.3-22.7,55.9-34.1c1-0.6,2.4-1,2.9-1.9c1-1.8,1.5-3.8,2.2-5.8
	c-2-0.3-4.5-1.5-6-0.8c-5.5,2.8-10.6,6.2-15.9,9.4c-14.9,9.1-29.9,18.2-44.8,27.3c-1.4,0.8-2.8,1.6-4.9,2.6c0-33.4,0-66.3,0-99.9
	c1.8,1.2,3.3,2.2,4.7,3.2C44.8,50.3,76.4,73.2,108,96c9.3,6.7,14.8,6.8,24,0.1c31.5-22.7,62.9-45.5,94.4-68.2c1.5-1.1,3-2.1,5.1-3.6
	c0,33.5,0,66.3,0,99.7c-2-1.1-3.7-2-5.3-3c-19.2-11.7-38.4-23.4-57.6-35.1c-1.3-0.8-2.6-1.9-4-2s-3.8,0.5-4.2,1.5
	c-0.6,1.3-0.2,3.5,0.6,4.9c0.6,1.2,2.4,1.7,3.6,2.5c20.6,12.6,41.2,25.3,61.9,37.6c4.1,2.4,6.3,4.9,5.5,9.8c-0.4,2.4-0.1,5-0.4,7.8
	c-2.7-0.9-5.1-2.1-7.5-3.8c-0.4-3.5,0.9-8-3.8-8.3c-5.3-0.3-4,4.5-4.9,7.7c-4,0-7.6,0-11.3-0.4c-0.2-3.5,0.3-7.4-4.3-7.3
	c-4.1,0.1-3.9,3.7-3.9,6.8c0,0.3-0.1,0.7-0.6,1c-4,0-7.6,0-11.3-0.4c-0.2-3.5,0.3-7.4-4.3-7.3c-4.1,0.1-3.9,3.7-3.9,6.8
	c0,0.3-0.1,0.7-0.6,1c-4,0-7.6,0-11.3-0.4c-0.2-3.5,0.3-7.4-4.3-7.3c-4.1,0.1-3.9,3.7-3.9,6.8c0,0.3-0.1,0.7-0.6,1
	c-4,0-7.6,0-11.3-0.4c-0.2-3.5,0.3-7.4-4.3-7.3c-4.1,0.1-3.9,3.7-3.9,6.8c0,0.3-0.1,0.7-0.6,1c-4,0-7.6,0-11.3-0.4
	c-0.2-3.5,0.3-7.4-4.3-7.3c-4.1,0.1-3.9,3.7-3.9,6.8c0,0.3-0.1,0.7-0.6,1c-4,0-7.6,0-11.3-0.4c-0.2-3.5,0.3-7.4-4.3-7.3
	c-4.1,0.1-3.9,3.7-3.9,6.8c0,0.3-0.1,0.7-0.6,1c-4,0-7.6,0-11.3-0.4c-0.2-3.5,0.3-7.4-4.3-7.3c-4.1,0.1-3.9,3.7-3.9,6.8
	c0,0.3-0.1,0.7-0.6,1c-4,0-7.6,0-11.3-0.4c-0.2-3.5,0.3-7.4-4.3-7.3c-4.1,0.1-3.9,3.7-3.9,6.8c0,0.3-0.1,0.7-0.6,1
	c-4,0-7.6,0-11.3-0.4c-0.2-3.5,0.3-7.4-4.3-7.3c-4.1,0.1-3.9,3.7-3.9,6.8c0,0.3-0.1,0.7-0.6,1c-4,0-7.6,0-11.3-0.4
	c-0.1-1.2,0.2-2.3-0.2-2.8c-1.2-1.6-2.7-3.1-4.1-4.6c-1.3,1.6-2.8,3.1-3.8,4.9c-0.6,1.1-0.2,2.6-0.6,4C12.8,146,10.5,147,8.1,148z"
	/>
<path class="st2" d="M223.2,20.1c-22.2,16.2-44.4,32.4-66.6,48.5c-9.8,7.2-19.7,14.3-29.6,21.4c-5.9,4.3-8.1,4.3-13.9,0.1
	c-32-23.2-63.9-46.3-95.6-69.8C86.3,20,154.7,20.1,223.2,20.1z"/>
<path class="st3" d="M164.2,144c3.6,0,7.2,0,11.3,0.4c0.6,3.5,0.2,7.5,4.7,7.4c4.1-0.1,3.8-3.8,3.9-6.8c0-0.3,0.1-0.7,0.1-1
	c3.6,0,7.2,0,11.3,0.4c0.6,3.5,0.2,7.5,4.7,7.4c4.1-0.1,3.8-3.8,3.9-6.8c0-0.3,0.1-0.7,0.1-1c3.6,0,7.2,0,11.3,0.4
	c0.5,1.4,0.2,2.7,0.7,3.3c1.1,1.5,2.7,2.8,4.1,4.2c1.3-1.3,2.7-2.5,3.7-4c0.5-0.7,0.2-1.9,0.3-2.9c2.4,1.2,4.7,2.4,7.4,3.8
	c0.3,1.2,0.4,2.2,0.4,3.2c0.1,7.3-0.6,8.1-7.9,8.1c-68.4,0-136.8,0-205.2,0c-10.9,0-10.9,0-10.8-11.5c2.4-1.4,4.7-2.4,7.4-3.1
	c0.4,3.3,0.8,6.5,4.6,6.4c3.8-0.1,3.9-3.4,3.9-6.3c0-0.5,0.1-1,0.1-1.5c3.6,0,7.2,0,11.3,0.4c0.6,3.5,0.2,7.5,4.7,7.4
	c4.1-0.1,3.8-3.8,3.9-6.8c0-0.3,0.1-0.7,0.1-1c3.6,0,7.2,0,11.3,0.4c0.6,3.5,0.2,7.5,4.7,7.4c4.1-0.1,3.8-3.8,3.9-6.8
	c0-0.3,0.1-0.7,0.1-1c3.6,0,7.2,0,11.3,0.4c0.6,3.5,0.2,7.5,4.7,7.4c4.1-0.1,3.8-3.8,3.9-6.8c0-0.3,0.1-0.7,0.1-1
	c3.6,0,7.2,0,11.3,0.4c0.6,3.5,0.2,7.5,4.7,7.4c4.1-0.1,3.8-3.8,3.9-6.8c0-0.3,0.1-0.7,0.1-1c3.6,0,7.2,0,11.3,0.4
	c0.6,3.5,0.2,7.5,4.7,7.4c4.1-0.1,3.8-3.8,3.9-6.8c0-0.3,0.1-0.7,0.1-1c3.6,0,7.2,0,11.3,0.4c0.6,3.5,0.2,7.5,4.7,7.4
	c4.1-0.1,3.8-3.8,3.9-6.8c0-0.3,0.1-0.7,0.1-1c3.6,0,7.2,0,11.3,0.4c0.6,3.5,0.2,7.5,4.7,7.4c4.1-0.1,3.8-3.8,3.9-6.8
	C164.1,144.6,164.1,144.3,164.2,144z"/>
<path class="st4" d="M223.5,20c-68.8,0.1-137.2,0-206.2,0c-2.8-1.6-5.3-3-7.4-4.8c-1-0.9-1.9-2.9-1.6-4.1c0.4-1.2,2.1-2.2,3.5-3
	c0.8-0.4,2-0.1,3-0.1C84.9,8,154.9,8,225,8c1.2,0,2.5-0.3,3.4,0.2c1.3,0.7,2.8,1.9,3.3,3.2c0.3,1-0.6,2.8-1.5,3.7
	C228.3,16.9,226,18.3,223.5,20z"/>
<path class="st5" d="M24.1,143.6c0,0.9-0.1,1.4-0.1,1.9c0,2.9-0.1,6.2-3.9,6.3c-3.9,0.1-4.2-3.1-4.3-6.4c0-1.7-0.3-3.3,0.2-4.3
	c1-1.8,2.5-3.3,3.8-4.9c1.4,1.5,2.9,3,4.1,4.6C24.3,141.3,24,142.3,24.1,143.6z"/>
<path class="st5" d="M44.1,143.6c0,0.7,0,1.1,0,1.4c-0.1,3,0.2,6.7-3.9,6.8c-4.5,0.1-4.1-3.8-4.3-7.4c0-0.7,0.1-1.1,0.1-1.4
	c0-3-0.2-6.7,3.9-6.8C44.4,136.1,44,140,44.1,143.6z"/>
<path class="st5" d="M64.1,143.6c0,0.7,0,1.1,0,1.4c-0.1,3,0.2,6.7-3.9,6.8c-4.5,0.1-4.1-3.8-4.3-7.4c0-0.7,0.1-1.1,0.1-1.4
	c0-3-0.2-6.7,3.9-6.8C64.4,136.1,64,140,64.1,143.6z"/>
<path class="st5" d="M84.1,143.6c0,0.7,0,1.1,0,1.4c-0.1,3,0.2,6.7-3.9,6.8c-4.5,0.1-4.1-3.8-4.3-7.4c0-0.7,0.1-1.1,0.1-1.4
	c0-3-0.2-6.7,3.9-6.8C84.4,136.1,84,140,84.1,143.6z"/>
<path class="st5" d="M104.1,143.6c0,0.7,0,1.1,0,1.4c-0.1,3,0.2,6.7-3.9,6.8c-4.5,0.1-4.1-3.8-4.3-7.4c0-0.7,0.1-1.1,0.1-1.4
	c0-3-0.2-6.7,3.9-6.8C104.4,136.1,104,140,104.1,143.6z"/>
<path class="st5" d="M124.1,143.6c0,0.7,0,1.1,0,1.4c-0.1,3,0.2,6.7-3.9,6.8c-4.5,0.1-4.1-3.8-4.3-7.4c0-0.7,0.1-1.1,0.1-1.4
	c0-3-0.2-6.7,3.9-6.8C124.4,136.1,124,140,124.1,143.6z"/>
<path class="st5" d="M144.1,143.6c0,0.7,0,1.1,0,1.4c-0.1,3,0.2,6.7-3.9,6.8c-4.5,0.1-4.1-3.8-4.3-7.4c0-0.7,0.1-1.1,0.1-1.4
	c0-3-0.2-6.7,3.9-6.8C144.4,136.1,144,140,144.1,143.6z"/>
<path class="st5" d="M164.1,143.6c0,0.7,0,1.1,0,1.4c-0.1,3,0.2,6.7-3.9,6.8c-4.5,0.1-4.1-3.8-4.3-7.4c0-0.7,0.1-1.1,0.1-1.4
	c0-3-0.2-6.7,3.9-6.8C164.4,136.1,164,140,164.1,143.6z"/>
<path class="st5" d="M184.1,143.6c0,0.7,0,1.1,0,1.4c-0.1,3,0.2,6.7-3.9,6.8c-4.5,0.1-4.1-3.8-4.3-7.4c0-0.7,0.1-1.1,0.1-1.4
	c0-3-0.2-6.7,3.9-6.8C184.4,136.1,184,140,184.1,143.6z"/>
<path class="st5" d="M204.1,143.6c0,0.7,0,1.1,0,1.4c-0.1,3,0.2,6.7-3.9,6.8c-4.5,0.1-4.1-3.8-4.3-7.4c0-0.7,0.1-1.1,0.1-1.4
	c0-3-0.2-6.7,3.9-6.8C204.4,136.1,204,140,204.1,143.6z"/>
<path class="st5" d="M224.1,144.5c0,1.4,0.2,2.6-0.2,3.3c-1,1.5-2.4,2.7-3.7,4c-1.4-1.4-2.9-2.6-4.1-4.2c-0.5-0.7-0.1-1.9-0.2-3.3
	c0.4-3.6-0.8-8.4,4.4-8.1C225,136.5,223.8,141,224.1,144.5z"/>
</svg>
