<svg version="1.1" id="Layer_1" xmlns="http://www.w3.org/2000/svg" xmlns:xlink="http://www.w3.org/1999/xlink" x="0px" y="0px"
	 width="100%" viewBox="0 0 256 256" enable-background="new 0 0 256 256" xml:space="preserve">
<path fill="#0177B5" opacity="1.000000" stroke="none" 
	d="
M257.000000,41.000000 
	C257.000000,99.687561 257.000000,158.375122 256.654602,217.661545 
	C252.917267,231.841751 245.887100,242.977158 233.591095,250.024445 
	C228.425064,252.985306 222.551773,254.712158 217.000000,257.000000 
	C158.312439,257.000000 99.624878,257.000000 40.337997,256.654877 
	C38.958569,256.041626 38.189167,255.735748 37.396774,255.510910 
	C19.372887,250.396591 7.660939,238.970978 2.601043,220.833420 
	C2.318051,219.819031 1.544968,218.941330 0.999998,218.000000 
	C1.000000,158.979111 1.000000,99.958214 1.345125,40.337997 
	C4.999472,26.747770 11.426099,15.748554 23.190306,8.829190 
	C28.741447,5.564170 35.040070,3.570001 41.000000,1.000000 
	C99.354225,1.000000 157.708450,1.000000 216.674881,1.350012 
	C231.689835,4.567924 242.962097,12.131398 250.310410,24.835577 
	C253.204712,29.839397 254.808517,35.589657 257.000000,41.000000 
M177.469299,146.217529 
	C177.646027,149.038132 177.969269,151.858414 177.975861,154.679413 
	C178.020981,174.006638 177.999741,193.334030 177.999863,212.661362 
	C177.999878,214.424683 177.999863,216.188004 177.999863,217.948120 
	C191.624084,217.948120 204.564011,217.948120 217.799530,217.948120 
	C217.874557,216.792648 217.990891,215.834869 217.991013,214.877090 
	C217.993820,192.550766 218.211288,170.220688 217.841507,147.900375 
	C217.726959,140.986526 216.776428,133.879684 214.875153,127.243225 
	C210.219025,110.990852 199.489029,100.444870 182.564209,97.615616 
	C165.995178,94.845833 151.409714,98.524826 141.223450,113.245872 
	C140.810501,113.842659 140.219971,114.316566 138.808060,115.793472 
	C138.808060,109.490410 138.808060,104.443359 138.808060,99.404831 
	C125.281792,99.404831 112.343834,99.404831 99.188301,99.404831 
	C99.188301,139.019226 99.188301,178.395599 99.188301,217.887924 
	C112.603073,217.887924 125.669434,217.887924 139.167847,217.887924 
	C139.167847,215.820099 139.167847,214.026642 139.167847,212.233185 
	C139.167801,192.739243 139.152115,173.245255 139.186005,153.751373 
	C139.190628,151.091980 139.224854,148.400314 139.618164,145.779541 
	C141.244156,134.944748 149.677719,127.310822 159.903458,127.242744 
	C169.888535,127.176270 175.423462,132.944458 177.469299,146.217529 
M80.151978,207.483139 
	C80.151978,171.444427 80.151978,135.405716 80.151978,99.487106 
	C66.266212,99.487106 53.359623,99.487106 40.711391,99.487106 
	C40.711391,139.168549 40.711391,178.522949 40.711391,217.797577 
	C54.149513,217.797577 67.040848,217.797577 80.153763,217.797577 
	C80.153763,214.440765 80.153763,211.457962 80.151978,207.483139 
M43.149960,77.339104 
	C51.396080,84.910500 64.101463,85.898109 73.038887,79.446846 
	C79.773705,74.585472 82.259773,67.731949 80.731003,59.720825 
	C79.146683,51.418556 73.777931,46.224277 65.672340,44.167076 
	C55.844700,41.672817 45.519901,45.340580 40.788727,52.653820 
	C36.130432,59.854385 36.919350,69.557343 43.149960,77.339104 
z"/>
<path fill="#FAFCFE" opacity="1.000000" stroke="none" 
	d="
M257.000000,40.531342 
	C254.808517,35.589657 253.204712,29.839397 250.310410,24.835577 
	C242.962097,12.131398 231.689835,4.567924 217.143539,1.350012 
	C230.259995,1.000000 243.519974,1.000000 257.000000,1.000000 
	C257.000000,14.020069 257.000000,27.041376 257.000000,40.531342 
z"/>
<path fill="#FAFCFE" opacity="1.000000" stroke="none" 
	d="
M40.531342,1.000000 
	C35.040070,3.570001 28.741447,5.564170 23.190306,8.829190 
	C11.426099,15.748554 4.999472,26.747770 1.345125,39.869339 
	C1.000000,27.072422 1.000000,14.144843 1.000000,1.000000 
	C14.020089,1.000000 27.041386,1.000000 40.531342,1.000000 
z"/>
<path fill="#FAFCFE" opacity="1.000000" stroke="none" 
	d="
M217.468658,257.000000 
	C222.551773,254.712158 228.425064,252.985306 233.591095,250.024445 
	C245.887100,242.977158 252.917267,231.841751 256.654602,218.130203 
	C257.000000,230.927582 257.000000,243.855164 257.000000,257.000000 
	C243.979904,257.000000 230.958618,257.000000 217.468658,257.000000 
z"/>
<path fill="#FAFCFE" opacity="1.000000" stroke="none" 
	d="
M0.999998,218.468658 
	C1.544968,218.941330 2.318051,219.819031 2.601043,220.833420 
	C7.660939,238.970978 19.372887,250.396591 37.396774,255.510910 
	C38.189167,255.735748 38.958569,256.041626 39.869339,256.654877 
	C27.073357,257.000000 14.146712,257.000000 1.000000,257.000000 
	C1.000000,244.313293 1.000000,231.625305 0.999998,218.468658 
z"/>
<path fill="#FEFFFF" opacity="1.000000" stroke="none" 
	d="
M177.378662,145.788727 
	C175.423462,132.944458 169.888535,127.176270 159.903458,127.242744 
	C149.677719,127.310822 141.244156,134.944748 139.618164,145.779541 
	C139.224854,148.400314 139.190628,151.091980 139.186005,153.751373 
	C139.152115,173.245255 139.167801,192.739243 139.167847,212.233185 
	C139.167847,214.026642 139.167847,215.820099 139.167847,217.887924 
	C125.669434,217.887924 112.603073,217.887924 99.188301,217.887924 
	C99.188301,178.395599 99.188301,139.019226 99.188301,99.404831 
	C112.343834,99.404831 125.281792,99.404831 138.808060,99.404831 
	C138.808060,104.443359 138.808060,109.490410 138.808060,115.793472 
	C140.219971,114.316566 140.810501,113.842659 141.223450,113.245872 
	C151.409714,98.524826 165.995178,94.845833 182.564209,97.615616 
	C199.489029,100.444870 210.219025,110.990852 214.875153,127.243225 
	C216.776428,133.879684 217.726959,140.986526 217.841507,147.900375 
	C218.211288,170.220688 217.993820,192.550766 217.991013,214.877090 
	C217.990891,215.834869 217.874557,216.792648 217.799530,217.948120 
	C204.564011,217.948120 191.624084,217.948120 177.999863,217.948120 
	C177.999863,216.188004 177.999878,214.424683 177.999863,212.661362 
	C177.999741,193.334030 178.020981,174.006638 177.975861,154.679413 
	C177.969269,151.858414 177.646027,149.038132 177.378662,145.788727 
z"/>
<path fill="#FCFDFE" opacity="1.000000" stroke="none" 
	d="
M80.152870,207.979156 
	C80.153763,211.457962 80.153763,214.440765 80.153763,217.797577 
	C67.040848,217.797577 54.149513,217.797577 40.711391,217.797577 
	C40.711391,178.522949 40.711391,139.168549 40.711391,99.487106 
	C53.359623,99.487106 66.266212,99.487106 80.151978,99.487106 
	C80.151978,135.405716 80.151978,171.444427 80.152870,207.979156 
z"/>
<path fill="#FCFDFE" opacity="1.000000" stroke="none" 
	d="
M42.948124,77.034637 
	C36.919350,69.557343 36.130432,59.854385 40.788727,52.653820 
	C45.519901,45.340580 55.844700,41.672817 65.672340,44.167076 
	C73.777931,46.224277 79.146683,51.418556 80.731003,59.720825 
	C82.259773,67.731949 79.773705,74.585472 73.038887,79.446846 
	C64.101463,85.898109 51.396080,84.910500 42.948124,77.034637 
z"/>
</svg>