<?xml version="1.0" encoding="utf-8"?>
<!-- Generator: Adobe Illustrator 27.3.1, SVG Export Plug-In . SVG Version: 6.00 Build 0)  -->
<svg version="1.1" id="Layer_1" xmlns="http://www.w3.org/2000/svg" xmlns:xlink="http://www.w3.org/1999/xlink" x="0px" y="0px"
	 viewBox="0 0 207.9 208.2" style="enable-background:new 0 0 207.9 208.2;" xml:space="preserve">
<style type="text/css">
	.st0{fill:#8D6C9F;}
	.st1{fill:#58B5E8;}
	.st2{fill:#65C5EF;}
	.st3{fill:#8E6EA1;}
	.st4{fill:#8E70A2;}
	.st5{fill:#8C6EA1;}
	.st6{fill:#F9EEDD;}
	.st7{fill:#FAEFDE;}
</style>
<path d="M205.6,15.4c-1.2-2.7-2.9-5-4.9-7.1C202.8,10.4,204.4,12.8,205.6,15.4z"/>
<path class="st0" d="M208.1,27.9c0-2.9-0.3-5.5-0.9-8c-0.2-0.9-0.5-1.8-0.8-2.6c-0.2-0.6-0.5-1.2-0.8-1.8c-1.2-2.7-2.9-5-4.9-7.1
	l-0.1-0.1c-0.5-0.5-0.9-0.9-1.4-1.4c-0.3-0.2-0.5-0.5-0.8-0.7c-2.1-1.7-4.5-3.2-7.2-4.5c-2.5-0.5-4.9-1.1-7.2-1.4
	c-0.8-0.1-1.5-0.1-2.3-0.1c-52-0.1-104,0.1-155.9-0.2C13.4-0.1-0.1,13.4,0,25.5c0.3,52.5,0.3,105,0,157.4
	c-0.1,12.1,13.5,25.4,25.4,25.3c52.5-0.3,105-0.3,157.4,0c12,0.1,25.5-13.4,25.4-25.3C207.8,131.2,207.9,79.5,208.1,27.9z
	 M200,177.9c0,13.9-8.1,22-22.1,22c-49.5,0-99,0-148.4,0c-12.9,0-21.5-8.1-21.5-20.6c0-7.2,0-14.4,0-21.5c0-4.7,0-9.5,0-14.2
	c0-37.9,0-75.8,0-113.7c0-4.4,0.9-8.2,2.5-11.5c0.1-0.2,0.2-0.3,0.2-0.5c0.1-0.2,0.2-0.4,0.4-0.7c0-0.1,0.1-0.1,0.1-0.2
	c1.5-2.5,3.6-4.6,6-6.1c0.5-0.3,1.1-0.7,1.7-1c0.3-0.1,0.6-0.3,0.9-0.4c0.3-0.1,0.6-0.3,0.9-0.4C21,9,21.2,8.9,21.5,8.8
	c1.3-0.4,2.7-0.7,4.2-0.9c0.3,0,0.6,0,0.9-0.1c0.4,0,0.9,0,1.3,0c50.7-0.1,101.3-0.1,152,0c2.1,0,4.2,0.3,6,0.8
	c8.1,2.4,13.3,9.6,13.8,19.3c0,25.5,0,50.5,0,75.4c0,6.1,0,12.2,0,18.4C200,140.6,200,159.3,200,177.9z"/>
<path class="st1" d="M200,122c0-6.1,0-12.2,0-18.4c0-24.9-0.1-49.7-0.1-74.6c-3.6,1-7.2,2-11.2,3c-0.4,0.3-0.5,0.6-0.5,0.9V33
	c-0.1,3,0.1,6.6-3.9,6.7c-4.5,0.1-4.1-3.8-4.3-7.3c-3.6-0.4-7.2-0.4-11.3-0.4c-0.4,0.3-0.5,0.6-0.5,0.9V33c-0.1,3,0.1,6.6-3.9,6.7
	c-4.5,0.1-4.1-3.8-4.3-7.3c-3.6-0.4-7.2-0.4-11.3-0.4c-0.4,0.3-0.5,0.6-0.5,0.9V33c-0.1,3,0.1,6.6-3.9,6.7c-4.5,0.1-4.1-3.8-4.3-7.3
	c-3.6-0.4-7.2-0.4-11.3-0.4c-0.4,0.3-0.5,0.6-0.5,0.9V33c-0.1,3,0.1,6.6-3.9,6.7c-4.5,0.1-4.1-3.8-4.3-7.3
	c-3.6-0.4-7.2-0.4-11.3-0.4c-0.4,0.3-0.5,0.6-0.5,0.9V33c-0.1,3,0.1,6.6-3.9,6.7c-4.5,0.1-4.1-3.8-4.3-7.3C96.4,32,92.8,32,88.7,32
	c-0.4,0.3-0.5,0.6-0.5,0.9V33c-0.1,3,0.1,6.6-3.9,6.7c-4.5,0.1-4.1-3.8-4.3-7.3C76.4,32,72.8,32,68.7,32c-0.4,0.3-0.5,0.6-0.5,0.9
	V33c-0.1,3,0.1,6.6-3.9,6.7c-4.5,0.1-4.1-3.8-4.3-7.3C56.4,32,52.8,32,48.7,32c-0.4,0.3-0.5,0.6-0.5,0.9V33c-0.1,3,0.1,6.6-3.9,6.7
	c-4.5,0.1-4.1-3.8-4.3-7.3C36.4,32,32.8,32,28.7,32c-0.4,0.3-0.5,0.6-0.5,0.9V33c-0.1,3,0.1,6.6-3.9,6.7c-4.5,0.1-4.1-3.8-4.3-7.3
	c-3.8-1.3-7.4-2.1-11.5-2.7c-0.3,38.1-0.4,76.1-0.4,114c0,4.7,0,9.5,0,14.2c0,7.2,0,14.4,0,21.5c0,12.5,8.6,20.6,21.5,20.6
	c49.5,0,98.9,0,148.4,0c13.9,0,22-8.1,22.1-22C200,159.3,200,140.6,200,122z M50.5,48.4c1.5-0.3,3-0.5,4.4-0.4
	c0.5,0,0.9,0.1,1.3,0.1c0.7,0.1,1.3,0.2,2,0.4c5.6,1.4,10.3,5.7,12.9,12.3c0,0.1,0,0.1,0,0.2c1.6,8.5-1,15.6-6.6,19.6
	c-0.4,0.3-0.8,0.6-1.2,0.8c-0.9,0.6-2,1-3,1.5c-0.2,0.1-0.4,0.1-0.6,0.2c-0.1,0-0.2,0.1-0.4,0.1c-0.3,0.1-0.7,0.2-1,0.3
	c-0.3,0.1-0.7,0.2-1,0.2c-9.6,2-19.1-4.6-21.1-14.5C34.5,59.8,40.8,50.5,50.5,48.4z M72,178c0,4.2-1.8,6.1-6,6.1c-8-0.1-16-0.1-24,0
	c-4.2,0-6.1-1.8-6-6s0-8.3,0-13c0-23.5,0-46.5,0-69.5c0-6.7,0.9-7.5,7.5-7.5c7.5,0,15,0.1,22.5,0c4.2,0,6.1,1.8,6,6
	C72,122,72,150,72,178z M165.6,184c-7.5-0.1-15-0.1-22.5,0c-4.5,0.1-6.3-1.9-6.3-6.3c0.1-13.8,0.1-27.7,0-41.5
	c0-3.6-0.4-7.3-0.9-10.9c-0.6-4.4-3.1-7.3-7.7-7.8c-5.4-0.6-9.9,1.4-11.4,6c-1.1,3.2-1.7,6.8-1.7,10.2c-0.2,14.3-0.1,28.7-0.1,43
	c0,6.2-1.1,7.3-7.3,7.3c-7.2,0-14.3-0.1-21.5,0c-4.2,0.1-6.1-1.7-6.1-6c0.1-28,0.1-56,0-84c0-4.2,1.8-6.1,6-6.1c7,0.1,14-0.2,21,0.1
	c2.6,0.1,5.2,1.6,7.6,3.2c1.3-0.7,2.7-1.3,4-1.9c0.7-0.3,1.4-0.6,2.2-0.9c0.6-0.2,1.3-0.5,1.9-0.7c0.8-0.3,1.5-0.5,2.3-0.7
	c1-0.3,2-0.5,3-0.7c0.5-0.1,0.9-0.2,1.3-0.2c9.7-1.7,19.3,0.1,29,5.9c0.1,0.1,0.2,0.1,0.2,0.2c0.2,0.2,0.4,0.3,0.5,0.5
	c4.9,4.2,8,9,9.8,14.3c0.4,1.1,0.7,2.2,0.9,3.4c0.5,2.3,0.8,4.7,0.9,7.1c0.8,20.1,0.7,40.3,0.9,60.5
	C171.8,182.1,169.8,184.1,165.6,184z"/>
<path class="st2" d="M119.8,32c-3.6,0-7.2,0-11.3-0.4c-0.7-3.5-0.2-7.4-4.7-7.3c-4.1,0.1-3.8,3.8-3.9,6.7c0,0.3-0.1,0.7-0.1,1
	c-3.6,0-7.2,0-11.3-0.4c-0.7-3.5-0.2-7.4-4.7-7.3c-4.1,0.1-3.8,3.8-3.9,6.7c0,0.3-0.1,0.7-0.1,1c-3.6,0-7.2,0-11.3-0.4
	c-0.7-3.5-0.2-7.4-4.7-7.3c-4.1,0.1-3.8,3.8-3.9,6.7c0,0.3-0.1,0.7-0.1,1c-3.6,0-7.2,0-11.3-0.4c-0.7-3.5-0.2-7.4-4.7-7.3
	c-4.1,0.1-3.8,3.8-3.9,6.7c0,0.3-0.1,0.7-0.1,1c-3.6,0-7.2,0-11.3-0.4c-0.7-3.5-0.2-7.4-4.7-7.3c-4.1,0.1-3.8,3.8-3.9,6.7
	c0,0.3-0.1,0.7-0.1,1c-3.7-0.9-7.4-1.7-11.4-2.8C7.9,17,16.1,8.1,28,8c50.7-0.1,101.3-0.1,152,0c11.4,0,19.2,8.3,19.8,20.5
	c-3.7,1.4-7.3,2.4-11.3,3c-0.6-3.5-0.2-7.4-4.7-7.3c-4.1,0.1-3.8,3.8-3.9,6.7c0,0.3-0.1,0.7-0.1,1c-3.6,0-7.2,0-11.3-0.4
	c-0.7-3.5-0.2-7.4-4.7-7.3c-4.1,0.1-3.8,3.8-3.9,6.7c0,0.3-0.1,0.7-0.1,1c-3.6,0-7.2,0-11.3-0.4c-0.7-3.5-0.2-7.4-4.7-7.3
	c-4.1,0.1-3.8,3.8-3.9,6.7c0,0.3-0.1,0.7-0.1,1c-3.6,0-7.2,0-11.3-0.4c-0.7-3.5-0.2-7.4-4.7-7.3c-4.1,0.1-3.8,3.8-3.9,6.7
	C119.9,31.3,119.9,31.7,119.8,32z"/>
<path class="st3" d="M170.8,117.5c-0.1-2.4-0.4-4.8-0.9-7.1c-0.2-1.1-0.6-2.3-0.9-3.4c-1.8-5.4-4.9-10.3-9.8-14.3
	c-0.2-0.2-0.3-0.3-0.5-0.4l0,0c-9.8-5.9-19.6-7.7-29.3-6.1c-0.5,0.1-0.9,0.2-1.3,0.2c-1,0.2-2,0.5-3,0.7c-0.8,0.2-1.5,0.4-2.3,0.7
	c-0.6,0.2-1.3,0.4-1.9,0.7c-0.7,0.3-1.4,0.6-2.2,0.9c-1.3,0.6-2.7,1.2-4,1.9c-2.4-1.5-5-3.1-7.6-3.2c-7-0.4-14,0-21-0.1
	c-4.2,0-6,1.9-6,6.1c0.1,28,0.1,56,0,84c0,4.3,2,6,6.1,6c7.2-0.1,14.3,0,21.5,0c6.2,0,7.3-1.1,7.3-7.3c0.1-14.3-0.1-28.7,0.1-43
	c0-3.4,0.6-7,1.7-10.2c1.5-4.6,6-6.7,11.4-6c4.7,0.6,7.1,3.4,7.7,7.8c0.5,3.6,0.9,7.3,0.9,10.9c0.1,13.8,0.1,27.7,0,41.5
	c0,4.4,1.8,6.4,6.3,6.3c7.5-0.1,15-0.1,22.5,0c4.2,0,6.2-1.9,6.1-6.1C171.5,157.8,171.6,137.6,170.8,117.5z M163.1,175.7h-18.2
	c0-2.2,0-4.4,0-6.5c-0.2-14.5-0.2-29-0.9-43.4c-0.3-7.5-3.8-13.5-11.6-15.7c-2.5-0.7-4.9-0.9-7.2-0.8c-5.7,0.3-10.7,3.1-14.5,8.2
	c0,0,0,0,0,0.1c-1.2,4.3-2.5,8.2-3.2,12.1c-0.2,1.3-0.4,2.6-0.5,3.9c-0.5,12.1-0.2,24.3-0.2,36.5v5.7H88.2V96.6h17.5
	c0,2.1-0.4,4.3,0.1,6.3c0.5,1.8,1.7,4.1,3.2,4.8c1.1,0.5,3.8-1,4.8-2.3c6.4-9.3,15.4-12.1,26.1-11.2c12,1.1,19.5,7.2,21.8,19.1
	c1.1,5.7,1.4,11.6,1.5,17.4c0.2,13.5,0.2,27,0.2,40.5C163.5,172.4,163.2,173.9,163.1,175.7z"/>
<path class="st0" d="M72,94c0-4.2-1.8-6.1-6-6c-7.5,0.1-15,0-22.5,0c-6.6,0-7.5,0.9-7.5,7.5c0,23,0,46,0,69.5c0,4.7,0.1,8.8,0,13
	s1.8,6.1,6,6c8-0.1,16-0.1,24,0c4.2,0,6-1.9,6-6.1C72,150,72,122,72,94z M63.6,175.7H44.8c-0.3-0.5-0.6-0.7-0.6-1c0-6.5,0-13,0-19.5
	c0-19.5,0-38.9,0-58.4c0.1,0,0.2,0,0.3,0c5-0.5,9.6-0.6,14.2-0.6c1.6,0,3.2,0,4.8,0v79.5H63.6z"/>
<path class="st4" d="M71.2,61.1c0-0.1-0.1-0.1-0.1-0.2c-2.7-6.7-7.4-11-13-12.4c-0.7-0.2-1.3-0.3-2-0.4c-0.4,0-0.9-0.1-1.3-0.1
	c-1.4,0-2.9,0.1-4.4,0.4c-9.7,2.1-16,11.4-14.2,20.8c1.9,9.9,11.5,16.5,21.1,14.5c0.3-0.1,0.7-0.1,1-0.2s0.7-0.2,1-0.3
	c0.1,0,0.2-0.1,0.4-0.1c0.2-0.1,0.4-0.1,0.6-0.2c1.1-0.4,2.1-0.9,3-1.5c0.4-0.3,0.8-0.5,1.2-0.8C70.2,76.5,72.8,69.4,71.2,61.1z
	 M62.1,73.8c-3.3,3.5-8.5,4.4-12.8,2.4c-4.5-2.1-7-6.7-6.3-11.9c0.6-4.3,3.1-7.4,7.2-8.8c0.9-0.3,1.8-0.5,2.6-0.6
	c3.8-0.5,7.2,0.8,10,4.1c0,0,0,0.1,0.1,0.1c2.3,4.4,2.8,8,1.7,11C64,71.4,63.2,72.6,62.1,73.8z"/>
<path class="st5" d="M159.9,32.4c0-0.7,0-1.1,0.1-1.4c0.1-3-0.2-6.6,3.9-6.7c4.5-0.1,4.1,3.8,4.3,7.3c0,0.7,0,1.1-0.1,1.4
	c-0.1,3,0.2,6.6-3.9,6.7C159.7,39.8,160.1,35.9,159.9,32.4z"/>
<path class="st5" d="M179.9,32.4c0-0.7,0-1.1,0.1-1.4c0.1-3-0.2-6.6,3.9-6.7c4.5-0.1,4.1,3.8,4.3,7.3c0,0.7,0,1.1-0.1,1.4
	c-0.1,3,0.2,6.6-3.9,6.7C179.7,39.8,180.1,35.9,179.9,32.4z"/>
<path class="st5" d="M139.9,32.4c0-0.7,0-1.1,0.1-1.4c0.1-3-0.2-6.6,3.9-6.7c4.5-0.1,4.1,3.8,4.3,7.3c0,0.7,0,1.1-0.1,1.4
	c-0.1,3,0.2,6.6-3.9,6.7C139.7,39.8,140.1,35.9,139.9,32.4z"/>
<path class="st5" d="M119.9,32.4c0-0.7,0-1.1,0.1-1.4c0.1-3-0.2-6.6,3.9-6.7c4.5-0.1,4.1,3.8,4.3,7.3c0,0.7,0,1.1-0.1,1.4
	c-0.1,3,0.2,6.6-3.9,6.7C119.7,39.8,120.1,35.9,119.9,32.4z"/>
<path class="st5" d="M99.9,32.4c0-0.7,0-1.1,0.1-1.4c0.1-3-0.2-6.6,3.9-6.7c4.5-0.1,4.1,3.8,4.3,7.3c0,0.7,0,1.1-0.1,1.4
	c-0.1,3,0.2,6.6-3.9,6.7C99.7,39.8,100.1,35.9,99.9,32.4z"/>
<path class="st5" d="M79.9,32.4c0-0.7,0-1.1,0.1-1.4c0.1-3-0.2-6.6,3.9-6.7c4.5-0.1,4.1,3.8,4.3,7.3c0,0.7,0,1.1-0.1,1.4
	c-0.1,3,0.2,6.6-3.9,6.7C79.7,39.8,80.1,35.9,79.9,32.4z"/>
<path class="st5" d="M59.9,32.4c0-0.7,0-1.1,0.1-1.4c0.1-3-0.2-6.6,3.9-6.7c4.5-0.1,4.1,3.8,4.3,7.3c0,0.7,0,1.1-0.1,1.4
	c-0.1,3,0.2,6.6-3.9,6.7C59.7,39.8,60.1,35.9,59.9,32.4z"/>
<path class="st5" d="M39.9,32.4c0-0.7,0-1.1,0.1-1.4c0.1-3-0.2-6.6,3.9-6.7c4.5-0.1,4.1,3.8,4.3,7.3c0,0.7,0,1.1-0.1,1.4
	c-0.1,3,0.2,6.6-3.9,6.7C39.7,39.8,40.1,35.9,39.9,32.4z"/>
<path class="st5" d="M19.9,32.4c0-0.7,0-1.1,0.1-1.4c0.1-3-0.2-6.6,3.9-6.7c4.5-0.1,4.1,3.8,4.3,7.3c0,0.7,0,1.1-0.1,1.4
	c-0.1,3,0.2,6.6-3.9,6.7C19.7,39.8,20.1,35.9,19.9,32.4z"/>
<path class="st6" d="M110.6,117.8c-1.3,5.5-3.3,10.6-3.5,15.7c-0.5,12.1-0.2,24.3-0.2,36.5c0,1.8,0,3.6,0,5.7c-6.5,0-12.3,0-18.6,0
	c0-26.4,0-52.6,0-79.2c5.5,0,11.1,0,17.5,0c0,2.1-0.4,4.3,0.1,6.3c0.5,1.8,1.7,4.1,3.2,4.8c1.1,0.5,3.8-1,4.8-2.3
	c6.4-9.3,15.4-12.1,26.1-11.2c12,1.1,19.5,7.2,21.8,19.1c1.1,5.7,1.4,11.6,1.5,17.4c0.2,13.5,0.2,27,0.2,40.5c0,1.5-0.2,2.9-0.3,4.7
	c-6,0-11.7,0-18.2,0c0-2.3,0-4.4,0-6.5c-0.2-14.5-0.2-28.9-0.9-43.4c-0.3-7.5-3.8-13.5-11.6-15.7
	C123.7,107.7,116.1,110.4,110.6,117.8z"/>
<path class="st7" d="M44.6,96.6c6.5-0.3,12.6-0.3,19-0.3c0,26.5,0,52.8,0,79.5c-6.5,0-12.7,0-18.8,0c-0.3-0.5-0.6-0.7-0.6-1
	C44.2,148.8,44.2,122.8,44.6,96.6z"/>
<path class="st6" d="M62.9,59.3c3.1,6,2.8,10.7-0.9,14.5c-3.3,3.5-8.5,4.4-12.8,2.4c-4.5-2.1-7-6.7-6.3-11.9
	c0.6-4.3,3.1-7.4,7.2-8.8C55,53.9,59.3,55,62.9,59.3z"/>
</svg>
