<svg width="96" height="96" viewBox="0 0 96 96" fill="none" xmlns="http://www.w3.org/2000/svg">
<g clip-path="url(#clip0_17_638)">
<path d="M96.1875 36.6621C96.0682 36.8053 95.8675 36.8356 95.8418 36.9196C95.4583 38.1704 94.6615 39.1257 93.7735 40.0515C93.4544 40.3843 93.2124 40.9474 93.2113 41.4061C93.1814 53.8108 93.1819 66.2156 93.1914 78.6204C93.1936 81.5669 90.5806 84.194 87.5906 84.1929C61.3124 84.1833 35.0342 84.1845 8.75598 84.1913C5.80415 84.1921 3.17888 81.5773 3.18209 78.5956C3.19536 66.2533 3.18332 53.9109 3.19939 41.5686C3.20026 40.9048 2.99679 40.4448 2.56914 39.922C1.72639 38.8916 1.04225 37.7316 0.240002 36.6876C0.187499 30.4961 0.187499 24.2422 0.23303 17.9638C0.375862 17.8249 0.491587 17.7214 0.567659 17.5942C1.48624 16.0586 2.72966 15.1646 4.62418 15.1725C13.0291 15.2074 21.4342 15.1814 29.8392 15.1996C30.4969 15.201 30.8875 15.0178 31.2598 14.4339C32.6768 12.212 34.1343 10.0134 35.6543 7.86096C36.3471 6.87986 37.3715 6.20883 38.6117 6.20257C44.9544 6.17053 51.2974 6.16567 57.64 6.20631C58.9204 6.21452 60.0138 6.83839 60.7511 7.9099C62.2279 10.0563 63.6907 12.2139 65.0923 14.4097C65.4842 15.0237 65.9051 15.2029 66.5961 15.2012C75.0323 15.1803 83.4687 15.2006 91.9049 15.177C93.6484 15.1721 94.7941 16.0445 95.7026 17.4038C95.8154 17.5727 96.0235 17.6778 96.1875 17.8125C96.1875 24.0664 96.1875 30.3203 96.1875 36.6621ZM4.70226 24.1646C4.69538 24.6332 4.79423 25.1366 4.65464 25.5617C4.48321 26.0837 4.21406 26.6738 3.80015 26.9885C3.36869 27.3166 3.1783 27.6012 3.18238 28.1182C3.19819 30.1181 3.18052 32.1182 3.19019 34.1182C3.20242 36.6484 4.52682 38.2792 7.01421 38.8418C13.7464 40.3646 20.4786 41.887 27.2116 43.4058C31.8698 44.4565 36.5319 45.4901 41.1855 46.5609C41.8457 46.7128 42.1229 46.568 42.3208 45.903C42.7462 44.4737 43.7647 43.7183 45.2244 43.698C47.224 43.6702 49.2249 43.6628 51.2241 43.7026C52.5802 43.7295 53.6026 44.4191 53.9758 45.7142C54.2568 46.6892 54.7176 46.6985 55.5398 46.5074C60.2228 45.4189 64.9172 44.3791 69.6069 43.3194C76.2485 41.8186 82.8913 40.3228 89.5297 38.808C91.7161 38.3092 93.1258 36.6602 93.1726 34.507C93.2194 32.3517 93.2114 30.194 93.157 28.0392C93.1484 27.6985 92.7649 27.3691 92.5601 27.0312C92.2687 26.5506 91.8816 26.0976 91.7232 25.5758C91.5745 25.0863 91.67 24.5228 91.6749 23.8249C91.7317 22.9453 91.4398 21.8729 92.4835 21.417C93.5452 20.9532 93.1902 20.1348 93.1214 19.4334C93.0456 18.6598 92.4681 18.2559 91.6911 18.2011C91.3178 18.1747 90.9415 18.188 90.5666 18.188C62.3205 18.1876 34.0743 18.1876 5.82813 18.1877C5.51568 18.1877 5.20322 18.1901 4.89077 18.1903C4.08584 18.1909 3.42043 18.5044 3.27855 19.3234C3.14558 20.0909 2.83255 20.9681 3.94742 21.4677C4.30123 21.6262 4.51879 22.2392 4.65521 22.6878C4.77794 23.0914 4.70409 23.5548 4.70226 24.1646ZM6.19987 75.7244C6.19719 76.5365 6.17049 77.3493 6.19678 78.1605C6.25388 79.9223 7.47618 81.1201 9.24981 81.1829C9.46823 81.1906 9.68708 81.1871 9.90573 81.1871C35.4262 81.1873 60.9466 81.1873 86.467 81.1871C86.6857 81.1871 86.9045 81.1906 87.1229 81.1829C88.9526 81.1184 90.1399 79.9224 90.1804 78.0752C90.1988 77.2326 90.1698 76.389 90.1749 75.3725C90.179 64.784 90.1832 54.1954 90.1874 43.6069C90.1882 41.5797 90.3004 41.7254 88.3812 42.1615C77.2985 44.6797 66.211 47.1769 55.1191 49.6542C54.3775 49.8199 54.162 50.1683 54.1778 50.8739C54.212 52.4036 54.2003 53.9348 54.1831 55.4651C54.1605 57.4645 52.9582 58.6643 50.9521 58.6828C49.1094 58.6998 47.2663 58.6997 45.4236 58.6829C43.4197 58.6646 42.2142 57.462 42.1919 55.4653C42.1748 53.9349 42.1511 52.4031 42.2014 50.8743C42.2273 50.0871 41.9201 49.7363 41.1678 49.624C40.523 49.5277 39.8917 49.3416 39.2539 49.1977C28.564 46.7865 17.8729 44.3813 7.18692 41.953C6.41906 41.7785 6.17002 41.9807 6.17959 42.7506C6.20638 44.9055 6.18614 47.0609 6.188 49.2161C6.19557 57.9928 6.20446 66.7696 6.19987 75.7244ZM50.3438 9.18741C47.002 9.18742 43.6602 9.19752 40.3185 9.18178C39.1932 9.17648 38.3224 9.49947 37.7094 10.5421C36.9345 11.8602 36.0344 13.1046 35.1913 14.3827C35.0395 14.6127 34.9022 14.8522 34.7229 15.1448C43.7705 15.1448 52.6569 15.1448 61.6307 15.1448C61.5234 14.9162 61.467 14.7427 61.3695 14.5968C60.4671 13.2465 59.5023 11.9342 58.6685 10.5432C58.0476 9.50735 57.1857 9.16954 56.0591 9.18194C54.2167 9.20221 52.3739 9.18742 50.3438 9.18741ZM51.1874 48.1122C51.1874 47.6602 51.1874 47.2081 51.1874 46.7641C49.1034 46.7641 47.1871 46.7641 45.2554 46.7641C45.2554 49.7559 45.2554 52.6708 45.2554 55.6266C47.2393 55.6266 49.1552 55.6266 51.1874 55.6266C51.1874 53.1434 51.1874 50.7191 51.1874 48.1122Z" fill="#8D6C9F"/>
<path d="M6.21286 75.5463C6.20446 66.7696 6.19556 57.9929 6.188 49.2161C6.18614 47.0609 6.20637 44.9055 6.17959 42.7506C6.17002 41.9807 6.41906 41.7785 7.18691 41.953C17.8728 44.3813 28.564 46.7865 39.2539 49.1977C39.8917 49.3416 40.523 49.5278 41.1678 49.624C41.9201 49.7363 42.2273 50.0871 42.2014 50.8743C42.1511 52.4031 42.1748 53.935 42.1919 55.4653C42.2142 57.462 43.4197 58.6646 45.4236 58.6829C47.2663 58.6997 49.1094 58.6998 50.9521 58.6828C52.9582 58.6643 54.1605 57.4645 54.1831 55.4651C54.2003 53.9348 54.212 52.4036 54.1778 50.8739C54.162 50.1684 54.3775 49.8199 55.1191 49.6542C66.211 47.1769 77.2985 44.6797 88.3812 42.1615C90.3003 41.7254 90.1882 41.5797 90.1874 43.6069C90.1832 54.1955 90.179 64.784 90.1186 75.4255C89.1123 74.9422 88.1622 74.4059 87.203 73.7979C86.9313 72.5485 86.5395 72.203 85.3579 72.1925C83.5904 72.1768 81.8226 72.1785 80.0551 72.1915C78.861 72.2003 78.495 72.5031 78.0742 73.6823C77.0639 73.6827 76.1392 73.682 75.2 73.6137C74.9646 72.4931 74.2473 72.179 73.2554 72.1826C69.3225 72.1965 65.3895 72.1876 61.4566 72.1875C44.7571 72.1875 28.0576 72.187 11.3581 72.1886C9.7868 72.1888 9.39612 72.4943 9.09849 73.8884C8.09393 74.4536 7.15339 75 6.21286 75.5463Z" fill="#CDA1A7"/>
<path d="M91.658 23.9919C91.67 24.5228 91.5745 25.0864 91.7232 25.5758C91.8816 26.0976 92.2687 26.5506 92.5601 27.0312C92.7649 27.3691 93.1484 27.6986 93.157 28.0392C93.2114 30.1941 93.2194 32.3518 93.1725 34.507C93.1258 36.6603 91.7161 38.3092 89.5297 38.808C82.8913 40.3228 76.2485 41.8186 69.6069 43.3194C64.9172 44.3791 60.2228 45.4189 55.5398 46.5074C54.7175 46.6985 54.2568 46.6892 53.9758 45.7142C53.6026 44.4191 52.5802 43.7295 51.2241 43.7026C49.2249 43.6628 47.224 43.6702 45.2244 43.698C43.7647 43.7184 42.7462 44.4737 42.3208 45.903C42.1229 46.568 41.8456 46.7128 41.1855 46.5609C36.5319 45.4901 31.8698 44.4566 27.2116 43.4058C20.4786 41.887 13.7463 40.3646 7.01421 38.8418C4.52682 38.2792 3.20242 36.6484 3.19018 34.1182C3.18051 32.1182 3.19819 30.1181 3.18238 28.1183C3.17829 27.6012 3.36868 27.3166 3.80014 26.9885C4.21406 26.6738 4.4832 26.0837 4.65464 25.5617C4.79423 25.1366 4.69537 24.6332 4.78557 24.0894C6.29836 24.0691 7.72783 24.1241 9.16465 24.2647C9.18173 24.8132 9.16363 25.2787 9.20714 25.7383C9.29008 26.6142 9.92232 27.1919 10.7271 27.1696C11.4981 27.1481 12.086 26.5905 12.166 25.7514C12.2157 25.2304 12.2026 24.7034 12.3037 24.1807C13.8122 24.1812 15.2347 24.1801 16.6647 24.2647C16.6817 24.8132 16.6636 25.2787 16.7071 25.7383C16.7901 26.6142 17.4223 27.1919 18.2271 27.1696C18.9981 27.1481 19.586 26.5905 19.666 25.7514C19.7157 25.2304 19.7026 24.7034 19.8037 24.1807C21.3122 24.1812 22.7347 24.1801 24.1647 24.2647C24.1817 24.8132 24.1636 25.2787 24.2071 25.7383C24.2901 26.6142 24.9223 27.1919 25.7271 27.1696C26.4982 27.1481 27.086 26.5905 27.166 25.7514C27.2157 25.2304 27.2026 24.7034 27.3037 24.1807C28.8122 24.1812 30.2347 24.1801 31.6647 24.2647C31.6817 24.8132 31.6636 25.2787 31.7072 25.7383C31.7901 26.6142 32.4223 27.1919 33.2271 27.1696C33.9982 27.1481 34.586 26.5905 34.666 25.7514C34.7157 25.2304 34.7026 24.7034 34.8037 24.1807C36.3122 24.1812 37.7347 24.1801 39.1647 24.2647C39.1817 24.8132 39.1636 25.2787 39.2071 25.7383C39.2901 26.6142 39.9223 27.1919 40.7271 27.1696C41.4982 27.1481 42.086 26.5905 42.166 25.7514C42.2157 25.2304 42.2026 24.7034 42.3037 24.1807C43.8122 24.1812 45.2347 24.1801 46.6647 24.2647C46.6817 24.8132 46.6636 25.2787 46.7071 25.7383C46.7901 26.6142 47.4223 27.1919 48.2271 27.1696C48.9982 27.1481 49.5859 26.5905 49.666 25.7514C49.7157 25.2304 49.7026 24.7034 49.8037 24.1807C51.3122 24.1812 52.7347 24.1801 54.1647 24.2647C54.1817 24.8132 54.1636 25.2787 54.2071 25.7383C54.2901 26.6142 54.9223 27.1919 55.7271 27.1696C56.4981 27.1481 57.0859 26.5905 57.166 25.7514C57.2157 25.2304 57.2026 24.7034 57.3037 24.1807C58.8122 24.1812 60.2347 24.1801 61.6647 24.2647C61.6817 24.8132 61.6636 25.2787 61.7071 25.7383C61.7901 26.6142 62.4223 27.1919 63.2271 27.1696C63.9981 27.1481 64.5859 26.5905 64.666 25.7514C64.7157 25.2304 64.7026 24.7034 64.8037 24.1807C66.3122 24.1812 67.7347 24.1801 69.1647 24.2647C69.1817 24.8132 69.1636 25.2787 69.2071 25.7383C69.2901 26.6142 69.9223 27.1919 70.7271 27.1696C71.4981 27.1481 72.0859 26.5905 72.166 25.7514C72.2157 25.2304 72.2026 24.7034 72.3037 24.1807C73.8122 24.1812 75.2347 24.1801 76.6647 24.2647C76.6817 24.8132 76.6636 25.2787 76.7071 25.7383C76.7901 26.6142 77.4223 27.1919 78.2271 27.1696C78.9981 27.1481 79.586 26.5905 79.666 25.7514C79.7157 25.2304 79.7026 24.7034 79.8037 24.1807C81.3122 24.1812 82.7347 24.1801 84.1647 24.2647C84.1817 24.8132 84.1636 25.2787 84.2071 25.7383C84.2901 26.6142 84.9223 27.1919 85.7271 27.1696C86.4982 27.1481 87.0859 26.5905 87.166 25.7514C87.2157 25.2304 87.2026 24.7034 87.3036 24.1807C88.8124 24.1188 90.2352 24.0553 91.658 23.9919Z" fill="#CDA1A7"/>
<path d="M75.2146 73.6813C76.1392 73.682 77.0639 73.6827 78.0879 73.7511C78.3881 74.8141 79.0414 75.1943 80.0064 75.189C81.7803 75.1792 83.5545 75.1715 85.3282 75.1927C86.295 75.2042 86.9412 74.8193 87.2121 73.8696C88.1622 74.4059 89.1123 74.9422 90.1124 75.5121C90.1698 76.389 90.1988 77.2327 90.1804 78.0753C90.1399 79.9225 88.9526 81.1184 87.1229 81.183C86.9045 81.1907 86.6857 81.1871 86.467 81.1871C60.9466 81.1873 35.4262 81.1873 9.90573 81.1871C9.68707 81.1871 9.46822 81.1907 9.2498 81.1829C7.47617 81.1202 6.25387 79.9223 6.19677 78.1605C6.17048 77.3494 6.19719 76.5365 6.20636 75.6354C7.1534 75 8.09393 74.4536 9.12103 73.9526C9.53702 75.0289 10.3352 75.1956 11.2854 75.1942C19.5929 75.1822 27.9004 75.1875 36.2079 75.1875C48.4817 75.1875 60.7556 75.1882 73.0295 75.1862C74.5227 75.186 74.861 74.9459 75.2146 73.6813Z" fill="#C4939C"/>
<path d="M24.1573 24.1791C22.7347 24.1801 21.3122 24.1812 19.7953 24.0963C19.6917 23.5434 19.713 23.0734 19.6664 22.6103C19.5822 21.7734 18.9686 21.207 18.1952 21.2021C17.4227 21.1972 16.7941 21.7626 16.7099 22.5931C16.6567 23.1181 16.6725 23.6502 16.6573 24.1791C15.2347 24.1801 13.8122 24.1812 12.2953 24.0963C12.1917 23.5434 12.213 23.0734 12.1664 22.6103C12.0822 21.7734 11.4686 21.207 10.6952 21.2021C9.92269 21.1972 9.2941 21.7626 9.2099 22.5931C9.15667 23.1181 9.17247 23.6502 9.15731 24.1791C7.72784 24.1241 6.29837 24.0691 4.79293 24.003C4.70409 23.5549 4.77795 23.0914 4.65521 22.6878C4.5188 22.2392 4.30123 21.6262 3.94743 21.4677C2.83256 20.9681 3.14559 20.0909 3.27856 19.3234C3.42044 18.5044 4.08585 18.1909 4.89078 18.1903C5.20323 18.1901 5.51568 18.1877 5.82814 18.1877C34.0743 18.1876 62.3205 18.1876 90.5666 18.188C90.9415 18.188 91.3178 18.1747 91.6911 18.2011C92.4681 18.2559 93.0456 18.6598 93.1214 19.4334C93.1902 20.1348 93.5452 20.9532 92.4835 21.417C91.4398 21.8729 91.7317 22.9453 91.6665 23.9084C90.2352 24.0553 88.8124 24.1188 87.2953 24.0963C87.1917 23.5434 87.213 23.0734 87.1664 22.6103C87.0822 21.7734 86.4686 21.207 85.6952 21.2021C84.9227 21.1972 84.2941 21.7626 84.2099 22.5931C84.1567 23.1182 84.1725 23.6502 84.1573 24.1791C82.7347 24.1801 81.3122 24.1812 79.7953 24.0963C79.6917 23.5434 79.713 23.0734 79.6664 22.6103C79.5822 21.7734 78.9686 21.207 78.1952 21.2021C77.4227 21.1972 76.7941 21.7626 76.7099 22.5931C76.6567 23.1182 76.6725 23.6502 76.6573 24.1791C75.2347 24.1801 73.8122 24.1812 72.2953 24.0963C72.1917 23.5434 72.213 23.0734 72.1664 22.6103C72.0822 21.7734 71.4686 21.207 70.6952 21.2021C69.9227 21.1972 69.2941 21.7626 69.2099 22.5931C69.1567 23.1182 69.1725 23.6502 69.1573 24.1791C67.7347 24.1801 66.3122 24.1812 64.7953 24.0963C64.6917 23.5434 64.713 23.0734 64.6664 22.6103C64.5822 21.7734 63.9686 21.207 63.1952 21.2021C62.4227 21.1972 61.7941 21.7626 61.7099 22.5931C61.6567 23.1182 61.6725 23.6502 61.6573 24.1791C60.2347 24.1801 58.8122 24.1812 57.2953 24.0963C57.1917 23.5434 57.213 23.0734 57.1664 22.6103C57.0822 21.7734 56.4686 21.207 55.6952 21.2021C54.9227 21.1972 54.2941 21.7626 54.2099 22.5931C54.1567 23.1182 54.1725 23.6502 54.1573 24.1791C52.7347 24.1801 51.3122 24.1812 49.7953 24.0963C49.6917 23.5434 49.713 23.0734 49.6664 22.6103C49.5822 21.7734 48.9686 21.207 48.1952 21.2021C47.4227 21.1972 46.7941 21.7626 46.7099 22.5931C46.6567 23.1181 46.6725 23.6502 46.6573 24.1791C45.2347 24.1801 43.8122 24.1812 42.2953 24.0963C42.1917 23.5434 42.213 23.0734 42.1664 22.6103C42.0822 21.7734 41.4686 21.207 40.6952 21.2021C39.9227 21.1972 39.2941 21.7626 39.2099 22.5931C39.1567 23.1181 39.1725 23.6502 39.1573 24.1791C37.7347 24.1801 36.3122 24.1812 34.7953 24.0963C34.6917 23.5434 34.713 23.0734 34.6664 22.6103C34.5822 21.7734 33.9686 21.207 33.1952 21.2021C32.4227 21.1972 31.7941 21.7626 31.7099 22.5931C31.6567 23.1181 31.6725 23.6502 31.6573 24.1791C30.2347 24.1801 28.8122 24.1812 27.2953 24.0963C27.1917 23.5434 27.213 23.0734 27.1664 22.6103C27.0822 21.7734 26.4686 21.207 25.6952 21.2021C24.9227 21.1972 24.2941 21.7626 24.2099 22.5931C24.1567 23.1181 24.1725 23.6502 24.1573 24.1791Z" fill="#DBB2BA"/>
<path d="M51.1874 48.2035C51.1874 50.7191 51.1874 53.1434 51.1874 55.6266C49.1552 55.6266 47.2393 55.6266 45.2554 55.6266C45.2554 52.6708 45.2554 49.7559 45.2554 46.7641C47.1871 46.7641 49.1034 46.7641 51.1874 46.7641C51.1874 47.2081 51.1874 47.6602 51.1874 48.2035Z" fill="#F9E3AE"/>
<path d="M75.2 73.6137C74.861 74.9459 74.5227 75.186 73.0295 75.1862C60.7556 75.1882 48.4817 75.1875 36.2079 75.1875C27.9004 75.1875 19.5928 75.1821 11.2854 75.1942C10.3352 75.1956 9.53701 75.0289 9.18506 73.9338C9.39612 72.4943 9.7868 72.1888 11.3581 72.1886C28.0576 72.187 44.7571 72.1875 61.4565 72.1875C65.3895 72.1876 69.3225 72.1965 73.2554 72.1826C74.2473 72.179 74.9646 72.4931 75.2 73.6137Z" fill="#8D6C9F"/>
<path d="M87.203 73.7979C86.9412 74.8193 86.295 75.2042 85.3282 75.1926C83.5545 75.1714 81.7803 75.1792 80.0064 75.189C79.0413 75.1943 78.3881 74.8141 78.1736 73.7499C78.495 72.5031 78.861 72.2002 80.0551 72.1915C81.8226 72.1785 83.5904 72.1768 85.3579 72.1925C86.5395 72.203 86.9313 72.5485 87.203 73.7979Z" fill="#8E6D9F"/>
<path d="M31.6647 24.2647C31.6725 23.6502 31.6567 23.1181 31.7099 22.5931C31.7941 21.7626 32.4227 21.1972 33.1952 21.2021C33.9686 21.207 34.5822 21.7734 34.6664 22.6103C34.713 23.0734 34.6917 23.5434 34.7093 24.0947C34.7026 24.7034 34.7157 25.2304 34.666 25.7514C34.586 26.5905 33.9982 27.1481 33.2271 27.1695C32.4223 27.1919 31.7901 26.6142 31.7072 25.7383C31.6636 25.2787 31.6817 24.8132 31.6647 24.2647Z" fill="#8E6D9F"/>
<path d="M39.1647 24.2647C39.1725 23.6502 39.1567 23.1181 39.2099 22.5931C39.2941 21.7626 39.9227 21.1972 40.6952 21.2021C41.4686 21.207 42.0822 21.7734 42.1664 22.6103C42.213 23.0734 42.1917 23.5434 42.2093 24.0947C42.2026 24.7034 42.2157 25.2304 42.166 25.7514C42.086 26.5905 41.4982 27.1481 40.7271 27.1695C39.9223 27.1919 39.2901 26.6142 39.2071 25.7383C39.1636 25.2787 39.1817 24.8132 39.1647 24.2647Z" fill="#8E6D9F"/>
<path d="M46.6647 24.2647C46.6725 23.6502 46.6567 23.1181 46.7099 22.5931C46.7941 21.7626 47.4227 21.1972 48.1952 21.2021C48.9686 21.207 49.5821 21.7734 49.6664 22.6103C49.713 23.0734 49.6917 23.5434 49.7093 24.0947C49.7026 24.7034 49.7157 25.2304 49.666 25.7514C49.5859 26.5905 48.9982 27.1481 48.2271 27.1695C47.4223 27.1919 46.7901 26.6142 46.7071 25.7383C46.6636 25.2787 46.6817 24.8132 46.6647 24.2647Z" fill="#8E6D9F"/>
<path d="M54.1647 24.2647C54.1725 23.6502 54.1567 23.1181 54.2099 22.5931C54.2941 21.7626 54.9227 21.1972 55.6952 21.2021C56.4686 21.207 57.0822 21.7734 57.1664 22.6103C57.213 23.0734 57.1917 23.5434 57.2093 24.0947C57.2026 24.7034 57.2157 25.2304 57.166 25.7514C57.0859 26.5905 56.4982 27.1481 55.7271 27.1695C54.9223 27.1919 54.2901 26.6141 54.2071 25.7383C54.1636 25.2786 54.1817 24.8132 54.1647 24.2647Z" fill="#8E6D9F"/>
<path d="M61.6646 24.2647C61.6724 23.6502 61.6566 23.1181 61.7099 22.5931C61.7941 21.7626 62.4227 21.1972 63.1952 21.2021C63.9686 21.207 64.5821 21.7734 64.6664 22.6103C64.713 23.0734 64.6917 23.5434 64.7093 24.0947C64.7026 24.7034 64.7157 25.2304 64.666 25.7514C64.5859 26.5905 63.9981 27.1481 63.2271 27.1695C62.4223 27.1919 61.7901 26.6141 61.7071 25.7383C61.6636 25.2786 61.6817 24.8132 61.6646 24.2647Z" fill="#8E6D9F"/>
<path d="M69.1647 24.2647C69.1725 23.6502 69.1567 23.1182 69.2099 22.5931C69.2941 21.7626 69.9227 21.1972 70.6952 21.2021C71.4686 21.207 72.0822 21.7734 72.1664 22.6103C72.213 23.0734 72.1917 23.5434 72.2093 24.0947C72.2026 24.7034 72.2157 25.2304 72.166 25.7514C72.086 26.5905 71.4982 27.1481 70.7271 27.1696C69.9223 27.1919 69.2901 26.6141 69.2071 25.7383C69.1636 25.2787 69.1817 24.8132 69.1647 24.2647Z" fill="#8E6D9F"/>
<path d="M76.6647 24.2647C76.6725 23.6502 76.6567 23.1181 76.7099 22.5931C76.7941 21.7626 77.4227 21.1972 78.1952 21.2021C78.9686 21.207 79.5822 21.7734 79.6664 22.6103C79.713 23.0734 79.6917 23.5434 79.7093 24.0947C79.7026 24.7034 79.7157 25.2304 79.666 25.7514C79.586 26.5905 78.9982 27.1481 78.2271 27.1695C77.4223 27.1919 76.7901 26.6141 76.7071 25.7383C76.6636 25.2786 76.6817 24.8132 76.6647 24.2647Z" fill="#8E6D9F"/>
<path d="M84.1647 24.2647C84.1725 23.6502 84.1567 23.1182 84.2099 22.5931C84.2941 21.7626 84.9227 21.1972 85.6952 21.2021C86.4686 21.207 87.0822 21.7734 87.1664 22.6103C87.213 23.0734 87.1917 23.5434 87.2093 24.0947C87.2026 24.7034 87.2157 25.2304 87.166 25.7514C87.086 26.5905 86.4982 27.1481 85.7271 27.1695C84.9223 27.1919 84.2901 26.6141 84.2071 25.7383C84.1636 25.2787 84.1817 24.8132 84.1647 24.2647Z" fill="#8E6D9F"/>
<path d="M24.1647 24.2647C24.1725 23.6502 24.1567 23.1181 24.2099 22.5931C24.2941 21.7626 24.9227 21.1972 25.6952 21.2021C26.4686 21.207 27.0822 21.7734 27.1664 22.6103C27.213 23.0734 27.1917 23.5434 27.2093 24.0947C27.2026 24.7034 27.2157 25.2304 27.166 25.7514C27.086 26.5905 26.4982 27.1481 25.7271 27.1696C24.9223 27.1919 24.2901 26.6142 24.2072 25.7383C24.1636 25.2787 24.1817 24.8132 24.1647 24.2647Z" fill="#8E6D9F"/>
<path d="M16.6647 24.2647C16.6725 23.6502 16.6567 23.1182 16.7099 22.5931C16.7941 21.7626 17.4227 21.1972 18.1952 21.2021C18.9686 21.207 19.5822 21.7734 19.6664 22.6103C19.713 23.0734 19.6917 23.5434 19.7093 24.0947C19.7026 24.7034 19.7157 25.2304 19.666 25.7514C19.586 26.5905 18.9981 27.1481 18.2271 27.1696C17.4223 27.1919 16.7901 26.6142 16.7072 25.7383C16.6636 25.2787 16.6817 24.8132 16.6647 24.2647Z" fill="#8E6D9F"/>
<path d="M9.16466 24.2647C9.17246 23.6502 9.15666 23.1181 9.20989 22.5931C9.29409 21.7626 9.92268 21.1972 10.6952 21.2021C11.4686 21.207 12.0822 21.7734 12.1664 22.6103C12.213 23.0734 12.1917 23.5434 12.2093 24.0947C12.2026 24.7034 12.2157 25.2304 12.166 25.7514C12.086 26.5905 11.4981 27.1481 10.7271 27.1696C9.92232 27.1919 9.29008 26.6142 9.20715 25.7383C9.16363 25.2787 9.18174 24.8132 9.16466 24.2647Z" fill="#8E6D9F"/>
</g>
<defs>
<clipPath id="clip0_17_638">
<rect width="96" height="96" fill="white"/>
</clipPath>
</defs>
</svg>
