<svg width="21" height="20" viewBox="0 0 21 20" fill="none" xmlns="http://www.w3.org/2000/svg">
<g clip-path="url(#clip0_896_103)">
<path d="M19.742 17.1026C19.742 17.6437 19.527 18.1626 19.1445 18.5451C18.7619 18.9277 18.243 19.1426 17.702 19.1426H3.49435C2.9533 19.1426 2.43442 18.9277 2.05185 18.5451C1.66927 18.1626 1.45435 17.6437 1.45435 17.1026V2.89693C1.45435 2.35589 1.66927 1.83701 2.05185 1.45444C2.43442 1.07186 2.9533 0.856934 3.49435 0.856934H17.702C18.243 0.856934 18.7619 1.07186 19.1445 1.45444C19.527 1.83701 19.742 2.35589 19.742 2.89693V17.1026ZM9.25244 9.76074C10.3115 9.25503 10.482 7.90265 10.0848 6.94836C9.67815 5.97122 8.66863 5.62931 7.66196 5.62265C6.79847 5.61693 5.89022 5.6163 4.9372 5.62074C4.93089 5.62074 4.92483 5.62325 4.92037 5.62772C4.9159 5.63218 4.91339 5.63824 4.91339 5.64455V14.2122C4.91339 14.2178 4.9145 14.2234 4.91666 14.2286C4.91881 14.2338 4.92197 14.2385 4.92595 14.2425C4.92993 14.2465 4.93465 14.2496 4.93985 14.2518C4.94505 14.2539 4.95062 14.255 4.95625 14.255C5.86355 14.2569 6.80038 14.2563 7.76673 14.2531C8.98673 14.2503 10.1229 13.8141 10.361 12.4979C10.4112 12.2198 10.4245 11.8976 10.401 11.5312C10.3458 10.6712 9.9772 10.1722 9.25339 9.84836C9.1899 9.81979 9.18958 9.79058 9.25244 9.76074ZM15.7715 5.64646C15.7715 5.63913 15.7686 5.63211 15.7634 5.62693C15.7582 5.62175 15.7512 5.61884 15.7439 5.61884H12.0543C12.047 5.61884 12.04 5.62175 12.0348 5.62693C12.0296 5.63211 12.0267 5.63913 12.0267 5.64646V6.61027C12.0267 6.61389 12.0274 6.61749 12.0288 6.62084C12.0302 6.62419 12.0323 6.62723 12.0348 6.6298C12.0374 6.63236 12.0404 6.6344 12.0438 6.63578C12.0471 6.63717 12.0507 6.63789 12.0543 6.63789H15.7439C15.7475 6.63789 15.7511 6.63717 15.7544 6.63578C15.7578 6.6344 15.7608 6.63236 15.7634 6.6298C15.766 6.62723 15.768 6.62419 15.7694 6.62084C15.7708 6.61749 15.7715 6.61389 15.7715 6.61027V5.64646ZM13.2934 11.6188H16.6448C16.6559 11.6188 16.6665 11.6146 16.6745 11.607C16.6825 11.5993 16.6872 11.5889 16.6877 11.5779C16.7515 9.9436 16.5724 7.91884 14.4629 7.78551C13.1343 7.70074 12.1686 8.3855 11.8429 9.73122C11.6648 10.4636 11.6601 11.4617 11.7801 12.2131C11.9315 13.1655 12.4963 13.9474 13.4343 14.2246C14.6331 14.5788 15.6769 14.3395 16.5658 13.5065C16.5766 13.4965 16.5834 13.4829 16.5848 13.4681C16.5862 13.4534 16.5821 13.4386 16.5734 13.4265L15.9058 12.4979C15.8772 12.4579 15.8464 12.456 15.8134 12.4922C15.4458 12.8979 14.8991 13.0769 14.3439 13.0407C13.5591 12.9884 13.2429 12.4007 13.2334 11.6788C13.2328 11.6388 13.2528 11.6188 13.2934 11.6188Z" fill="#C58B79"/>
<path d="M6.62857 7.09313C6.62857 7.08151 6.63318 7.07036 6.6414 7.06215C6.64961 7.05393 6.66076 7.04932 6.67237 7.04932L7.66857 7.05122C7.78638 7.05147 7.90299 7.07495 8.01174 7.12031C8.12049 7.16568 8.21925 7.23204 8.30238 7.31561C8.38551 7.39919 8.45139 7.49833 8.49624 7.60739C8.5411 7.71645 8.56405 7.83328 8.5638 7.95122V8.28265C8.56355 8.40059 8.5401 8.51732 8.49478 8.62619C8.44947 8.73506 8.38317 8.83392 8.29969 8.91714C8.21621 9.00036 8.11717 9.0663 8.00822 9.11121C7.89928 9.15611 7.78257 9.17909 7.66476 9.17884L6.66857 9.17694C6.65695 9.17694 6.6458 9.17232 6.63759 9.1641C6.62937 9.15589 6.62476 9.14475 6.62476 9.13313L6.62857 7.09313Z" fill="#C58B79"/>
<path d="M13.1905 10.4077C13.1871 10.4077 13.1838 10.407 13.1807 10.4057C13.1775 10.4044 13.1747 10.4025 13.1723 10.4001C13.1699 10.3978 13.168 10.3949 13.1668 10.3918C13.1655 10.3887 13.1648 10.3853 13.1648 10.382L13.1657 10.042C13.1666 9.78595 13.2526 9.54072 13.4048 9.36016C13.5569 9.17961 13.7628 9.07852 13.9772 9.0791H14.0724C14.1786 9.07939 14.2838 9.10468 14.3817 9.15352C14.4797 9.20236 14.5687 9.2738 14.6435 9.36375C14.7183 9.45369 14.7776 9.56039 14.8178 9.67774C14.8581 9.7951 14.8786 9.9208 14.8781 10.0477L14.8772 10.3877C14.8772 10.3911 14.8765 10.3944 14.8752 10.3975C14.8739 10.4006 14.872 10.4035 14.8696 10.4059C14.8673 10.4082 14.8644 10.4101 14.8613 10.4114C14.8582 10.4127 14.8548 10.4134 14.8515 10.4134L13.1905 10.4077Z" fill="#C58B79"/>
<path d="M8.62959 12.0516C8.55245 12.5554 8.22959 12.8564 7.7353 12.8573C7.37023 12.858 7.01626 12.8576 6.6734 12.8564C6.66128 12.8564 6.64965 12.8515 6.64107 12.8427C6.6325 12.834 6.62769 12.8221 6.62769 12.8097V10.5468C6.62768 10.5411 6.62882 10.5355 6.63104 10.5302C6.63325 10.525 6.63649 10.5202 6.64057 10.5162C6.64465 10.5122 6.64949 10.5091 6.6548 10.507C6.66011 10.5049 6.66579 10.5039 6.67149 10.504C7.00229 10.5103 7.33721 10.5094 7.67626 10.5011C8.75149 10.4754 8.75626 11.2221 8.62959 12.0516Z" fill="#C58B79"/>
</g>
<defs>
<clipPath id="clip0_896_103">
<rect width="19.7143" height="20" fill="white" transform="translate(0.693359)"/>
</clipPath>
</defs>
</svg>
