<svg width="40" height="41" viewBox="0 0 40 41" fill="none" xmlns="http://www.w3.org/2000/svg">
<g clip-path="url(#clip0_896_2105)">
<path d="M38.4842 34.5383C38.4842 35.6204 38.0543 36.6582 37.2892 37.4233C36.524 38.1884 35.4863 38.6183 34.4042 38.6183H5.98894C4.90685 38.6183 3.86909 38.1884 3.10394 37.4233C2.33879 36.6582 1.90894 35.6204 1.90894 34.5383V6.12687C1.90894 5.04479 2.33879 4.00703 3.10394 3.24188C3.86909 2.47673 4.90685 2.04688 5.98894 2.04688H34.4042C35.4863 2.04688 36.524 2.47673 37.2892 3.24188C38.0543 4.00703 38.4842 5.04479 38.4842 6.12687V34.5383ZM17.5051 19.8545C19.6232 18.8431 19.9642 16.1383 19.1699 14.2297C18.3566 12.2754 16.3375 11.5916 14.3242 11.5783C12.5972 11.5669 10.7807 11.5656 8.87465 11.5745C8.86202 11.5745 8.84991 11.5795 8.84098 11.5884C8.83205 11.5974 8.82703 11.6095 8.82703 11.6221V28.7574C8.82703 28.7686 8.82925 28.7798 8.83356 28.7902C8.83786 28.8006 8.84418 28.81 8.85214 28.818C8.8601 28.8259 8.86954 28.8322 8.87994 28.8365C8.89034 28.8408 8.90149 28.8431 8.91274 28.8431C10.7273 28.8469 12.601 28.8456 14.5337 28.8393C16.9737 28.8335 19.2461 27.9612 19.7223 25.3288C19.8226 24.7726 19.8493 24.1281 19.8023 23.3954C19.6918 21.6754 18.9546 20.6774 17.507 20.0297C17.38 19.9726 17.3794 19.9142 17.5051 19.8545ZM30.5432 11.6259C30.5432 11.6113 30.5374 11.5972 30.527 11.5869C30.5167 11.5765 30.5026 11.5707 30.488 11.5707H23.1089C23.0943 11.5707 23.0802 11.5765 23.0699 11.5869C23.0595 11.5972 23.0537 11.6113 23.0537 11.6259V13.5535C23.0537 13.5608 23.0551 13.568 23.0579 13.5747C23.0607 13.5814 23.0647 13.5875 23.0699 13.5926C23.075 13.5977 23.0811 13.6018 23.0878 13.6046C23.0945 13.6074 23.1017 13.6088 23.1089 13.6088H30.488C30.4952 13.6088 30.5024 13.6074 30.5091 13.6046C30.5158 13.6018 30.5219 13.5977 30.527 13.5926C30.5322 13.5875 30.5362 13.5814 30.539 13.5747C30.5418 13.568 30.5432 13.5608 30.5432 13.5535V11.6259ZM25.587 23.5707H32.2899C32.312 23.5707 32.3332 23.5622 32.3492 23.5469C32.3652 23.5317 32.3746 23.5108 32.3756 23.4888C32.5032 20.2202 32.1451 16.1707 27.9261 15.904C25.2689 15.7345 23.3375 17.104 22.6861 19.7954C22.3299 21.2602 22.3204 23.2564 22.5604 24.7593C22.8632 26.664 23.9927 28.2278 25.8689 28.7821C28.2664 29.4907 30.354 29.012 32.1318 27.3459C32.1535 27.3261 32.167 27.2988 32.1698 27.2693C32.1726 27.2398 32.1645 27.2101 32.147 27.1859L30.8118 25.3288C30.7546 25.2488 30.6931 25.245 30.627 25.3174C29.8918 26.1288 28.7985 26.4869 27.688 26.4145C26.1185 26.3097 25.4861 25.1345 25.467 23.6907C25.4658 23.6107 25.5058 23.5707 25.587 23.5707Z" fill="#C58B79"/>
<path d="M12.2574 14.5193C12.2574 14.496 12.2666 14.4737 12.283 14.4573C12.2995 14.4409 12.3218 14.4316 12.345 14.4316L14.3374 14.4355C14.573 14.436 14.8062 14.4829 15.0237 14.5736C15.2412 14.6644 15.4388 14.7971 15.605 14.9642C15.7713 15.1314 15.903 15.3297 15.9927 15.5478C16.0824 15.7659 16.1284 15.9996 16.1279 16.2355V16.8983C16.1274 17.1342 16.0804 17.3677 15.9898 17.5854C15.8992 17.8031 15.7666 18.0009 15.5996 18.1673C15.4327 18.3337 15.2346 18.4656 15.0167 18.5554C14.7988 18.6452 14.5654 18.6912 14.3298 18.6907L12.3374 18.6869C12.3141 18.6869 12.2919 18.6776 12.2754 18.6612C12.259 18.6448 12.2498 18.6225 12.2498 18.5993L12.2574 14.5193Z" fill="#C58B79"/>
<path d="M25.3813 21.1484C25.3745 21.1484 25.3678 21.147 25.3616 21.1444C25.3553 21.1419 25.3497 21.1381 25.3449 21.1333C25.3401 21.1285 25.3363 21.1229 25.3337 21.1166C25.3312 21.1104 25.3298 21.1037 25.3298 21.0969L25.3317 20.4169C25.3335 19.9049 25.5055 19.4144 25.8098 19.0533C26.1141 18.6922 26.5259 18.49 26.9546 18.4912H27.1451C27.3575 18.4918 27.5678 18.5424 27.7637 18.64C27.9597 18.7377 28.1376 18.8806 28.2873 19.0605C28.4369 19.2404 28.5554 19.4538 28.6359 19.6885C28.7164 19.9232 28.7574 20.1746 28.7565 20.4284L28.7546 21.1084C28.7546 21.1151 28.7533 21.1218 28.7507 21.128C28.7481 21.1343 28.7443 21.1399 28.7395 21.1447C28.7348 21.1495 28.7291 21.1533 28.7228 21.1559C28.7166 21.1585 28.7099 21.1598 28.7032 21.1598L25.3813 21.1484Z" fill="#C58B79"/>
<path d="M16.2594 24.4362C16.1051 25.4438 15.4594 26.0458 14.4709 26.0477C13.7407 26.0489 13.0328 26.0483 12.347 26.0458C12.3228 26.0458 12.2995 26.0359 12.2824 26.0184C12.2652 26.0009 12.2556 25.9772 12.2556 25.9524V21.4267C12.2556 21.4153 12.2579 21.404 12.2623 21.3935C12.2667 21.3829 12.2732 21.3734 12.2814 21.3654C12.2896 21.3574 12.2992 21.3512 12.3098 21.347C12.3205 21.3428 12.3318 21.3407 12.3432 21.341C13.0048 21.3537 13.6747 21.3518 14.3528 21.3353C16.5032 21.2838 16.5128 22.7772 16.2594 24.4362Z" fill="#C58B79"/>
</g>
<defs>
<clipPath id="clip0_896_2105">
<rect width="39.4286" height="40" fill="white" transform="translate(0.386963 0.333008)"/>
</clipPath>
</defs>
</svg>
