<svg width="48" height="41" viewBox="0 0 48 41" fill="none" xmlns="http://www.w3.org/2000/svg">
<path d="M44.9515 7.824L24.3709 20.6881C24.3359 20.7101 24.3003 20.7101 24.2641 20.6881L3.66409 7.81235C3.64413 7.79993 3.62784 7.7824 3.61692 7.76158C3.606 7.74075 3.60083 7.71739 3.60196 7.6939C3.64338 6.55474 4.11458 5.63177 5.01555 4.92497C5.70293 4.38646 6.4874 4.11785 7.36895 4.11915C18.7243 4.14892 29.877 4.16122 40.8272 4.15604C41.6712 4.15604 42.2816 4.23112 42.6583 4.38128C44.0835 4.94957 44.8757 6.04148 45.035 7.65701C45.0378 7.68984 45.0315 7.72281 45.0168 7.75228C45.002 7.78175 44.9794 7.80657 44.9515 7.824Z" fill="#C58B79"/>
<path d="M24.4134 24.8031L44.9105 11.9973C44.9219 11.99 44.9352 11.9859 44.9488 11.9854C44.9624 11.985 44.9758 11.9882 44.9878 11.9948C44.9997 12.0013 45.0096 12.011 45.0165 12.0227C45.0234 12.0344 45.027 12.0478 45.027 12.0614C45.0296 18.9429 45.0283 25.9183 45.0231 32.9876C45.0231 34.4025 44.5034 35.5313 43.4639 36.374C42.3532 37.275 41.2348 37.308 39.8852 37.3022C28.9066 37.2659 18.2127 37.2672 7.80368 37.306C5.99592 37.3119 4.46582 36.2012 3.82698 34.5099C3.65999 34.0685 3.57779 33.3112 3.58038 32.2381C3.59721 25.3462 3.60109 18.6096 3.59203 12.0284C3.59213 12.0171 3.59521 12.006 3.60097 11.9963C3.60672 11.9866 3.61494 11.9785 3.6248 11.973C3.63466 11.9675 3.6458 11.9647 3.65709 11.9649C3.66839 11.965 3.67944 11.9682 3.68912 11.974L24.2212 24.8031C24.2859 24.8433 24.35 24.8433 24.4134 24.8031Z" fill="#C58B79"/>
</svg>
