<svg width="24" height="20" viewBox="0 0 24 20" fill="none" xmlns="http://www.w3.org/2000/svg">
<path d="M22.4756 3.7455L12.1853 10.1775C12.1678 10.1885 12.15 10.1885 12.1319 10.1775L1.83193 3.73967C1.82194 3.73346 1.8138 3.7247 1.80834 3.71428C1.80288 3.70387 1.80029 3.69219 1.80086 3.68045C1.82157 3.11087 2.05717 2.64938 2.50765 2.29598C2.85134 2.02673 3.24358 1.89242 3.68435 1.89307C9.36202 1.90796 14.9384 1.9141 20.4135 1.91152C20.8355 1.91152 21.1407 1.94906 21.329 2.02414C22.0416 2.30828 22.4378 2.85423 22.5174 3.662C22.5188 3.67841 22.5156 3.6949 22.5083 3.70964C22.5009 3.72437 22.4896 3.73678 22.4756 3.7455Z" fill="#C58B79"/>
<path d="M12.2068 12.2351L22.4554 5.83215C22.4611 5.82848 22.4677 5.82643 22.4745 5.82621C22.4813 5.82599 22.488 5.8276 22.494 5.83088C22.5 5.83415 22.5049 5.83898 22.5084 5.84484C22.5118 5.8507 22.5136 5.85738 22.5136 5.86419C22.5149 9.30496 22.5143 12.7927 22.5117 16.3273C22.5117 17.0347 22.2518 17.5991 21.7321 18.0205C21.1767 18.471 20.6175 18.4875 19.9427 18.4846C14.4534 18.4665 9.10649 18.4671 3.90196 18.4865C2.99808 18.4894 2.23303 17.9341 1.91361 17.0885C1.83012 16.8677 1.78902 16.4891 1.79031 15.9525C1.79873 12.5066 1.80067 9.1383 1.79614 5.84768C1.79619 5.84203 1.79773 5.8365 1.8006 5.83164C1.80348 5.82678 1.80759 5.82276 1.81252 5.82C1.81745 5.81724 1.82302 5.81583 1.82867 5.81592C1.83432 5.81601 1.83984 5.81759 1.84468 5.8205L12.1107 12.2351C12.1431 12.2551 12.1751 12.2551 12.2068 12.2351Z" fill="#C58B79"/>
</svg>
