<svg width="41" height="41" viewBox="0 0 41 41" fill="none" xmlns="http://www.w3.org/2000/svg">
<g clip-path="url(#clip0_896_2101)">
<path d="M38.0445 33.9582C38.0445 34.9798 37.6387 35.9597 36.9162 36.6821C36.1938 37.4046 35.214 37.8104 34.1923 37.8104H7.3022C6.28052 37.8104 5.30069 37.4046 4.57825 36.6821C3.85581 35.9597 3.44995 34.9798 3.44995 33.9582V7.06807C3.44995 6.04639 3.85581 5.06656 4.57825 4.34412C5.30069 3.62168 6.28052 3.21582 7.3022 3.21582H34.1923C34.6982 3.21582 35.1991 3.31546 35.6665 3.50906C36.1339 3.70265 36.5585 3.9864 36.9162 4.34412C37.274 4.70183 37.5577 5.1265 37.7513 5.59388C37.9449 6.06126 38.0445 6.56219 38.0445 7.06807V33.9582ZM15.1241 11.8071C15.1025 11.1905 14.811 10.6087 14.3135 10.1896C13.816 9.77046 13.1534 9.54838 12.4715 9.5722C11.7895 9.59602 11.144 9.86378 10.677 10.3166C10.21 10.7694 9.95972 11.3702 9.98125 11.9867C10.0028 12.6033 10.2943 13.1851 10.7918 13.6042C11.2893 14.0233 11.9519 14.2454 12.6338 14.2216C13.3158 14.1978 13.9613 13.93 14.4283 13.4772C14.8953 13.0244 15.1456 12.4236 15.1241 11.8071ZM14.9797 16.7329C14.9797 16.7176 14.9736 16.703 14.9628 16.6922C14.952 16.6814 14.9373 16.6753 14.922 16.6753H10.1869C10.1716 16.6753 10.1569 16.6814 10.1461 16.6922C10.1353 16.703 10.1292 16.7176 10.1292 16.7329V30.0591C10.1292 30.0744 10.1353 30.089 10.1461 30.0998C10.1569 30.1106 10.1716 30.1167 10.1869 30.1167H14.922C14.9373 30.1167 14.952 30.1106 14.9628 30.0998C14.9736 30.089 14.9797 30.0744 14.9797 30.0591V16.7329ZM23.8301 18.3077L23.8337 16.7816C23.8337 16.7107 23.7983 16.6753 23.7274 16.6753L19.0824 16.6771C19.0187 16.6771 18.9869 16.7089 18.9869 16.7726V30.0194C18.9869 30.0452 18.997 30.07 19.0149 30.0882C19.0328 30.1065 19.0571 30.1167 19.0824 30.1167H23.7653C23.7839 30.1167 23.8018 30.1093 23.815 30.0961C23.8281 30.083 23.8355 30.0651 23.8355 30.0465C23.8307 27.7858 23.8301 25.3359 23.8337 22.6969C23.8337 21.8897 24.068 21.2669 24.5364 20.8284C25.0482 20.3492 25.5911 20.1834 26.1653 20.3311C27.2752 20.6158 27.6013 21.8897 27.5977 22.9564C27.5881 25.4008 27.5857 27.7546 27.5905 30.0176C27.5905 30.0825 27.6235 30.1149 27.6896 30.1149L32.1653 30.1167C32.2409 30.1167 32.2788 30.0789 32.2788 30.0032C32.2764 27.5275 32.2758 25.1636 32.277 22.9113C32.2788 20.4483 31.6049 17.0807 28.6265 16.7221C26.9995 16.5275 24.9509 16.8879 23.9671 18.3492C23.8746 18.4873 23.8289 18.4735 23.8301 18.3077Z" fill="#C58B79"/>
</g>
<defs>
<clipPath id="clip0_896_2101">
<rect width="39.6396" height="40" fill="white" transform="translate(0.747314 0.333008)"/>
</clipPath>
</defs>
</svg>
