<svg width="21" height="20" viewBox="0 0 21 20" fill="none" xmlns="http://www.w3.org/2000/svg">
<g clip-path="url(#clip0_896_99)">
<path d="M19.5222 16.8126C19.5222 17.3234 19.3192 17.8133 18.958 18.1746C18.5968 18.5358 18.1069 18.7387 17.596 18.7387H4.15098C3.64014 18.7387 3.15022 18.5358 2.789 18.1746C2.42778 17.8133 2.22485 17.3234 2.22485 16.8126V3.36753C2.22485 2.85669 2.42778 2.36677 2.789 2.00556C3.15022 1.64434 3.64014 1.44141 4.15098 1.44141H17.596C17.849 1.44141 18.0994 1.49123 18.3331 1.58802C18.5668 1.68482 18.7791 1.8267 18.958 2.00556C19.1369 2.18441 19.2787 2.39675 19.3755 2.63044C19.4723 2.86412 19.5222 3.11459 19.5222 3.36753V16.8126ZM8.06191 5.73705C8.05114 5.42877 7.90536 5.13785 7.65663 4.92829C7.4079 4.71873 7.0766 4.60769 6.73561 4.6196C6.39462 4.6315 6.07188 4.76539 5.83837 4.99179C5.60487 5.21819 5.47974 5.51857 5.4905 5.82685C5.50127 6.13512 5.64705 6.42604 5.89578 6.6356C6.14451 6.84517 6.47581 6.95621 6.8168 6.9443C7.15779 6.93239 7.48053 6.79851 7.71404 6.5721C7.94754 6.3457 8.07267 6.04532 8.06191 5.73705ZM7.98972 8.19996C7.98972 8.19232 7.98668 8.18499 7.98127 8.17958C7.97587 8.17417 7.96854 8.17114 7.96089 8.17114H5.59332C5.58568 8.17114 5.57834 8.17417 5.57294 8.17958C5.56753 8.18499 5.56449 8.19232 5.56449 8.19996V14.863C5.56449 14.8707 5.56753 14.878 5.57294 14.8834C5.57834 14.8888 5.58568 14.8919 5.59332 14.8919H7.96089C7.96854 14.8919 7.97587 14.8888 7.98127 14.8834C7.98668 14.878 7.98972 14.8707 7.98972 14.863V8.19996ZM12.4149 8.98735L12.4167 8.22429C12.4167 8.18885 12.399 8.17114 12.3636 8.17114L10.0411 8.17204C10.0092 8.17204 9.99332 8.18795 9.99332 8.21978V14.8432C9.99332 14.8561 9.99835 14.8685 10.0073 14.8776C10.0163 14.8867 10.0284 14.8919 10.0411 14.8919H12.3825C12.3918 14.8919 12.4008 14.8882 12.4074 14.8816C12.4139 14.875 12.4176 14.866 12.4176 14.8567C12.4152 13.7264 12.4149 12.5015 12.4167 11.1819C12.4167 10.7783 12.5339 10.4669 12.7681 10.2477C13.024 10.0081 13.2954 9.92519 13.5825 9.99906C14.1375 10.1414 14.3005 10.7783 14.2987 11.3117C14.2939 12.5339 14.2927 13.7108 14.2951 14.8423C14.2951 14.8747 14.3116 14.891 14.3447 14.891L16.5825 14.8919C16.6203 14.8919 16.6393 14.8729 16.6393 14.8351C16.6381 13.5973 16.6378 12.4153 16.6384 11.2892C16.6393 10.0576 16.3023 8.37384 14.8131 8.19456C13.9996 8.09726 12.9753 8.27744 12.4834 9.00807C12.4372 9.07714 12.4143 9.07024 12.4149 8.98735Z" fill="#C58B79"/>
</g>
<defs>
<clipPath id="clip0_896_99">
<rect width="19.8198" height="20" fill="white" transform="translate(0.873535)"/>
</clipPath>
</defs>
</svg>
