<svg width="50" height="50" viewBox="0 0 50 50" fill="none" xmlns="http://www.w3.org/2000/svg">
<g clip-path="url(#clip0_896_95)">
<g filter="url(#filter0_d_896_95)">
<path fill-rule="evenodd" clip-rule="evenodd" d="M20.3226 35.1647C20.5639 34.6138 21.0733 34.105 21.5876 33.7014C22.6495 32.8681 23.7386 32.0611 24.8277 31.2541L24.8281 31.2538L24.8284 31.2536C25.4159 30.8183 26.0033 30.383 26.5866 29.9436C26.7636 29.8102 26.9189 29.6549 27.0992 29.4746C27.1909 29.383 27.2889 29.2849 27.3996 29.18C27.4369 29.2966 27.4677 29.3864 27.4928 29.4597C27.5344 29.5813 27.5605 29.6575 27.5752 29.7353C28.0238 32.114 29.0652 33.1899 31.3696 33.6498C33.505 34.0761 35.6331 33.3167 36.9165 31.4849C37.4014 30.7927 37.7561 30.0308 38.1108 29.2691C38.2684 28.9305 38.426 28.592 38.5951 28.2596C39.1325 27.2029 38.4994 26.8452 37.5174 26.7111C37.2859 27.1035 37.0635 27.4929 36.8436 27.8781L36.8433 27.8785C36.2831 28.8594 35.7388 29.8124 35.1016 30.7153C34.8209 31.1131 34.0536 31.4421 33.5177 31.4325C33.2268 31.4272 32.7837 30.6671 32.7007 30.2074C32.2128 27.5069 32.8505 24.9223 33.4935 22.3161C33.6795 21.5626 33.8658 20.8073 34.0256 20.0468C34.3626 20.0287 34.6896 20.0108 35.0092 19.9933L35.1386 19.9862L35.1457 19.9858L35.1629 19.9849L35.1672 19.9846C35.9656 19.9409 36.7205 19.8995 37.4757 19.8625C39.1002 19.783 39.6752 18.9977 39.1415 17.5777C38.1611 17.6668 37.1807 17.7558 36.1852 17.8461L34.6464 17.9858C34.7815 17.3985 34.913 16.8249 35.0424 16.261L35.0429 16.2588C35.346 14.9376 35.637 13.6692 35.9316 12.4015C36.1594 11.4211 36.032 10.5759 34.9502 9.98313C33.641 9.26583 32.2449 9.01242 30.7666 9.3838C30.5258 9.4443 30.3407 9.9337 30.2829 10.2464C30.1 11.2348 29.9368 12.2258 29.7735 13.217C29.6497 13.9686 29.5258 14.7203 29.3935 15.4708C28.8786 18.39 28.8642 18.3913 25.5449 18.6847L25.4641 18.6919C24.6056 18.7678 24.0722 18.4997 23.3596 18.092C22.4853 17.5919 21.333 17.414 20.2488 17.2467L20.2483 17.2466L20.2471 17.2464L20.2449 17.2461L20.2412 17.2455C20.1637 17.2335 20.0865 17.2216 20.0099 17.2096C19.1553 17.0761 18.8684 17.5703 18.7461 18.3249C17.9696 23.1138 17.1503 27.8981 16.2396 32.6686C16.1413 33.1836 15.4337 33.6746 14.8925 34.0485C14.281 34.471 13.6343 34.8628 12.9883 35.2542C11.8163 35.9643 10.6466 36.6731 9.69304 37.5612C9.6253 37.6243 9.55961 37.6877 9.49596 37.7516C7.53243 39.7203 7.50903 42.0291 9.12757 44.2107C12.1981 46.4825 14.7227 46.3826 16.5635 43.6983C16.7023 43.4958 16.8373 43.2786 16.9683 43.0467C17.8685 41.4527 18.5177 39.752 19.1676 38.0498C19.537 37.0821 19.9066 36.114 20.3226 35.1647ZM24.1136 20.0262L28.4243 20.2343L28.4238 20.2372L28.4236 20.2387L28.2915 21.0601L27.6824 24.8481C27.6627 25.0117 27.6512 25.17 27.6401 25.3219C27.6238 25.5466 27.6084 25.7574 27.5692 25.9506C27.4918 26.3544 27.3009 26.6947 26.7391 26.9149C26.6852 26.9361 26.6279 26.9561 26.567 26.975C26.3045 27.0563 26.1503 27.4053 25.9964 27.7538C25.9267 27.9117 25.857 28.0695 25.7773 28.2023C24.7774 29.8674 23.3368 31.1283 21.2438 32.0639L24.1136 20.0262ZM9.76659 41.3523C9.88786 40.4024 10.2244 39.2725 10.9492 38.6269C11.0117 38.5712 11.0751 38.5163 11.1393 38.462C11.9886 37.7452 12.9828 37.1523 13.977 36.5593C14.4253 36.292 14.8736 36.0246 15.3086 35.7459C15.2965 35.7925 15.2843 35.8389 15.2721 35.8853L15.3019 35.8687L15.3633 35.8343C14.8482 37.5273 14.3163 39.1483 13.6982 40.7412C13.6757 40.7992 13.6531 40.8572 13.6303 40.9152C13.4257 41.4364 13.0655 41.9828 12.5959 42.333C12.1149 42.6916 11.1662 43.1559 10.8605 42.9831C10.2996 42.6659 9.69927 41.8796 9.76659 41.3523Z" fill="#C58B79"/>
<path fill-rule="evenodd" clip-rule="evenodd" d="M16.5635 43.6983C14.7227 46.3826 12.1981 46.4825 9.12757 44.2107C7.50903 42.0291 7.53243 39.7203 9.49596 37.7516C7.5227 39.73 7.50644 42.0496 9.07532 44.1719L9.09781 44.1887L9.12757 44.2107C9.13553 44.2215 9.14354 44.2322 9.15158 44.2429C12.1748 46.4886 14.7126 46.3981 16.5635 43.6983ZM27.6824 24.8481L28.2915 21.0601C28.0839 22.3502 27.8795 23.6174 27.6598 24.962C27.6445 25.101 27.6362 25.2381 27.6281 25.3718C27.6158 25.5742 27.604 25.7689 27.5692 25.9506C27.4849 26.3652 27.2904 26.6986 26.7391 26.9149C27.3009 26.6947 27.4918 26.3544 27.5692 25.9506C27.6084 25.7574 27.6238 25.5466 27.6401 25.3219C27.6512 25.17 27.6627 25.0117 27.6824 24.8481ZM13.977 36.5593C12.9828 37.1523 11.9886 37.7452 11.1393 38.462C12.1673 37.5946 13.4092 36.9115 14.6355 36.237C14.8486 36.1198 15.0612 36.0029 15.2721 35.8853C14.8184 37.6092 14.3001 39.1899 13.6982 40.7412C14.3163 39.1483 14.8482 37.5273 15.3633 35.8343L15.3019 35.8687L15.2721 35.8853C15.2843 35.8389 15.2965 35.7925 15.3086 35.7459C14.8736 36.0246 14.4253 36.292 13.977 36.5593ZM20.6031 10.7081C20.5791 11.0177 20.5567 11.3276 20.5344 11.6374L20.5344 11.6377L20.5343 11.6381C20.4851 12.3208 20.4359 13.0035 20.3685 13.6848C20.4475 12.8857 20.5016 12.0832 20.56 11.2171L20.56 11.2167L20.56 11.2164C20.5727 11.0287 20.5855 10.8381 20.5989 10.6438L20.6031 10.7081ZM20.5989 10.6438C20.5573 10.0153 20.5129 9.44138 20.4707 8.89584C20.4286 8.35214 20.3887 7.83665 20.356 7.32349C20.3945 7.92707 20.4429 8.53202 20.4931 9.15962C20.5299 9.6189 20.5676 10.0903 20.6031 10.5822L20.5989 10.6438Z" fill="#C58B79"/>
<path d="M20.3633 13.7373C20.2451 14.9168 20.8491 15.4367 22.0974 15.005C22.7981 14.7627 23.6552 14.2717 23.895 13.7137C24.7548 11.7134 25.503 9.66099 26.0498 7.57953C26.3718 6.35352 25.0664 5.93135 23.9964 5.68867C22.782 5.41325 21.465 5.2277 20.4559 6.15267C20.2769 6.31675 20.3072 6.68211 20.3334 6.99796C20.3382 7.05555 20.3428 7.11149 20.346 7.16427C20.3493 7.21734 20.3526 7.2704 20.356 7.32349C20.3945 7.92707 20.4429 8.53202 20.4931 9.15962C20.5299 9.6189 20.5676 10.0903 20.6031 10.5822L20.5989 10.6438L20.6031 10.7081C20.5791 11.0177 20.5567 11.3276 20.5344 11.6374L20.5344 11.6377L20.5343 11.6381C20.4851 12.3208 20.4359 13.0035 20.3685 13.6848L20.3641 13.7291L20.3633 13.7373Z" fill="#BA745E"/>
</g>
</g>
<defs>
<filter id="filter0_d_896_95" x="-7.04761" y="-3.53564" width="61.3826" height="70.3687" filterUnits="userSpaceOnUse" color-interpolation-filters="sRGB">
<feFlood flood-opacity="0" result="BackgroundImageFix"/>
<feColorMatrix in="SourceAlpha" type="matrix" values="0 0 0 0 0 0 0 0 0 0 0 0 0 0 0 0 0 0 127 0" result="hardAlpha"/>
<feOffset dy="6"/>
<feGaussianBlur stdDeviation="7.5"/>
<feComposite in2="hardAlpha" operator="out"/>
<feColorMatrix type="matrix" values="0 0 0 0 0.52549 0 0 0 0 0.258824 0 0 0 0 0.176471 0 0 0 0.2 0"/>
<feBlend mode="normal" in2="BackgroundImageFix" result="effect1_dropShadow_896_95"/>
<feBlend mode="normal" in="SourceGraphic" in2="effect1_dropShadow_896_95" result="shape"/>
</filter>
<clipPath id="clip0_896_95">
<rect width="50" height="50" fill="white"/>
</clipPath>
</defs>
</svg>
